<mxfile host="app.diagrams.net" modified="2024-07-21T22:11:38.084Z" agent="Mozilla/5.0 (X11; Linux x86_64; rv:128.0) Gecko/20100101 Firefox/128.0" etag="R4gth6e9WY7MvQpIRUy_" version="24.7.1" type="device">
  <diagram name="Page-1" id="Gl2QCmP2HWOpp1-5gM0Y">
    <mxGraphModel dx="707" dy="1829" grid="1" gridSize="10" guides="1" tooltips="1" connect="1" arrows="1" fold="1" page="1" pageScale="1" pageWidth="850" pageHeight="1100" math="0" shadow="0">
      <root>
        <mxCell id="0" />
        <mxCell id="1" parent="0" />
        <mxCell id="qtU55LKM3CnI8l4rLabQ-1" value="" style="shape=image;verticalLabelPosition=bottom;labelBackgroundColor=default;verticalAlign=top;aspect=fixed;imageAspect=0;image=data:image/png,iVBORw0KGgoAAAANSUhEUgAAA5UAAASwCAYAAABrbm7YAAAgAElEQVR4XuzdCZikBXkn8K+P6em752AOYDhGUQEzICKHhDWRrEdMNBJMNK55EjUsUaNEdzUJm3glo/uo620Wopj4rBsP1sSYXUXyGEWUW44QiIZDxhmOZpiZnquv6Z7eKnR0uqeP6uq3u6v6/dU+eXY31Pd+3//3VvHUn6quaijcCBAgQIAAAQIECBAgQIBAlQINVR7nMAIECBAgQIAAAQIECBAgUCiVHgQECBAgQIAAAQIECBAgULWAUlk1nQMJECBAgAABAgQIECBAQKn0GCBAgAABAgQIECBAgACBigU+UhSfvbQoXnXoAKWyYjp3JECAAAECBAgQIECAAIGxohgrFcmfdkml0mOCAAECBAgQIECAAAECBCoWUCorpnJHAgQIECBAgAABAgQIEJgooFR6TBAgQIAAAQIECBAgQIBA1QJKZdV0DiRAgAABAgQIECBAgAABpdJjgAABAgQIECBAgAABAgSqFlAqq6ZzIAECBAgQIECAAAECBAgolR4DBAgQIECAAAECBAgQIFC1gFJZNZ0DCRAgQIAAAQIECBAgQECp9BggQIAAAQIECBAgQIAAgaoFlMqq6RxIgAABAgQIECBAgAABAkqlxwABAgQIECBAgAABAgQIVC2gVFZN50ACBAgQIECAAAECBAgQUCo9BggQIECAAAECBAgQIECgagGlsmo6BxIgQIAAAQIECBAgQICAUukxQIAAAQIECBAgQIAAAQJVCyiVVdM5kAABAgQIECBAgAABAgSUSo8BAgQIECBAgAABAgQIEKhaQKmsms6BBAgQIECAAAECBAgQIKBUegwQIECAAAECBAgQIECAQNUCSmXVdA4kQIAAAQIECBAgQIAAAaXSY4AAAQIECBAgQIAAAQIEqhZQKqumcyABAgQIECBAgAABAgRyCzy/KDq+XhT7SgrLG4piuKxR+r/dCBAgQIAAAQIECBAgQIBAZQLeqazMyb0IECBAgAABAgQIECBAYBIBpdLDggABAgQIECBAgAABAgSqFlAqq6ZzIAECBAgQIECAAAECBAgolR4DBAgQIECAAAECBAgQIFC1gFJZNZ0DCRAgQIAAAQIECBAgQECp9BggQIAAAQIECBAgQIAAgaoFlMqq6RxIgAABAgQIECBAgAABAkqlxwABAgQIECBAgAABAgQIVC2gVFZN50ACBAgQIECAAAECBAgQUCo9BggQIECAAAECBAgQIECgagGlsmo6BxIgQIAAAQIECBAgQICAUukxQIAAAQIECBAgQIAAAQJVCyiVVdM5kAABAgQIECBAgAABAgSUSo8BAgQIECBAgAABAgQIEKhaQKmsms6BBAgQIECAAAECBAgQIKBUegwQIECAAAECBAgQIECAQNUCSmXVdA4kQIAAAQIECBAgQIAAAaXSY4AAAQIECBAgQIAAAQIEqhZQKqumcyABAgQIECBAgAABAgQIKJUeAwQIECBAgAABAgQIECBQtYBSWTWdAwkQIECAAAECBAgQIEBAqfQYIECAAAECBAgQIECAAIEwgYawSQYRIECAAAECBAgQIECAQDoBpTLdygUmQIAAAQIECBAgQIBAnIBSGWdpEgECBAgQIECAAAECBNIJKJXpVi4wAQIECBAgQIAAAQIE4gSUyjhLkwgQIECAAAECBAgQIJBOQKlMt3KBCRAgQIAAAQIECBAgECegVMZZmkSAAAECBAgQIECAAIF0AkplupULTIAAAQIECBAgQIAAgTgBpTLO0iQCBAgQIECAAAECBAikE1Aq061cYAIECBAgQIAAAQIECMQJKJVxliYRIECAAAECBAgQIEAgnYBSmW7lAhMgQIAAAQIECBAgQCBOQKmMszSJAAECBAgQIECAAAEC6QSUynQrF5gAAQIECBAgQIAAAQJxAkplnKVJBAgQIECAAAECBAgQSCegVKZbucAECBAgQIAAAQIECBCIE1Aq4yxNIkCAAAECBAgQIECAQDoBpTLdygUmQIAAAQIECBAgQIBAnIBSGWdpEgECBAgQIECAAAECBNIJKJXpVi4wAQIECBAgQIAAAQIE4gSUyjhLkwgQIECAAAECBAgQIJBOQKlMt3KBCRAgQIAAAQIECBAgECegVMZZmkSAAAECBAgQIECAAIF0AkplupULTIAAAQIECBAgQIAAgTgBpTLO0iQCBAgQIECAAAECBAikE1Aq061cYAIECBAgQIAAAQIECMQJKJVxliYRIECAAAECBAgQIEAgnYBSmW7lAhMgQIAAAQIECBAgQCBOQKmMszSJAAECBAgQIECAAAEC6QSUynQrF5gAAQIECBAgQIAAAQJxAkplnKVJBAgQIECAAAECBAgQSCegVKZbucAECBAgQIAAAQIECBCIE1Aq4yxNIkCAAAECBAgQIECAQDoBpTLdygUmQIAAAQIECBAgQIBAnIBSGWdpEgECBAgQIECAAAECBNIJKJXpVi4wAQIECBAgQIAAAQIE4gSUyjhLkwgQIECAAAECBAgQIJBOQKlMt3KBCRAgQIAAAQIECBAgECegVMZZmkSAAAECBAgQIECAAIF0AkplupULTIAAAQIECBAgQIAAgTgBpTLO0iQCBAgQIECAAAECBAikE1Aq061cYAIECBAgQIAAAQIECMQJKJVxliYRIECAAAECBAgQIEAgnYBSmW7lAhMgQIAAAQIECBAgQCBOQKmMszSJAAECBAgQIECAAAEC6QSUynQrF5gAAQIECBAgQIAAAQJxAkplnKVJBAgQIECAAAECBAgQSCegVKZbucAECBAgQIAAAQIECBCIE1Aq4yxNIkCAAAECBAgQIECAQDoBpTLdygUmQIAAAQIECBAgQIBAnIBSGWdpEgECBAgQIECAAAECBNIJKJXpVi4wAQIECBAgQIAAAQIE4gSUyjhLkwgQIECAAAECBAgQIJBOQKlMt3KBCRAgQIAAAQIECBAgECegVMZZmkSAAAECBAgQIECAAIF0AkplupULTIAAAQIECBAgQIAAgTgBpTLO0iQCBAgQIECAAAECBAikE1Aq061cYAIECBAgQIAAAQIECMQJKJVxliYRIECAAAECBAgQIEAgnYBSmW7lAhMgQIAAAQIECBAgQCBOQKmMszSJAAECBAgQIECAAAEC6QSUynQrF5gAAQIECBAgQIAAAQJxAkplnKVJBAgQIECAAAECBAgQSCegVKZbucAECBAgQIAAAQIECBCIE1Aq4yxNIkCAAAECBAgQIECAQDoBpTLdygUmQIAAAQIECBAgQIBAnIBSGWdpEgECBAgQIECAAAECBNIJKJXpVi4wAQIECBAgQIAAAQIE4gSUyjhLkwgQIECAAAECBAgQIJBOQKlMt3KBCRAgQIAAAQIECBAgECegVMZZmkSAAAECBAgQIECAAIF0AkplupULTIAAAQIECBAgQIAAgTgBpTLO0iQCBAgQIECAAAECBAikE1Aq061cYAIECBAgQIAAAQIECMQJKJVxliYRIECAAAECBAgQIEAgnYBSmW7lAhMgQIAAAQIECBAgQCBOQKmMszSJAAECBAgQIECAAAEC6QSUynQrF5gAAQIECBAgQIAAAQJxAkplnKVJBAgQIECAAAECBAgQSCegVKZbucAECBAgQIAAAQIECBCIE1Aq4yxNIkCAAAECBAgQIECAQDoBpTLdygUmQIAAAQIECBAgQIBAnIBSGWdpEgECBAgQIECAAAECBNIJKJXpVi4wAQIECBAgQIAAAQIE4gSUyjhLkwgQIECAAAECBAgQIJBOQKlMt3KBCRAgQIAAAQIECBAgECegVMZZmkSAAAECBAgQIECAAIF0AkplupULTIAAAQIECBAgQIAAgTgBpTLO0iQCBAgQIECAAAECBAikE1Aq061cYAIECBAgQIAAAQIECMQJKJVxliYRIECAAAECBAgQIEAgnYBSmW7lAhMgQIAAAQIECBAgQCBOQKmMszSJAAECBAgQIECAAAEC6QSUynQrF5gAAQIECBAgQIAAAQJxAkplnKVJBAgQIECAAAECBAgQSCegVKZbucAECBAgQIAAAQIECBCIE1Aq4yxNIkCAAAECBAgQIECAQDoBpTLdygUmQIAAAQIECBAgQIBAnIBSGWdpEgECBAgQIECAAAECBNIJKJXpVi4wAQIECBAgQIAAAQIE4gSUyjhLkwgQIECAAAECBAgQIJBOQKlMt3KBCRAgQIAAAQIECBAgECegVMZZmkSAAAECBAgQIECAAIF0AkplupULTIAAAQIECBAgQIAAgTgBpTLO0iQCBAgQIECAAAECBAikE1Aq061cYAIECBAgQIAAAQIECMQJKJVxliYRIECAAAECBAgQIEAgnYBSmW7lAhMgQIAAAQIECBAgQCBOQKmMszSJAAECBAgQIECAAAEC6QSUynQrF5gAAQIECBAgQIAAAQJxAkplnKVJBAgQIECAAAECBAgQSCegVKZbucAECBAgQIAAAQIECBCIE1Aq4yxNIkCAAAECBAgQIECAQDoBpTLdygUmQIAAAQIECBAgQIBAnIBSGWdpEgECBAgQIECAAAECBNIJKJXpVi4wAQIECBAgQIAAAQIE4gSUyjhLkwgQIECAAAECBAgQIJBOQKlMt3KBCRAgQIAAAQIECBAgECegVMZZmkSAAAECBAgQIECAAIF0AkplupULTIAAAQIECBAgQIAAgTgBpTLO0iQCBAgQIECAAAECBAikE1Aq061cYAIECBAgQIAAAQIECMQJKJVxliYRIECAAAECBAgQIEAgnYBSmW7lAhMgQIAAAQIECBAgQCBOQKmMszSJAAECBAgQIECAAAEC6QSUynQrF5gAAQIECBAgQIAAAQJxAkplnKVJBAgQIECAAAECBAgQSCegVKZbucAECBAgQIAAAQIECBCIE1Aq4yxNIkCAAAECBAgQIECAQDoBpTLdygUmQIAAAQIECBAgQIBAnIBSGWdpEgECBAgQIECAAAECBNIJKJXpVi4wAQIECBAgQIAAAQIE4gSUyjhLkwgQIECAAAECBAgQIJBOQKlMt3KBCRAgQIAAAQIECBAgECegVMZZmkSAAAECBAgQIECAAIF0AkplupULTIAAAQIECBAgQIAAgTgBpTLO0iQCBAgQIECAAAECBAikE1Aq061cYAIECBAgQIAAAQIECMQJKJVxliYRIECAAAECBAgQIEAgnYBSmW7lAhMgQIAAAQIECBAgQCBOQKmMszSJAAECBAgQIECAAAEC6QSUynQrF5gAAQIECBAgQIAAAQJxAkplnKVJBAgQIECAAAECBAgQSCegVKZbucAECBAgQIAAAQIECBCIE1Aq4yxNIkCAAAECBAgQIECAQDoBpTLdygUmQIAAAQIECBAgQIBAnIBSGWdpEgECBAgQIECAAAECBNIJKJXpVi4wAQIECBAgQIAAAQIE4gSUyjhLkwgQIECAAAECBAgQIJBOQKlMt3KBCRAgQIAAAQIECBAgECegVMZZmkSAAAECBAgQIECAAIF0AkplupULTIAAAQIECBAgQIAAgTgBpTLO0iQCBAgQIECAAAECBAikE1Aq061cYAIECBAgQIAAAQIECMQJKJVxliYRIECAAAECBAgQIEAgnYBSmW7lAhMgQIAAAQIECBAgQCBOQKmMszSJAAECBAgQIECAAAEC6QSUynQrF5gAAQIECBAgQIAAAQJxAkplnKVJBAgQIECAAAECBAgQSCegVKZbucAECBAgQIAAAQIECBCIE1Aq4yxNIkCAAAECBAgQIECAQDoBpTLdygUmQIAAAQIECBAgQIBAnIBSGWdpEgECBAgQIECAAAECBNIJKJXpVi4wAQIECBAgQIAAAQIE4gSUyjhLkwgQIECAAAECBAgQIJBOQKlMt3KBCRAgQIAAAQIECBAgECegVMZZmkSAAAECBAgQIECAAIF0AkplupULTIAAAQIECBAgQIAAgTgBpTLO0iQCBAgQIECAAAECBAikE1Aq061cYAIECBAgQIAAAQIECMQJKJVxliYRIECAAAECBAgQIEAgnYBSmW7lAhMgQIAAAQIECBAgQCBOQKmMszSJAAECBAgQIECAAAEC6QSUynQrF5gAAQIECBAgQIAAAQJxAkplnKVJBAgQIECAAAECBAgQSCegVKZbucAECBAgQIAAAQIECBCIE1Aq4yxNIkCAAAECBAgQIECAQDoBpTLdygUmQIAAAQIECBAgQIBAnIBSGWdpEgECBAgQIECAAAECBNIJKJXpVi4wAQIECBAgQIAAAQIE4gSUyjhLkwgQIECAAAECBAgQIJBOQKlMt3KBCRAgQIAAAQIECBAgECegVMZZmkSAAAECBAgQIECAAIF0AkplupULTIAAAQIECBAgQIAAgTgBpTLO0iQCBAgQIECAAAECBAikE1Aq061cYAIECBAgQIAAAQIECMQJKJVxliYRIECAAAECBAgQIEAgnYBSmW7lAhMgQIAAAQIECBAgQCBOQKmMszSJAAECBAgQIECAAAEC6QSUynQrF5gAAQIECBAgQIAAAQJxAkplnKVJBAgQIECAAAECBAgQSCegVKZbucAECBAgQIAAAQIECBCIE1Aq4yxNIkCAAAECBAgQIECAQDoBpTLdygUmQIAAAQIECBAgQIBAnIBSGWdpEgECBAgQIECAAAECBNIJKJXpVi4wAQIECBAgQIAAAQIE4gSUyjhLkwgQIECAAAECBAgQIJBOQKlMt3KBCRAgQIAAAQIECBAgECegVMZZmkSAAAECBAgQIECAAIF0AkplupULTIAAAQIECBAgQIAAgTgBpTLO0iQCBAgQIECAAAECBAikE1Aq061cYAIECBAgQIAAAQIECMQJKJVxliYRIECAAAECBAgQIEAgnYBSmW7lAhMgQIAAAQIECBAgQCBOQKmMszSJAAECBAgQIECAAAEC6QSUynQrF5gAAQIECBAgQIAAAQJxAkplnKVJBAgQIECAAAECBAgQSCegVKZbucAECBAgQIAAAQIECBCIE1Aq4yxNIkCAAAECBAgQIECAQDoBpTLdygUmQIAAAQIECBAgQIBAnIBSGWdpEgECBAgQIECAAAECBNIJKJXpVi4wAQIECBAgQIAAAQIE4gSUyjhLkwgQIECAAAECBAgQIJBOQKlMt3KBCRAgQIAAAQIECBAgECegVMZZmkSAAAECBAgQIECAAIF0AkplupULTIAAAQIECBAgQIAAgTgBpTLO0iQCBAgQIECAAAECBAikE1Aq061cYAIECBAgQIAAAQIECMQJKJVxliYRIECAAAECBAgQIEAgnYBSmW7lAhMgQIAAAQIECBAgQCBOQKmMszSJAAECBAgQIECAAAEC6QSUynQrF5gAAQIECBAgQIAAAQJxAkplnKVJBAgQIECAAAECBAgQSCegVKZbucAECBAgQIAAAQIECBCIE1Aq4yxNIkCAAAECBAgQIECAQDoBpTLdygUmQIAAAQIECBAgQIBAnIBSGWdpEgECBAgQIECAAAECBNIJKJXpVi4wAQIECBAgQIAAAQIE4gSUyjhLkwgQIECAAAECBAgQIJBOQKlMt3KBCRAgQIAAAQIECBAgECegVMZZmkSAAAECBAgQIECAAIF0AkplupULTIAAAQIECBAgQIAAgTgBpTLO0iQCBAgQIECAAAECBAikE1Aq061cYAIECBAgQIAAAQIECMQJKJVxliYRIECAAAECBAgQIEAgnYBSmW7lAhMgQIAAAQIECBAgQCBOQKmMszSJAAECBAgQIECAAAEC6QSUynQrF5gAAQIECBAgQIAAAQJxAkplnKVJBAgQIECAAAECBAgQSCegVKZbucAECBAgQIAAAQIECBCIE1Aq4yxNIkCAAAECBAgQIECAQDoBpTLdygUmQIAAAQIECBAgQIBAnIBSGWdpEgECBAgQIECAAAECBNIJKJXpVi4wAQIECBAgQIAAAQIE4gSUyjhLkwgQIECAAAECBAgQIJBOQKlMt3KBCRAgQIAAAQIECBAgECegVMZZmkSAAAECBAgQIECAAIF0AkplupULTIAAAQIECBAgQIAAgTgBpTLO0iQCBAgQIECAAAECBAikE1Aq061cYAIECBAgQIAAAQIECMQJKJVxliYRIECAAAECBAgQIEAgnYBSmW7lAhMgQIAAAQIECBAgQCBOQKmMszSJAAECBAgQIECAAAEC6QSUynQrF5gAAQIECBAgQIAAAQJxAkplnKVJBAgQIECAAAECBAgQSCegVKZbucAECBAgQIAAAQIECBCIE1Aq4yxNIkCAAAECBAgQIECAQDoBpTLdygUmQIAAAQIECBAgQIBAnIBSGWdpEgECBAgQIECAAAECBNIJKJXpVi4wAQIECBAgQIAAAQIE4gSUyjhLkwgQIECAAAECBAgQIJBOQKlMt3KBCRAgQIAAAQIECBAgECegVMZZmkSAAAECBAgQIECAAIF0AkplupULTIAAAQIECBAgQIAAgTgBpTLO0iQCBAgQIECAAAECBAikE1Aq061cYAIECBAgQIAAAQIECMQJKJVxliYRIECAAAECBAgQIEAgnYBSmW7lAhMgQIAAAQIECBAgQCBOQKmMszSJAAECBAgQIECAAAEC6QSUynQrF5gAAQIECBAgQIAAAQJxAkplnKVJBAgQIECAAAECBAgQSCegVKZbucAECBAgQIAAAQIECBCIE1Aq4yxNIkCAAAECBAgQIECAQDoBpTLdygUmQIAAAQIECBAgQIBAnIBSGWdpEgECBAgQIECAAAECBNIJKJXpVi4wAQIECBAgQIAAAQIE4gSUyjhLkwgQIECAAAECBAgQIJBOQKlMt3KBCRAgQIAAAQIECBAgECegVMZZmkSAAAECBAgQIECAAIF0AkplupULTIAAAQIECBAgQIAAgTgBpTLO0iQCBAgQIECAAAECBAikE1Aq061cYAIECBAgQIAAAQIECMQJKJVxliYRIECAAAECBAgQIEAgnYBSmW7lAhMgQIAAAQIECBAgQCBOQKmMszSJAAECBAgQIECAAAEC6QSUynQrF5gAAQIECBAgQIAAAQJxAkplnKVJBAgQIECAAAECBAgQSCegVKZbucAECBAgQIAAAQIECBCIE1Aq4yxNIkCAAAECBAgQIECAQDoBpTLdygUmQIAAAQIECBAgQIBAnIBSGWdpEgECBAgQIECAAAECBNIJKJXpVi4wAQIECBAgQIAAAQIE4gSUyjhLkwgQIECAAAECBAgQIJBOQKlMt3KBCRAgQIAAAQIECBAgECegVMZZmkSAAAECBAgQIECAAIF0AkplupULTIAAAQIECBAgQIAAgTgBpTLO0iQCBAgQIECAAAECBAikE1Aq061cYAIECBAgQIAAAQIECMQJKJVxliYRIECAAAECBAgQIEAgnYBSmW7lAhMgQIAAAQIECBAgQCBOQKmMszSJAAECBAgQIECAAAEC6QSUynQrF5gAAQIECBAgQIAAAQJxAkplnKVJBAgQIECAAAECBAgQSCegVKZbucAECBAgQIAAAQIECBCIE1Aq4yxNIkCAAAECBAgQIECAQDoBpTLdygUmQIAAAQIECBAgQIBAnIBSGWdpEgECBAgQIECAAAECBNIJKJXpVi4wAQIECBAgQIAAAQIE4gSUyjhLkwgQIECAAAECBAgQIJBOQKlMt3KBCRAgQIAAAQIECBAgECegVMZZmkSAAAECBAgQIECAAIF0AkplupULTIAAAQIECBAgQIAAgTgBpTLO0iQCBAgQIECAAAECBAikE1Aq061cYAIECBAgQIAAAQIECMQJKJVxliYRIECAAAECBAgQIEAgnYBSmW7lAhMgQIAAAQIECBAgQCBOQKmMszSJAAECBAgQIECAAAEC6QSUynQrF5gAAQIECBAgQIAAAQJxAkplnKVJBAgQIECAAAECBAgQSCegVKZbucAECBAgQIAAAQIECBCIE1Aq4yxNIkCAAAECBAgQIECAQDoBpTLdygUmQIAAAQIECBAgQIBAnIBSGWdpEgECBAgQIECAAAECBNIJKJXpVi4wAQIECBAgQIAAAQIE4gSUyjhLkwgQIECAAAECBAgQIJBOQKlMt3KBCRAgQIAAAQIECBAgECegVMZZmkSAAAECBAgQIECAAIF0AkplupULTIAAAQIECBAgQIAAgTgBpTLO0iQCBAgQIECAAAECBAikE1Aq061cYAIECBAgQIAAAQIECMQJKJVxliYRIECAAAECBAgQIEAgnYBSmW7lAhMgQIAAAQIECBAgQCBOQKmMszSJAAECBAgQIECAAAEC6QSUynQrF5gAAQIECBAgQIAAAQJxAkplnKVJBAgQIECAAAECBAgQSCegVKZbucAECBAgQIAAAQIECBCIE1Aq4yxNIkCAAAECBAgQIECAQDoBpTLdygUmQIAAAQIECBAgQIBAnIBSGWdpEgECBAgQIECAAAECBNIJKJXpVi4wAQIECBAgQIAAAQIE4gSUyjhLkwgQIECAAAECBAgQIJBOQKlMt3KBCRAgQIAAAQIECBAgECegVMZZmkSAAAECBAgQIECAAIF0AkplupULTIAAAQIECBAgQIAAgTgBpTLO0iQCBAgQIECAAAECBAikE1Aq061cYAIECBAgQIAAAQIECMQJKJVxliYRIECAAAECBAgQIEAgnYBSmW7lAhMgQIAAAQIECBAgQCBOQKmMszSJAAECBAgQIECAAAEC6QSUynQrF5gAAQIECBAgQIAAAQJxAkplnKVJBAgQIECAAAECBAgQSCegVKZbucAECBAgQIAAAQIECBCIE1Aq4yxNIkCAAAECBAgQIECAQDoBpTLdygUmQIAAAQIECBAgQIBAnIBSGWdpEgECBAgQIECAAAECBNIJKJXpVi4wAQIECBAgQIAAAQIE4gSUyjhLkwgQIECAAAECBAgQIJBOQKlMt3KBCRAgQIAAAQIECBAgEKXnx24AACAASURBVCegVMZZmkSAAAECBAgQIECAAIF0AkplupULTIAAAQIECBAgQIAAgTgBpTLO0iQCBAgQIECAAAECBAikE1Aq061cYAIECBAgQIAAAQIECMQJKJVxliYRIECAAAECBAgQIEAgnYBSmW7lAhMgQIAAAQIECBAgQCBOQKmMszSJAAECBAgQIECAAAEC6QSUynQrF5gAAQIECBAgQIAAAQJxAkplnKVJBAgQIECAAAECBAgQSCegVKZbucAECBAgQIAAAQIECBCIE1Aq4yxNIkCAAAECBAgQIECAQDoBpTLdygUmQIAAAQIECBAgQIBAnIBSGWdpEgECBAgQIECAAAECBNIJKJXpVi4wAQIECBAgQIAAAQIE4gSUyjhLkwgQIECAAAECBAgQIJBOQKlMt3KBCRAgQIAAAQIECBAgECegVMZZmkSAAAECBAgQIECAAIF0AkplupULTIAAAQIECBAgQIAAgTgBpTLO0iQCBAgQIECAAAECBAikE1Aq061cYAIECBAgQIAAAQIECMQJKJVxliYRIECAAAECBAgQIEAgnYBSmW7lAhMgQIAAAQIECBAgQCBOQKmMszSJAAECBAgQIECAAAEC6QSUynQrF5gAAQIECBAgQIAAAQJxAkplnKVJBAgQIECAAAECBAgQSCegVKZbucAECBAgQIAAAQIECBCIE1Aq4yxNIkCAAAECBAgQIECAQDoBpTLdygUmQIAAAQIECBAgQIBAnIBSGWdpEgECBAgQIECAAAECBNIJKJXpVi4wAQIECBAgQIAAAQIE4gSUyjhLkwgQIECAAAECBAgQIJBOQKlMt3KBCRAgQIAAAQIECBAgECegVMZZmkSAAAECBAgQIECAAIF0AkplupULTIAAAQIECBAgQIAAgTgBpTLO0iQCBAgQIECAAAECBAikE1Aq061cYAIECBAgQIAAAQIECMQJKJVxliYRIECAAAECBAgQIEAgnYBSmW7lAhMgQIAAAQIECBAgQCBOQKmMszSJAAECBAgQIECAAAEC6QSUynQrF5gAAQIECBAgQIAAAQJxAkplnKVJBAgQIECAAAECBAgQSCegVKZbucAECBAgQIAAAQIECBCIE1Aq4yxNIkCAAAECBAgQIECAQDoBpTLdygUmQIAAAQIECBAgQIBAnIBSGWdpEgECBAgQIECAAAECBNIJKJXpVi4wAQIECBAgQIAAAQIE4gSUyjhLkwgQIECAAAECBAgQIJBOQKlMt3KBCRAgQIAAAQIECBAgECegVMZZmkSAAAECBAgQIECAAIF0AkplupULTIAAAQIECBAgQIAAgTgBpTLO0iQCBAgQIECAAAECBAikE1Aq061cYAIECBAgQIAAAQIECMQJKJVxliYRIECAAAECBAgQIEAgnYBSmW7lAhMgQIAAAQIECBAgQCBOQKmMszSJAAECBAgQIECAAAEC6QSUynQrF5gAAQIECBAgQIAAAQJxAkplnKVJBAgQIECAAAECBAgQSCegVKZbucAECBAgQIAAAQIECBCIE1Aq4yxNIkCAAAECBAgQIECAQDoBpTLdygUmQIAAAQIECBAgQIBAnIBSGWdpEgECBAgQIECAAAECBNIJKJXpVi4wAQIECBAgQIAAAQIE4gSUyjhLkwgQIECAAAECBAgQIJBOQKlMt3KBCRAgQIAAAQIECBAgECegVMZZmkSAAAECBAgQIECAAIF0AkplupULTIAAAQIECBAgQIAAgTgBpTLO0iQCBAgQIECAAAECBAikE1Aq061cYAIECBAgQIAAAQIECMQJKJVxliYRIECAAAECBAgQIEAgnYBSmW7lAhMgQIAAAQIECBAgQCBOQKmMszSJAAECBAgQIECAAAEC6QSUynQrF5gAAQIECBAgQIAAAQJxAkplnKVJBAgQIECAAAECBAgQSCegVKZbucAECBAgQIAAAQIECBCIE1Aq4yxNIkCAAAECBAgQIECAQDoBpTLdygUmQIAAAQIECBAgQIBAnIBSGWdpEgECBAgQIECAAAECBNIJKJXpVi4wAQIECBAgQIAAAQIE4gSUyjhLkwgQIECAAAECBAgQIJBOQKlMt3KBCRAgQIAAAQIECBAgECegVMZZmkSAAAECBAgQIECAAIF0AkplupULTIAAAQIECBAgQIAAgTgBpTLO0iQCBAgQIECAAAECBAikE1Aq061cYAIECBAgQIAAAQIECMQJKJVxliYRIECAAAECBAgQIEAgnYBSmW7lAhMgQIAAAQIECBAgQCBOQKmMszSJAAECBAgQIECAAAEC6QSUynQrF5gAAQIECBAgQIAAAQJxAkplnKVJBAgQIECAAAECBAgQSCegVKZbucAECBAgQIAAAQIECBCIE1Aq4yxNIkCAAAECBAgQIECAQDoBpTLdygUmQIAAAQIECBAgQIBAnIBSGWdpEgECBAgQIECAAAECBNIJKJXpVi4wAQIECBAgQIAAAQIE4gSUyjhLkwgQIECAAAECBAgQIJBOQKlMt3KBCRAgQIAAAQIECBAgECegVMZZmkSAAAECBAgQIECAAIF0AkplupULTIAAAQIECBAgQIAAgTgBpTLO0iQCBAgQIECAAAECBAikE1Aq061cYAIECBAgQIAAAQIECMQJKJVxliYRIECAAAECBAgQIEAgnYBSmW7lAhMgQIAAAQIECBAgQCBOQKmMszSJAAECBAgQIECAAAEC6QSUynQrF5gAAQIECBAgQIAAAQJxAkplnKVJBAgQIECAAAECBAgQSCegVKZbucAECBAgQIAAAQIECBCIE1Aq4yxNIkCAAAECBAgQIECAQDoBpTLdygUmQIAAAQIECBAgQIBAnIBSGWdpEgECBAgQIECAAAECBNIJKJXpVi4wAQIECBAgQIAAAQIE4gSUyjhLkwgQIECAAAECBAgQIJBOQKlMt3KBCRAgQIAAAQIECBAgECegVMZZmkSAAAECBAgQIECAAIF0AkplupULTIAAAQIECBAgQIAAgTgBpTLO0iQCBAgQIECAAAECBAikE1Aq061cYAIECBAgQIAAAQIECMQJKJVxliYRIECAAAECBAgQIEAgnYBSmW7lAhMgQIAAAQIECBAgQCBOQKmMszSJAAECBAgQIECAAAEC6QSUynQrF5gAAQIECBAgQIAAAQJxAkplnKVJBAgQIECAAAECBAgQSCegVKZbucAECBAgQIAAAQIECBCIE1Aq4yxNIkCAAAECBAgQIECAQDoBpTLdygUmQIAAAQIECBAgQIBAnIBSGWdpEgECBAgQIECAAAECBNIJKJXpVi4wAQIECBAgQIAAAQIE4gSUyjhLkwgQIECAAAECBAgQIJBOQKlMt3KBCRAgQIAAAQIECBAgECegVMZZmkSAAAECBAgQIECAAIF0AkplupULTIAAAQIECBAgQIAAgTgBpTLO0iQCBAgQIECAAAECBAikE1Aq061cYAIECBAgQIAAAQIECMQJKJVxliYRIECAAAECBAgQIEAgnYBSmW7lAhMgQIAAAQIECBAgQCBOQKmMszSJAAECBAgQIECAAAEC6QSUynQrF5gAAQIECBAgQIAAAQJxAkplnKVJBAgQIECAAAECBAgQSCegVKZbucAECBAgQIAAAQIECBCIE1Aq4yxNIkCAAAECBAgQIECAQDoBpTLdygUmQIAAAQIECBAgQIBAnIBSGWdpEgECBAgQIECAAAECBNIJKJXpVi4wAQIECBAgQIAAAQIE4gSUyjhLkwgQIECAAAECBAgQIJBOQKlMt3KBCRAgQIAAAQIECBAgECegVMZZmkSAAAECBAgQIECAAIF0AkplupULTIAAAQIECBAgQIAAgTgBpTLO0iQCBAgQIECAAAECBAikE1Aq061cYAIECBAgQIAAAQIECMQJKJVxliYRIECAAAECBAgQIEAgnYBSmW7lAhMgQIAAAQIECBAgQCBOQKmMszSJAAECBAgQIECAAAEC6QSUynQrF5gAAQIECBAgQIAAAQJxAkplnKVJBAgQIECAAAECBAgQSCegVKZbucAECBAgQIAAAQIECBCIE1Aq4yxNIkCAAAECBAgQIECAQDoBpTLdygUmQIAAAQIECBAgQIBAnIBSGWdpEgECBAgQIECAAAECBNIJKJXpVi4wAQIECBAgQIAAAQIE4gSUyjhLkwgQIECAAAECBAgQIJBOQKlMt3KBCRAgQIAAAQIECBAgECegVMZZmkSAAAECBAgQIECAAIF0AkplupULTIAAAQIECBAgQIAAgTgBpTLO0iQCBAgQIECAAAECBAikE1Aq061cYAIECBAgQIAAAQIECMQJKJVxliYRIECAAAECBAgQIEAgnYBSmW7lAhMgQIAAAQIECBAgQCBOQKmMszSJAAECBAgQIECAAAEC6QSUynQrF5gAAQIECBAgQIAAAQJxAkplnKVJBAgQIECAAAECBAgQSCegVKZbucAECBAgQIAAAQIECBCIE1Aq4yxNIkCAAAECBAgQIECAQDoBpTLdygUmQIAAAQIECBAgQIBAnIBSGWdpEgECBAgQIECAAAECBNIJKJXpVi4wAQIECBAgQIAAAQIE4gSUyjhLkwgQIECAAAECBAgQIJBOQKlMt3KBCRAgQIAAAQIECBAgECegVMZZmkSAAAECBAgQIECAAIF0AkplupULTIAAAQIECBAgQIAAgTgBpTLO0iQCBAgQIECAAAECBAikE1Aq061cYAIECBAgQIAAAQIECMQJKJVxliYRIECAAAECBAgQIEAgnYBSmW7lAhMgQIAAAQIECBAgQCBOQKmMszSJAAECBAgQIECAAAEC6QSUynQrF5gAAQIECBAgQIAAAQJxAkplnKVJBAgQIECAAAECBAgQSCegVKZbucAECBAgQIAAAQIECBCIE1Aq4yxNIkCAAAECBAgQIECAQDoBpTLdygUmQIAAAQIECBAgQIBAnIBSGWdpEgECBAgQIECAAAECBNIJKJXpVi4wAQIECBAgQIAAAQIE4gSUyjhLkwgQIECAAAECBAgQIJBOQKlMt3KBCRAgQIAAAQIECBAgECegVMZZmkSAAAECBAgQIECAAIF0AkplupULTIAAAQIECBAgQIAAgTgBpTLO0iQCBAgQIECAAAECBAikE1Aq061cYAIECBAgQIAAAQIECMQJKJVxliYRIECAAAECBAgQIEAgnYBSmW7lAhMgQIAAAQIECBAgQCBOQKmMszSJAAECBAgQIECAAAEC6QSUynQrF5gAAQIECBAgQIAAAQJxAkplnKVJBAgQIECAAAECBAgQSCegVKZbucAECBAgQIAAAQIECBCIE1Aq4yxNIkCAAAECBAgQIECAQDoBpTLdygUmQIAAAQIECBAgQIBAnIBSGWdpEgECBAgQIECAAAECBNIJKJXpVi4wAQIECBAgQIAAAQIE4gSUyjhLkwgQIECAAAECBAgQIJBOQKlMt3KBCRAgQIAAAQIECBAgECegVMZZmkSAAAECBAgQIECAAIF0AkplupULTIAAAQIECBAgQIAAgTgBpTLO0iQCBAgQIECAAAECBAikE1Aq061cYAIECBAgQIAAAQIECMQJKJVxliYRIECAAAECBAgQIEAgnYBSmW7lAhMgQIAAAQIECBAgQCBOQKmMszSJAAECBAgQIECAAAEC6QSUynQrF5gAAQIECBAgQIAAAQJxAkplnKVJBAgQIECAAAECBAgQSCegVKZbucAECBAgQIAAAQIECBCIE1Aq4yxNIkCAAAECBAgQIECAQDoBpTLdygUmQIAAAQIECBAgQIBAnIBSGWdpEgECBAgQIECAAAECBNIJKJXpVi4wAQIECBAgQIAAAQIE4gSUyjhLkwgQIECAAAECBAgQIJBOQKlMt3KBCRAgQIAAAQIECBAgECegVMZZmkSAAAECBAgQIECAAIF0AkplupULTIAAAQIECBAgQIAAgTgBpTLO0iQCBAgQIECAAAECBAikE1Aq061cYAIECBAgQIAAAQIECMQJKJVxliYRIECAAAECBAgQIEAgnYBSmW7lAhMgQIAAAQIECBAgQCBOQKmMszSJAAECBAgQIECAAAEC6QSUynQrF5gAAQIECBAgQIAAAQJxAkplnKVJBAgQIECAAAECBAgQSCegVKZbucAECBAgQIAAAQIECBCIE1Aq4yxNIkCAAAECBAgQIECAQDoBpTLdygUmQIAAAQIECBAgQIBAnIBSGWdpEgECBAgQIECAAAECBNIJKJXpVi4wAQIECBAgQIAAAQIE4gSUyjhLkwgQIECAAAECBAgQIJBOQKlMt3KBCRAgQIAAAQIECBAgECegVMZZmkSAAAECBAgQIECAAIF0AkplupULTIAAAQIECBAgQIAAgTgBpTLO0iQCBAgQIECAAAECBAikE1Aq061cYAIECBAgQIAAAQIECMQJKJVxliYRIECAAAECBAgQIEAgnYBSmW7lAhMgQIAAAQIECBAgQCBOQKmMszSJAAECBAgQIECAAAEC6QSUynQrF5gAAQIECBAgQIAAAQJxAkplnKVJBAgQIECAAAECBAgQSCegVKZbucAECBAgQIAAAQIECBCIE1Aq4yxNIkCAAAECBAgQIECAQDoBpTLdygUmQIAAAQIECBAgQIBAnIBSGWdpEgECBAgQIECAAAECBNIJKJXpVi4wAQIECBAgQIAAAQIE4gSUyjhLkwgQIECAAAECBAgQIJBOQKlMt3KBCRAgQIAAAQIECBAgECegVMZZmkSAAAECBAgQIECAAIF0AkplupULTIAAAQIECBAgQIAAgTgBpTLO0iQCBAgQIECAAAECBAikE1Aq061cYAIECBAgQIAAAQIECMQJKJVxliYRIECAAAECBAgQIEAgnYBSmW7lAhMgQIAAAQIECBAgQCBOQKmMszSJAAECBAgQIECAAAEC6QSUynQrF5gAAQIECBAgQIAAAQJxAkplnKVJBAgQIECAAAECBAgQSCegVKZbucAECBAgQIAAAQIECBCIE1Aq4yxNIkCAAAECBAgQIECAQDoBpTLdygUmQIAAAQIECBAgQIBAnIBSGWdpEgECBAgQIECAAAECBNIJKJXpVi4wAQIECBAgQIAAAQIE4gSUyjhLkwgQIECAAAECBAgQIJBOQKlMt3KBCRAgQIAAAQIECBAgECegVMZZmkSAAAECBAgQIECAAIF0AkplupULTIAAAQIECBAgQIAAgTgBpTLO0iQCBAgQIECAAAECBAikE1Aq061cYAIECBAgQIAAAQIECMQJKJVxliYRIECAAAECBAgQIEAgnYBSmW7lAhMgQIAAAQIECBAgQCBOQKmMszSJAAECBAgQIECAAAEC6QSUynQrF5gAAQIECBAgQIAAAQJxAkplnKVJBAgQIECAAAECBAgQSCegVKZbucAECBAgQIAAAQIECBCIE1Aq4yxNIkCAAAECBAgQIECAQDoBpTLdygUmQIAAAQIECBAgQIBAnIBSGWdpEgECBAgQIECAAAECBNIJKJXpVi4wAQIECBAgQIAAAQIE4gSUyjhLkwgQIECAAAECBAgQIJBOQKlMt3KBCRAgQIAAAQIECBAgECegVMZZmkSAAAECBAgQIECAAIF0AkplupULTIAAAQIECBAgQIAAgTgBpTLO0iQCBAgQIECAAAECBAikE1Aq061cYAIECBAgQIAAAQIECMQJKJVxliYRIECAAAECBAgQIEAgnYBSmW7lAhMgQIAAAQIECBAgQCBOQKmMszSJAAECBAgQIECAAAEC6QSUynQrF5gAAQIECBAgQIAAAQJxAkplnKVJBAgQIECAAAECBAgQSCegVKZbucAECBAgQIAAAQIECBCIE1Aq4yxNIkCAAAECBAgQIECAQDoBpTLdygUmQIAAAQIECBAgQIBAnIBSGWdpEgECBAgQIECAAAECBNIJKJXpVi4wAQIECBAgQIAAAQIE4gSUyjhLkwgQIECAAAECBAgQIJBOQKlMt3KBCRAgQIAAAQIECBAgECegVMZZmkSAAAECBAgQIECAAIF0AkplupULTIAAAQIECBAgQIAAgTgBpTLO0iQCBAgQIECAAAECBAikE1Aq061cYAIECBAgQIAAAQIECMQJKJVxliYRIECAAAECBAgQIEAgnYBSmW7lAhMgQIAAAQIECBAgQCBOQKmMszSJAAECBAgQIECAAAEC6QSUynQrF5gAAQIECBAgQIAAAQJxAkplnKVJBAgQIECAAAECBAgQSCegVKZbucAECBAgQIAAAQIECBCIE1Aq4yxNIkCAAAECBAgQIECAQDoBpTLdygUmQIAAAQIECBAgQIBAnIBSGWdpEgECBAgQIECAAAECBNIJKJXpVi4wAQIECBAgQIAAAQIE4gSUyjhLkwgQIECAAAECBAgQIJBOQKlMt3KBCRAgQIAAAQIECBAgECegVMZZmkSAAAECBAgQIECAAIF0AkplupULTIAAAQIECBAgQIAAgTgBpTLO0iQCBAgQIECAAAECBAikE1Aq061cYAIECBAgQIAAAQIECMQJKJVxliYRIECAAAECBAgQIEAgnYBSmW7lAhMgQIAAAQIECBAgQCBOQKmMszSJAAECBAgQIECAAAEC6QSUynQrF5gAAQIECBAgQIAAAQJxAkplnKVJBAgQIECAAAECBAgQSCegVKZbucAECBAgQIAAAQIECBCIE1Aq4yxNIkCAAAECBAgQIECAQDoBpTLdygUmQIAAAQIECBAgQIBAnIBSGWdpEgECBAgQIECAAAECBNIJKJXpVi4wAQIECBAgQIAAAQIE4gSUyjhLkwgQIECAAAECBAgQIJBOQKlMt3KBCRAgQIAAAQIECBAgECegVMZZmkSAAAECBAgQIECAAIF0AkplupULTIAAAQIECBAgQIAAgTgBpTLO0iQCBAgQIECAAAECBAikE1Aq061cYAIECBAgQIAAAQIECMQJKJVxliYRIECAAAECBAgQIEAgnYBSmW7lAhMgQIAAAQIECBAgQCBOQKmMszSJAAECBAgQIECAAAEC6QSUynQrF5gAAQIECBAgQIAAAQJxAkplnKVJBAgQIECAAAECBAgQSCegVKZbucAECBAgQIAAAQIECBCIE1Aq4yxNIkCAAAECBAgQIECAQDoBpTLdygUmQIAAAQIECBAgQIBAnIBSGWdpEgECBAgQIECAAAECBNIJKJXpVi4wAQIECBAgQIAAAQIE4gSUyjhLkwgQIECAAAECBAgQIJBOQKlMt3KBCRAgQIAAAQIECBAgECegVMZZmkSAAAECBAgQIECAAIF0AkplupULTIAAAQIECBAgQIAAgTgBpTLO0iQCBAgQIECAAAECBAikE1Aq061cYAIECBAgQIAAAQIECMQJKJVxliYRIECAAAECBAgQIEAgnYBSmW7lAhMgQIAAAQIECBAgQCBOQKmMszSJAAECBAgQIECAAAEC6QSUynQrF5gAAQIECBAgQIAAAQJxAkplnKVJBAgQIECAAAECBAgQSCegVKZbucAECBAgQIAAAQIECBCIE1Aq4yxNIkCAAAECBAgQIECAQDoBpTLdygUmQIAAAQIECBAgQIBAnIBSGWdpEgECBAgQIECAAAECBNIJKJXpVi4wAQIECBAgQIAAAQIE4gSUyjhLkwgQIECAAAECBAgQIJBOQKlMt3KBCRAgQIAAAQIECBAgECegVMZZmkSAAAECBAgQIECAAIF0AkplupULTIAAAQIECBAgQIAAgTgBpTLO0iQCBAgQIECAAAECBAikE1Aq061cYAIECBAgQIAAAQIECMQJKJVxliYRIECAAAECBAgQIEAgnYBSmW7lAhMgQIAAAQIECBAgQCBOQKmMszSJAAECBAgQIECAAAEC6QSUynQrF5gAAQIECBAgQIAAAQJxAkplnKVJBAgQIECAAAECBAgQSCegVKZbucAECBAgQIAAAQIECBCIE1Aq4yxNIkCAAAECBAgQIECAQDoBpTLdygUmQIAAAQIECBAgQIBAnIBSGWdpEgECBAgQIECAAAECBNIJKJXpVi4wAQIECBAgQIAAAQIE4gSUyjhLkwgQIECAAAECBAgQIJBOQKlMt3KBCRAgQIAAAQIECBAgECegVMZZmkSAAAECBAgQIECAAIF0AkplupULTIAAAQIECBAgQIAAgTgBpTLO0iQCBAgQIECAAAECBAikE1Aq061cYAIECBAgQIAAAQIECMQJKJVxliYRIECAAAECBAgQIEAgnYBSmW7lAhMgQIAAAQIECBAgQCBOQKmMszSJAAECBAgQIECAAAEC6QSUynQrF5gAAQIECBAgQIAAAQJxAkplnKVJBAgQIECAAAECBAgQSCegVKZbucAECBAgQIAAAQIECBCIE1Aq4yxNIkCAAAECBAgQIECAQDoBpTLdygUmQIAAAQIECBAgQIBAnIBSGWdpEgECBAgQIECAAAECBNIJKJXpVi4wAQIECBAgQIAAAQIE4gSUyjhLkwgQIECAAAECBAgQIJBOQKlMt3KBCRAgQIAAAQIECBAgECegVMZZmkSAAAECBAgQIECAAIF0AkplupULTIAAAQIECBAgQIAAgTgBpTLO0iQCBAgQIECAAAECBAikE1Aq061cYAIECBAgQIAAAQIECMQJKJVxliYRIECAAAECBAgQIEAgnYBSmW7lAhMgQIAAAQIECBAgQCBOQKmMszSJAAECBAgQIECAAAEC6QSUynQrF5gAAQIECBAgQIAAAQJxAkplnKVJiyFwYtHaMbbqDV0vPOFNRUPRPDZysKuhoaGpaGpon9PljI0dHBsd29/Q3Lj3wI6BrYM3P3bV/i07/8ecZjqYAAECBAgQIECAwBIUUCqX4FKXQqSuE1ef3Pb8404eubfvFa2nrH55U1ND0bKs+YloLS1N4yLu6utflMjLljUVo6NjxdD9fZsP7B76xz03brujdCFDi3IxTkqAMuEchAAAIABJREFUAAECBAgQIEBgkQSUykWCd9ofC3R0dKxvfMbKS9tPWvmilq6WU1tblzU3NjYU5f/52W36h+lilMrOzuXFsubDym3pEsfGxoqRkYPF8PBoMbhr4P6G0eLbe779yJ8NbNvxkH0TIECAAAECBAgQWKoCSuVS3WyN5ere0L2q+aQVFyw/ZfVVpY+nFsuXNxetpf+p/Db5Q3U2hbKtubXoWtZenLN20xGnvb73jqJ/ZKgYGBms6JLKpbenu238fad5Nu3bN/RE4Ry6e/sLlv1g+Lu9vb37KzqROxEgQIAAAQIECBCocQGlssYXVK+X137MijO6f23jq5qbGt9SLo/lj4rO7Tb+oToyMlrsLRW16W6NpfL6m09+QXH66qfO+tTXbL2h+ObDt8x43IqetqJckn96q/AZNTg4Ugw8uu9fiu5l1zx6xR1vnfFE7kCAAAECBAgQIECgRgUqfAlco1fvsmpGoHNl5891vvwptyxf3tTS3tbSOD8X9uOH6/7+oSc+YjrVrbulo/jjZ7xmfNmr8oJGx0aLP735E9Me3VMqluUCO9tiefjQcsns7x8+sP/qH71735Ydf1Hl5TqMAAECBAgQIECAwIILKJULTr40Ttj9nA0vat3Q8/7Wo9pObWtdNuFvIOcvY/ndyfLHSCe7rWtbVfzhaa+al5PvGOwrPnH3F0ofj5383dGu0t9YNk/4G8tqL6T0p5mlgjlU9P9w7wdGruvd3Fe6VTvLcQQIECBAgAABAgTmW0CpnG/hJTS/a+Oqi7ufd/zmjp7WNU1N8/Rm5DReu/cMFgcPlhrXJLc3l8rk2lKpnO/bPz90c/FP226c9DRdXa1F6eO+P/tnAc+ucsEcHDxQ9O8Z/PZjn/6XX5jvfOYTIECAAAECBAgQmK1AwMve2Z7S/etFoP24o45ZfkLb6ztOX/vfurqWL+pl9w8cKIaGRo64hqaGxuIvzv6DBb22wdGh4l23XjHpOav9G8tKA5Q+IlsMPt5/z9A9O1/Ud/sjWyo9zv0IECBAgAABAgQIzJeAUjlfsnU6t7u7+6TlLz7ur7rWdjy3/A2ttXA7cOBgsW//kR877WnpLP74jNcsyiUOjQ4X77z18knPvXJF+/j//Tw9y554B3P30Jd7P33nhYuC4KQECBAgQIAAAQIESgLz9HKXbV0JPP3pLev/Q8tQR3tL0dIy129pjU++q2/giKHlnwa57Jm/F3+yWU687KaPFWOl/zPxNq5YLsCzrG9Xf7H37r1r91133/ZZRnB3AgQIECBAgAABAnMSWICXu3O6PgfPo8BRFz7tfR3Hdb+1vX3ZPJ5lbqP7dg8WY+U/LJxwe+85b5rb4KCjB0vvWL5rkncsyz+j0tbW8rOzLNAzbXh4pNjzoz1f2H7Vv70iKKIxBAgQIECAAAECBKYVWKCXurZQKwI9PT0bO1++8dbOlW2rxv0MRq1c4GHXceDAaOljr8OhhfKLX/zixy666KKPfuhDH9p5aPCb3/zmVddee+0HL7jgghdXw7DvQH+x+bZPHXHoQn0MdrJrLhfxvX2D/X1XP3jZ/gd3fqSaXI4hQIAAAQIECBAgUImAUlmJUp3fZ83T13SOntjzdytPXv28lmW19/HWqXgn+9jrG3/ut4pjOtbMaiPf+c53Pn7llVe+sdKDPvCBD1y7evXq51R6//L9PvODrxTf73tw3CHlb8jtLn0j7LjbIjzjBkpfcrT3nsffu+OaBy6bTSb3JUCAAAECBAgQIFCJwCK8xK3kstwnQmDNhU/d3Hps9x+VPt7a1NhYX6seHh4t9pe+6fTwW2vT8uIdz7qkYpp77rnntve///1nVnzAYXc888wz23/nd37nka6uru5Kj/+Tmz56xF2P+DbY8j0WaRUjI6PFnh0D3yx9sc8FlWZyPwIECBAgQIAAAQIzCSzSy9uZLss/n4NA84pfOP7Tq85c/9vLW2rj21uryTLZu5Sz+TvKb3zjG8/97Gc/+61qzn34Ma9+9au/8pznPKeij8X+oPRO5d+U3rE8/Las9M5wZ8ckP8eyyM+8xx/se2j7DftPKh58cHCuRo4nQIAAAQIECBDILbDIL21z40enX3PRyV9f+aQVzy9/7LKeb6MHDxZ79oz/CZFNq04qXvmUF1UU621ve9vR27dvf7SiO1dwp7e+9a1XnnrqqRX9dslk71Ye8beVh865yM++gwfHil1b+m4fuG7r8/Y+tHdHBRTuQoAAAQIECBAgQOAIgUV+WWsjEQLrLzlj94oVbd0NS2Sbe/YOFaOjB8fRvOecN5Y+NTpzwG9961vP+sxnPvO9CNfDZ/z1X//1Y6X//4x/zHnPrvuL//Xv/2/c6dtL3wI75W9+zhwpOsoR88pf6tO3o3//o5+8o3PeT+YEBAgQIECAAAECS06gBl7SLjnTBQnUfc6x5/actf6Gzs5JPlq5IFcwfyeZ+NHXjua24k/PvHjGE953333/sHnz5pfOeMcq71Aqlkf+tskksya+W9lQavvlv62c8lYjz8JyuXz8B49//+C1j5+zc+fOPVUyOYwAAQIECBAgQCCZQI28nE2mPoe4HRtX//bKF5xwedeK1vY5jKnZQw+Wis3u0m9THn578Qm/UJy3/vQZr7n094/z+ng+77zzTrj44osfnOlCPv6vny8e2l9+Y/Nntyk/AnvoLvN65TNd8fh/Xn6XePeu/ht7P3nns2d3pHsTIECAAAECBAhkFKihl7IZ+SvPvPY3Tn52y7qO67uW4DuThyv0DwwXQ0Oj42Aq+YKeyy+//A9vuummef89xg9/+MO9pd/6XDvd5u7aeW/xt/d+bdxdVvS0FzN+PLnGno3l3wndeWfvb+78px9eVfkj1T0JECBAgAABAgSyCdTYy9hs/DPn7Tn/+Cd1b1pzd2fP8gk/eDjzsfV4j2q/9bX0LmX524kq+njqXFw2bdp08lve8pZ/m2nGxI/ATvt3lYcPq8Fn5NDggbHt1227cO+tD//DTLn9cwIECBAgQIAAgXwCNfgSNt8Spkq87vdOH1h1VEeKMnnIYA6lcsEey5X8beXEUtnc3FRU/C7zgiWZ3XNt167+sUcvv72+v1p4dpHdmwABAgQIECBAoAKBGn35WsGVL+G7rP21p1296uRVLyh/wUu228RSec7aTcVLNz53Job/Unqn8oMz3Snqn1dSKt9+y18WBw6OjDvljH9Xefi9a3T15Z8h6Xto9z/2fvbul0R5mkOAAAECBAgQIFDfAjX60rW+Uau9+hUvfNJVazetfVm9/85ktfnLx00slZdu+k/F+vbV04784Ac/eN5dd911w1zOO5tjX/va137u/PPPf8V0x7zr1suLwdHh6ktl+cgafnYOlj4S2/t/Hji7f+vjt87Gzn0JECBAgAABAgSWnkANv2xdethTJVr1Kye9tuepqz7Vurw5T+gpklZTKuf7W18nXuqv/uqvfvyiiy56w3TL+u+3f7rYPbxvbqXy0NE1/Cztvbv3rp1fue+09A9cAAQIECBAgACBxAI1/HJ16W+l48QVz1j14iff3tmx9H5rstrtKZVTyNXwM3V4eKTYdUfvL+/8xoNXV7t3xxEgQIAAAQIECNSvQA2/VK1f1EqufP3vnzG2ckVbJXdNdZ8qS2VTCengQkEt+DuVdfCOZfkSd23f1//op+7sWshdLNTOnYcAAQIECBAgQGBqAaVygR8dq3/pyS/tPm313/uo6+Tw1ZTKhf6bys2bN//omGOOOW66h07I31ROdoIaf8aW37XcfuNDr9rz3W3/e4GfWk5HgAABAgQIECCwSAI1/hJ1kVTm6bTrXnPa9lVrO4+ap/FLYmw13/66ZcuWj77zne+8dKEAKvn218tu+ljpRzPH/2zmrL79dbowdfCs3fn4/r7eT96xcqF24jwECBAgQIAAAQKLJ1AHL08XDyfqzOtefdpv9RzV/reZv9W1Usul+juVLS3NRUd7S6UMM9+vDp65/f3DxWP/9/7jB+7fuXXmQO5BgAABAgQIECBQrwJ18NK0XmmLYs2aNZ1tv3n8Ix1dyzvrN8XCXnm1pfKrX/1q81VXXTU631d7yimnXPi2t73t72Y6z5/c9NFxdyl/GdOyZeU//Qy81cGzt/y7lttvffTdO7/xwDsCkxtFgAABAgQIECBQQwJ18LK0hrRmcSk9//HEL6074+hfb2pCPAu2YmDgQDE4NDLukPee86YZR9x44403X3HFFefMeMc53qGSj75+6+Fbi69vvX7cmcI++jrx+uvk4dW3c//QI1fc0TpHfocTIECAAAECBAjUoECdvCStQbmpL6nx2DecOdrd5WdCqtna2NhY0bd7cNyhz9/w7OK5x54147j5/r3K0t9t/uIJJ5zwzZku5F23XlEMjg4tTKk8dJY6eCYPDh4o+u/e0tl7Te/+mQz9cwIECBAgQIAAgfoRqIOXovWD2X3+hjcd8/PHf6SB6pyWNvEjsA1FQ/Gec94448zt27dvK300ddpvZZ1xyDR3qORdyvLhEz/62tjYUPR0L8DPx9TB46703wyKh7+75R17rtv27rnswrEECBAgQIAAAQK1I1AHL0NrB2u6K1n78lMeWL1x5cb6uNravsq9+4aKkZHxPzv59jMvKdqaZ37397777ntj6Sc/Ph6d8Morr9zf2NjYPtPca0sffb16wkdfe7pbi9KxMx0a88/r5Bm9/Ye7tj7++XuOjwltCgECBAgQIECAwGIK1MlL0MUkmv7c3d3dq1b97tMea2uP/haW2s0831dWfjerb/fAuNO0N7cWf3bmf67o1Ndcc80ffe5zn3tfRXeu4E5vf/vbr9u4ceP5Fdz1iHcpy8fM299TTnVBdfKs3rNnYPihT9w2838pqATefQgQIECAAAECBBZNoE5efi6az7QnXnXeca9ec/6GT5c/3ugWK1Dtt8AeuoqtW7f+TakMvnquV1XpR17L57l663eLax/+3rhTLl/eXLS3Bf6USKWB6uQhOTAwXOz+zH0rdu3atbvSaO5HgAABAgQIECBQWwJ18tKzttDKV7P+4mfct3J1+5Nr78qWxhWNjB4s9u4d/2U3zY1NxZ+f9YaKA5a+9Gf0sssuO/rRRx/dXvFBP7njueee+/OXXHLJd2Zz3MS/pSwfu+DvUh5+wXXy7C7/7Mgj12994Z7rtn59Nt7uS4AAAQIECBAgUBsCdfKyszawnriK3yiaNm44e6S19A6U2/wKTPZu5a9vvKA4a+3PzfrEW7ZsWVb69tbxv1UyyZRqymR5zGSFsvy7lOXfp1z0W508yx+7ftsbdly75S8X3csFECBAgAABAgQIzEqgTl5uzirTvN155Qs2Xrb29PWbfdx13ojHDS6/g7V7z/ifFynf4c/Pen3R3FhdqR8ZGRns7e39q2OPPfaBQye76667Xrhp06YXVptqst+lLM9a1HcpJ4apk2f6Y9/f/s0df//vF1S7C8cRIECAAAECBAgsvECdvNRceJiJZ1z7u5seW72+a83iX0muKyiXynK5nHh77zlvqgmIfQf6i823feqIa+nuai2amhboG18rlaiTZ3vfzv07H7nijtWVxnI/AgQIECBAgACBxRWok5eZi4rUsOEPzjzY1VkDH2NcVIbFO/lkH4NtbWop3vGs31+8iyqdeWBkqHj396444hrKZbJcKmvyVifP+NI3wx4sfTNsU00auigCBAgQIECAAIFxAnXyEnNxtta2uu3Y9b+9aVtra3UftVycq156Z53qY7DlpIv1juXeA/uL99x25aTYNfWx16keDnXwzN9X+r3SrR+7tfxfc4aX3qNaIgIECBAgQIDA0hGog5eWi4Pdefr6p2944cZ/bWhAtDgbGH/WAwdGi337J+8W7zrrdUVL47IFu8xbt99dfOmBb9RvoTx05XXw0O7vHy62fOSW8nJn/JKlBXsAOBEBAgQIECBAgMA4gTp4WbnwG1vzspPfc9RJq/5k4c/sjNMJDA2NFP0DBya9ywXHnl08b8O58w74sbs+VzzcP/kvlPR0txV19yVOdfBvgIHSzh/84s0dxcNF/7wv2AkIECBAgAABAgRmLVAHLylnnWlOB6x66VNuWnfymrPnNMTB8yYwXbFsbGgs3nHmJUVLU/y7ljf0/kvxlQe/NWWuFT1tRd2+q10H/xb4yTuWdXCl8/bQN5gAAQIECBAgULMCXqQdtpqjX/fMAyt6/AFlzT5af3Jh0/2NZfkuy0o/N/Laky8sTug6es5R7nj8B8UX7v/6lHPKT6CenvZSoZzzqRZ/QI1nGBgYLr1jeYt3LBf/keIKCBAgQIAAAQLjBGr8ZeTCbeu41z1zsLOn1Ve8Lhz5nM40NjZW9O0+8jcsJw49vnN98ZpSwVw+i3cv79zx78XXfvSdYvfwvmmvsamp4bBveV0iT6Uaj/HER2E/fHP5m7NG5/QAcjABAgQIECBAgECYQI2/hAzLOd2g5SdcetZge1v8RyYX5OqTn6T85T3lL/GZ7e3Z607/6SE39N4528OLzs6WYlnzxF+8WCJPpxqP8ZOPwvpW2Fk/ah1AgAABAgQIEJgfgRp/+Tg/oQ9N7Tn/+CetOmv9/a3L/WTI/ErP7/RK37WMuIqWlqaio71lmlFL6ClVw1GeeMfyyze3FQ8WM79dHbF4MwgQIECAAAECBKYUqOGXjfO/tae+9dyx8g/Vuy0dgb7dA0Xpk7Hht+bmxqKrczafjl4iT60ajrFnz2Dx0Ce+V8NXGP4wNJAAAQIECBAgUJMCKV+Qdf/ihpPWn7XhXoWyJh+Tc76oXX0Dc55x+IDyl/CUv911drcl9NSq4Sh7+/qHtv3P21tntxv3JkCAAAECBAgQiBSo4ZeLkTF/Nmvd89d1dJ+2cV/5nSe3pScwOHigGBgcCQ+2csVsS+WhS1hCT7EajbJ398Bj2/7ytnXhSzeQAAECBAgQIECgIoEafZlY0bXP+k5tz95w7HHnH7et/K2dbtUJlL8Up/zlOG71JxDyW5o1+tR55PZHbu27+oGz6m8rrpgAAQIECBAgUP8CNfoSMR521XOOOW7NuSf8qLExTeRwxPn6e8XwCzVwSoHurtYi5GPfNfg02n73Y+97/Cv3/pH1EyBAgAABAgQILKxADb40nAeAXz5p+Smnr/UtkXOg3V36UpSDB+fhG3DmcE0OrU5gRU97Uf470TnfImbM+SLGD+j95paLd9647VPBY40jQIAAAQIECBCYRqAGXxbG7qv8pTzrnrXhXn9DWb2rQlm9Xa0eGfaOZTlgDf1bpPwfPh66bssv7bv+oX+uVXvXRYAAAQIECBBYagI19HIwnra7u/vcdZecekOznw2pGnfP3sFidPTIdyjLJb2zY7rfa6z6lAkOXLinXfnnVXbvmfzbcEP+xvLQthYu0oyPj/Lf/fZecfdRe/fu3THjnd2BAAECBAgQIEBgzgI19FJwzlnGDVjxiyeeuPaso3/oS3mqd53qHcply5oUyupZf3Lkwj71dvX1T3rF3d2lv7FsDPwm5IWNNeUW+vuHiy0fuaVGrmbODxYDCBAgQIAAAQI1LbBUX3S1bvzDswdaW5trGr+WL27P3qHSO5QHj7hEhTJ6awv3FMxWLHft2N//6F/d0RG9MfMIECBAgAABAgTGCyzcK9oFlD/h0rPG2tuWLeAZl9appnqHsvyR167O5ePCjpU/X+k2R4H5eRo2TPJtPFMVy9CPwh7SmJ9Ys7J+/IGdn9/+hX/7rVkd5M4ECBAgQIAAAQKzEqiBl32zut4Z73zc684Y7OxpG998ZjzKHQ4JTPU3lC2lj7x2TPgbyuHh0WJ/6WOGbrUrsHJF+xEXN+U7llE/N3L4GRf53zDl/+jR++X7T9v1/d67andLrowAAQIECBAgUN8Ci/ySLxbv2NefMdjdrVBWq7qn9LMho5P8bMhk71COjBws9u4bqvZUjltAgdkUy7CfG5mYbxH/TTMyMlrc+/4bF/EKFnDZTkWAAAECBAgQWASBJfNCa9VLTrpl3alrn7UIhkvilLP5Uh7vUNbfymdTLEN/bqRG3rXct7N/z9Yrbu+pv825YgIECBAgQIBA7QssiVJ51IVPe/+ap63+r7XPXZtXOPWX8pR/NmT8J4mHSz/XsH9/9R95/dKbP1mc99Qzn4AofzTxmNf/+P/tNv8CsymWPd1tRWPjPP3rYZ7GziTYe+cj1+z86gMvmOl+/jkBAgQIECBAgMDsBBbp5d3sLnK6e/c88+hLjnn+xsvjJuaaNPU7lEcWyvLv/+2bplCWvxjmPWe/8aeAXV1dRfl/t3fXA8WBA/3Fx+/63I//2SSPuks3vbLoWfP0J/5xX19fqdD8+Gcuvvaj7xTffuS2I5bSU/opjHkrPTXzEKju6dk/MFwMDY1MmqJmiuUUj4P5pu+9dtvLdl6/5UvzfR7zCRAgQIAAAQKZBKp71VojQl0/f9xLjj1/wz9M9i2XNXKJNX0ZU30pz2Q/G1LJR15f9ZRfKU5d+aQnimT59spXvrJoaWkptn3vT4uH7/z/7J0HeBRV18cP6b2HEFoooTdJQhUEFKRYEFGBANIRkCYC0nvvKlUIWBABQVCkCYgFeCmhJtTQe0nvyaa8906czczszO7M9g3nvo/fR3bO3PK7d/aZ/557z5mrk0Xj/kWRZDds2AAODsXpYCae+op3r7OzA7w80X31e0RzcvOA5moUK0qEpcm2wrId0294OteSlAH9YSR+wzVf8sNFst6V4I1IAAkgASSABJAAEkACPAJmfqUzHn0vLy+/oMG1E2gQGSzKCShJGyI3KA/XS0mFJSsqs1Ouw6WdNbV20tW3DtTrEisqKhddX698gCXqDv0eU+qtpF5LQ4WlmAg1Ol79hqhXN1JSsuDx6nNmbFGvbuJNSAAJIAEkgASQABKwGQI2+2JVYUREoYcgxYXNULdwR6UEpaFpQ7iikg6Rikpn56Izmac3al9qXFEZFRUF9vb2akooKlkUyh/XnBwVEZYqg4WlyT2W+g9Rr6cp/nrC1y9+uTZSr5vxJiSABJAAEkACSAAJIAEeAeVvqVYAsHSfuk/9g72CrKArNtcFqS2vYmlDdJ2hFA4eRaU5loPyR9ZYW2FNGryHi075EBWDp0Giri04YYaWFHcNb0ACSAAJIAEkgASQgM0RsLmXKu83K48rGxa8yOZIW0GHFaUN0RLl1dfHlfF+CYPBSInKgrxMiP7eXSsB9FQqWSDKH9ts4rHMMoLH0mzCkuJQPkwlEJkzp/e+PGPiVhR1CY2RABJAAkgACSABJGCTBGzrhWpwuGNNX+fc/+LA2CRwS3VaOm2IPUkb4sTrlragPFRQsiUpOYt335j6vSHAxUf9Gbv99fm1dXD3xBCdQ2cD9WzcuFEd/ZXeNCX6a969Tk4O4EKC9WBR9vgay2Nptq2w7AQrG6aiZfH00pM1SXtvD1N0ExojASSABJAAEkACSAAJ8AiY8HXN6KTtq41tmoeBeZRzVRKUR6UqIGlDckQb4QpKaiAUlS72TjAt/BP1vW3atAEXFxf4dcN7EP/kMmSqsoHGdyU7D5lC/z/zT/J/3Bxc4JOZcZCfnw979uxh7qPlTtoj+OYKPwOEi4sDuLo4KgdRIu9Q9ggby2Pp4+2qjvJrNqzKhiq7W1fnH6eLSTwHi+xa0BAJIAEkgASQABJAAi8vARO9phkfaLnBr6R6+bl5Gr/mkl2jsdKGCAUlpZZMomiyApFLsUHZqjyoWfnZcOPZI+azn0evgxY1GqmvBw8NY/5tb18K6gZV4d0Xl3RfNMiMWF9K9izqGp2yx9hYUWHN7rFkMSgbri54kJacmfNwzfmiXzGwIAEkgASQABJAAkgACSgmYOTXM8Xty7rBr2OVw0ENyrwhyxiN1ASUBeWR76FkGygoKATqBRUWMdEn9GoK76GikooUbikSP/zIpXZ2pcDbC9//NZe5skfZWFthLeKxNIG4fBH7bHr8npuz8OsDCSABJIAEkAASQAJIQDkBZW+iyus3+A73FuUaVGwRcsHgil6yChQF5cnNhwwStESs6PIKJqeQLa0Cd6UpRaWu/rxk0ywyXPmPtLG2wlrMY0lHL3+4WpcGzcUat/h/RqoNVyESQAJIAAkgASSABF4uAlb9EuXt7e0bOLBmoqNjcc7Cl2t69ButdFAeOxKUpyhvJFtydUR51dUDMfFqKlHp4+1i/nN8ugBY5XX5j7WxPJZmjQorxVz+sEVrSEzIUD375gI/apVVzi92CgkgASSABJAAEkAC1kXAwNcw0w6m7LCwQtzqqIyxpIfSgQhKD76g1JaHUq5H0Jyikkb9pdstTVHo9lyxXJ2maMt8dcp7vI3lsfQmc2Nn6dDM8oYsOQUPD955N+3c4z3mmyNsCQkgASSABJAAEkACtk/AwFcw0wEI6FrzaGA1v9ama6Hk1WzKoDxStMTOSprKU0n7YIrIr/n5BUC9u7TIFdO2s3rkPeLG8lhadCuscFLkDZ13F83leXfFaT3utJ0VgT1FAkgACSABJIAEkICxCVjlyxPZ9lo5eEid25Z2ehgbtinrU5I2hJ4fS0uXlzZEW59pHbQuYdEmKld8PAO6NXuXuaWgsADKDYtg/i03UI+phB8rjkueqGRnR/ejbqyosL4+bqZc6srr1j10Xp2P999aknLh6TjlDeEdSAAJIAEkgASQABJ4OQkofN0yD6RKoxsXupJchFjkETBXUB5hb4ReSrr1cU6j4Wozd3d35gxk0ovb8Cj1Mfx8+w/JAY2o2x0Cy9ZhrqempoKdnR3z743XfoW4lHu8+7w8nYkILbqORQkB3Y+7sbbCWpXHkiLSPXQ1yIKCAri+EIP2KFlZaIsEkAASQAJIAAm83AQUvGqZB5RPm4q7g5uU72ye1my/FamgPGLnA41xhpJLTCgq36rYEl4t84rapGfPnuDk5AR3jg2CFzc26ITduH8hY7N+/XpwdKQ84v+VAAAgAElEQVT56IvKxFNf8e51dnYAN9fi6zorRgMOAd2PvLG2wlpF8B6xudeNABIepVx6/n1sA1w6SAAJIAEkgASQABJAAroJyHi90l2JsSw8y3n6l+9dL95Y9ZX0eqTPUGpGeTW2oKRshaJyXuMRPOSsqEx7+i9c3fea1ulw9a0D9brEMjYbNmwgQXOKPdWLrq8v6VNpgfFpf/SN5bG0VWFJ0+Tc33WjXOb1+McWmBxsEgkgASSABJAAEkACNkXAqkRlpRHh2a7uzvwQpTaF03ydlU4bYk/ShvCzIuQakIdSakRi+SmFojIyMhKc/5vO0xu1LzUUleZbO8UtaZ8TY3ksrW4rrBC1BIa0tGx4uPKsVX1HWmKVYJtIAAkgASSABJAAEtBFwGpemPxer7wtqHHwR7o6jNcBLBGUh8tdTFDS68YUlfb29uqclOipNPWql/4aMJbH0uqC94ghFcHwcMOllmkv0o6ZegawfiSABJAAEkACSAAJ2DIBqxCVbgFuwSEDX8FtZjJWkiXShnC7JSVo6TnH6Q2G8kagr6cyKipKHaiHBvpBUSljYRhsIv1VkJOjgkySakOsiInFpORMUVur91iyveagyMzMhXtfnrGK70mDpxgrQAJIAAkgASSABJCAiQhYxctSlc8a5xNRguE8dUyylKAUD8pTAOkZhqcNkSsoaeCccdUHiorKpPt7IO5wURoRbYUN1MMVldR+SvRK3m3OTvYkXyUG6tHFU7/r4l8JxtoK6+PtqvZA69c/M971H4qk5+kjnkZd5C9CM3YDm0ICSAAJIAEkgASQgLUTsLioDPyw5o6Aqn5drR2UpfuXmpoN+QVF0VG5xdFR5AylKh8yMnJFu6xvHsYM4rGhZzOFxdnZnkRiLTrD6WrvDMOr9labdOjQgTlTeXZPV0hPuAyJOam827mLz8/FG1p+fAVogJTdu3eTlCH2jG1KbjosvLCJd58LSTfjiqLShEtS/GvBWFthvb1c1J5oEw7CaFVnZqG30mgwsSIkgASQABJAAkigRBKwrKhsXcmlRuPgLDs7y3bD2mdWOiiPZpTXXBMISspHGOmVfiaW2sOxlAOEuJeDLLJdsuA/EZyTr4JbqQ8YzGv6z4P3GnVg/p1XkA8VPm3E/DvQxRcCXX15U/EiKwleZCdpTE+Rt8vaZ60k9E8TsrE8lrYmLB/uvtE37dqL70rCrOIYkAASQAJIAAkgASRgbAIWfTUPHhpW6OPtYuwxlaj6lATlUamMv+WVEX95BZCWzt9K60Q8pO6CKLMseGpL7zFFoWKSikos5iKg+RVhLI+lLW2Fzc7JgzvLT1n0+9JcM47tIAEkgASQABJAAkhAKQGLvSR5NAzuWqF95R1KO/wy2Vs6KA/LWkzYSm2jldoma6x5oz9C0OA9WMxNgM88h4gsui1UrJTI4D1koA//uP1+2rknu8xNHttDAkgACSABJIAEkIC1E7DY23mVMY0LnZ2KE9xbOyhz909JUB4xTyLbX33PUHLHK7b1VaxeU3ooaX+MMRZzz2PJa6/4K8NYwtIm0o2QiczMyim492V00WFfLEgACSABJIAEkAASQAJqAhYRlX7tKi8NCg8eg/MgTkBqy6toUB4SPId6B8WKsUSYXFEpZmfoHFOvpCsJzEPPb2KxFgLFXxvG2gprK+lGnhy/1zr534d/W8tMYD+QABJAAkgACSABJGANBCwiKmt+0bwQdzCKT79UUB7xtCH5JG2IaQUl7aUlRaWxhLE1PGwlrw9FXx/GC97jSqLCWuQrSfbU0B0Ej1adte5Oyh4NGiIBJIAEkAASQAJIwDgEzP5yVGZAgzu+ge6VjNP9klWL5BlKksLTw8OZN1gVifJqDkFpaVFZFCXU7Mu0ZC0sk4+mFGRnqyCL/CdWlJyx9PF2s/rIvve3X2uXcTvhsMmxYgNIAAkgASSABJAAErARAmZ9W3et6lch5IOa99FLqbk6klOymRyNwmKpLa/cfhjqqcx9mP5v3pXEz23kmbB4NwvsSrlX+KD6UYt3RGEHcshW7EzJrdhuGrUlJWdqfEZ/QPD2su7ovqkpWRmP1pzzUIgHzZEAEkACSAAJIAEkUGIJmFVUVhgeUejh4VRiYeo7MJrTkaYsEBaxLa+mDsoj7APNNUnPeAqL2LZUqTOVqrtpexIO3HxXXz4v230BNQI8A7tUT7XFcdN1TNezWJHrsbT2wD30x5/7URfKZsZnPrHFOcI+IwEkgASQABJAAkjA2ATMJirdKgaEh0RWjzb2AEpCfWJizBo8lJStlFCsVaYi1PSsDH5OPnA7/QHEpN6A+KR00elAUalsldqyqKQjVSIsc3PzNAJNWbuopGNMuJd86flPlxsom1m0RgJIAAkgASSABJBAySRgNlFZcWREobsbeinFlpFQuIkH5SkgZyhzRFeh3GA2qrwCoGcx3VwdZa1mekYuO1vTgzo9fAg422vWcTv1IWy4ppnGD0WlLNxqI1sXlXQgRelGdHssVXnkbHA6f13bgqjMJc/RraUnzfb9qWwFoTUSQAJIAAkgASSABMxLwCwvRUEDGkT5Bbr3N+/QbKM1MeEmFInGCsrDile5IlTMSzmv8Qg12LS0tDhPT89nWVlZDV1dXd3phUsJcbD11gEefBSVytZiSRCVdMT0Bwmx4D1c0WiropKO79GO671Sb8b/qGx20RoJIAEkgASQABJAAiWPgFlEZejnTQrpdk4smgR0iUpjnqE0VFS+FhwOHSo0ZwYxadKk0k+fPn3Bjmj48OEDwsLCNtC/p5xZBQWFBerBoqhUtvJLiqiko6beSuq15JaSIiqJh7XwwcpoO2Wzi9ZIAAkgASSABJAAEih5BEwuKn2blv+mTOuKg0oeOuOMSJeolPJSyvU26tvLotyD/O2LM8i2Vyey7TUvL6/X4MGDNTw0GzduZMLX/vPkLBx4cAJFpZ7wpUSlVA5T2gzdMu3h7mx16TjEAj2VFFFJuT/ccKlGWnzaDT2nGm9DAkgACSABJIAEkECJIGByUVltbNNC+sKLRZyAPqLS1IKS9lQs2Aq79XXZsmUNYmNjLwlH1LZt2+WRkZGj6eeTTn+NolLPRS8UlVLRgcWqd3KyB2s6uywuKtmUIaXAlre/Uv6Jd5MuP9t6pa6eU423IQEkgASQABJAAkigRBAwqagkZyl/I2cp3ykRpEw0CGsVlWKeSlZU7tu3r+2OHTuOCJGsW7cux9HR0elB+jNYc2U7iko91wwVlZ6dqqS6ODtAckoWyV+qrCKaB9bH2zpyPWoXlfCfqMzlDdAWAvWwHabb0+OW/M+k36PKZh+tkQASQAJIAAkgASRgfgImfRlCL6XuCbVWUSkmBj6r1wsCXX2ZQfXv35+3dvz8/LyWLFmSQq9Nj14DqoLic3R4plL3OuBaUFHp0KaCQXkqSxFl6ePtoqxhE1iXdFFJkT05dn9q8rEHc0yAD6tEAkgACSABJIAEkIBNEDCZqPRvX3V46YZBxXsgbQKH+TtpraKSktAR/TWfiMhGV65cOd+nT5/xrVq1WsjS4259pZ+hqFS2rnSJyvcrvwFVvMoxld5MfQC77xwVbcDVxRFcXBzU16j3WaUqDqAkvMmZeEYdjbxV/WUQlSmpWfB49TmTfZcqWz1ojQSQABJAAkgACSAB8xMw2YsQRnyVN5m2Jir9XXzg8/q9RQdXCIUw+fRKjWsoKuWtBdZKSlRW8AiCYXW6iVa2994/cOzpBY1r3l4uTGoPKijlFjc3R3B2Khajcu8Ts9NPVBafuTSkbXPee3XBcWfSHn8frzk7gG0hASSABJAAEkACSMCCBEwiKj3DgyeWb1d5ngXHZTNNW7OoLCSH+ZJTsjVYujm4QGRoR+ItK6++9s+TcyTi63FR7igqlS1HMVHp4+QJXzTsp64oIyNjlp2dXT7JDzqT/XBV7FZ4mPFcWWMS1tTDST2dhhbDRCXbukm+pgwdGu/+pBfpx55GXWxp1EqxMiSABJAAEkACSAAJ2AgBk7ytVR3TpJBGocSim4A1i0ra+/SMXLJlMl/3QLRYoKhUhk9MVM5vMpKtpLBfv368cMqbNm1Sh/KZeOorZY1psTZGlGHjiEraSZN8VRmNVXaOCu4sP23dnTTaaLEiJIAEkAASQAJIAAnwCRj9JcjvzardgsKCtiJoeQSsXVTSUaSkZgMVB/oWFJXKyGkTlURQij6zrLA0pqg0RrAf44lKLkOjf20pmyAJ67ubr5XPepjwyCiVYSVIAAkgASSABJAAErAhAkZ/O6s4MqLQmvLkWftc2IKopAzFgvbIZYuiUi6pIjtDROWWuP0Qkxgn2qCvsxeMf6Wv6DV6HnbeuShIV2XyrhvqrTSNqGS7aPSvL2UTJbB+Fv1kU+Lh2/0NqgRvRgJIAAkgASSABJCADRIw6luZb+uqdcs0DYqxQQ4W67KpRaXYS73UYGlQFzs7zSWRmpYD+fnSUUN1wUNRqYsQ/7oholKbp5KzhVa0QzdT7kPUtd02JCqtS1xmZObC/a/OGPU7VdnKQWskgASQABJAAkgACViGgFFfgIKHhhVaQ248y6DUr1VTikp9zkPa29MlUbwsqCilAXsMKSgqldHTJiofPnx4durUqRHcGrt167aqQ4cOw+hnUqLSy9MZJtb+RGtHbFdUWo+4JFFgjfqdqmzloDUSQAJIAAkgASSABCxDwJgvQKVqTWiuvzvLMuO3eKumEpW5uflAPSemKh0qNIfXgsPV1a+I+RGeZyWKNoeiUtksiInKIFd/GF2/p7qi7777zrdHjx4ZqampjwICAgLphc1xv8PlxNsajbEe6PE1BhFPNC/GD8/2RtJdG/VUCodszK81ZXP38Ni9X9KOPeyq7C60RgJIAAkgASSABJCAbRMw2ttXUL/6R/yCPF63bRzm772pRKUhZyC1UaDpRKaEDRIXjwV5MD16jcY1FJXK1pVUnsrXgsOgY8UWopVdSoiDn27u1xSUnmRLM+N9BqCism/fvpKdmfLlrBIiKtkhGu3rTfYEpqVn5z1cedbwXCyyW0RDJIAEkAASQAJIAAlYnoDR3rpCxzYtdHSQ9oJYfqjW2QNTiEqxOunoP6//Mbg60BztxSUnPxdWXt4GWXma+SjFiM1rPEL98aFDh/q3bdv2xPnz55eEhYW9TS9k5+fArLPf8G5FUals7UmJSloLFfXD63YHGnSHLZS32PzRLa/29sXP5MsnKrncjfZVp3Uy6VbxawtPmKcxZcsKrZEAEkACSAAJIAEkYDICRnn58WldqXVw07JHTdbLElyxKUSlWAoQrhgUwznp9Nc6KY+s2wPKuAUwdv379+etnaCgoMrz589n9l5Oi14NeQXFuS1RVOpEyzPQJirl1uRFPJRF52OLi3OBC1S74y9Zxb/+NzWuWXf0V7k0zCsuE1+kzX0WdWmKPr3De5AAEkACSAAJIAEkYIsEjCIqyw8PL/T04HvAbBGGJfpsLaJy8Y0NOoc/rvpAxubKlSvvLlmyZI/who0bNzIRfS4n3YIf4/apL6Oo1InWqKJS6KGkldPztfScbcuEUNmikkYCpucxDSmmTSliSM/ovUb5+tPoRGpaNjxaddY0lRs6ZLwfCSABJIAEkAASQAImIGCUFx8SoMew8KAmGBitkhu0tJRRRmr8jtqiqFy2bFmD2NjYS0IaZCvs8sjIyNH0c67nE0WlsnVjiKfSm3OGkm01M0sFp2bug1cmvKlVVFbp0hDK+gbB/F9XMrca6qWkdVi3qGQJGffLQZWXDzeXnDRupcqWEFojASSABJAAEkACSMCsBAx+8Qka/MoNPz+3ambttZbGsnPyIIu8REsV6n1xd3MCBys5/2kuUbmz90po3ry5KJYdO3bAtLPLdU7hmGr9wb6UHTx48OD96dOn7xLewHoqL8Rfh+23/1BfRlGpEy3PQF9RKbblNTNTBTm5eXBhwR86RWWrgZ0gv6CAEZWuLg7g4mJ4vBnbEJXGF5cvrsR7xf92PU3ZzKM1EkACSAAJIAEkgARsk4DBorL6uKaF3GAglsKgS0yK9csYnhhDx2suUfnLx6ugWbNmot3dvHkzzLusGbVVaNwpqBXU8S76/UB4ptLf37/W4sWLr9BrU8+shvxCPFOp79rQR1SKCUp2yyvthxJRuej3VUDrM0axLVHJHbFhX42Pf41blHL1+RfGYIh1IAEkgASQABJAAkjA2gkY9Obk+061HmXqBG6xhkEW5BdCCjnLpKS8TKJyQpAffPh+O/AMagEOzr4MprycJEi6/xts//0arM96LgvdhFqD1XanT59e07hx4z8fPXq0pFy5ciH0QmJOCiy5+D2vLvRUykKrNtImKit7loPBtflpEH+4+ys8yeHPH93ymkO89mxRIiqpp9JYz4btikqWnH5fkSmpWfB49Tn9bla2XNAaCSABJIAEkAASQAIWJ2DQS0+FERGFHu5OFh8E24H8/AJITcuR1R9jvTTLakyLkSk8lenpOaDKK+C1uuiVGlDdcatoT85m9ILZVy7LGoqTnSPMiBgiapuVlwOzz/HTiVBDFJWy0OoUlUPrfAgVPYJFK0vITYaoOz8z17geSn1FJb3PGM+I7YtKLm5lX5dXFxxXdoOyZYLWSAAJIAEkgASQABKwGgKGvPSUqjG+WQE9o2hNJZ94LGn0RT9nbxjb4GN11/737CL8/eQspOZmGOVl2VhjNoWoFHuRfyMgAUZUvi/a7bnXKsOZNB9FQ2oe1ABalQ0nZyztITMvC1Zf/pnJUSlWUFQqQgtinspQ74owoOZ7TEXEM3xyypQpzF7mBQsWRJN0LuH03zEp12HnnSM8D6WwZSXRX41xrrJkiUplAvN+1OWGGS+SLyibfbRGAkgACSABJIAEkIDtEdBbEXqEB2+u0K5yT0sNmaZHoBFdHR3teV2o7RkKbwW3luxWQWEBrLr9o4YAorkdDU2foA8LU4hK2o+k5Cx1d3aMXgdrNn+gVVROG7Ib3lncV58h6LwHRaVORDwDMVE5v8lIxubWrVtfz5kzp+iP/8qQIUP6NmnSZBP9c+Kpr7Q2pkRU0ooM9VaWXFHJxSz+NZr4PH3vs40X31Y2+2iNBJAAEkACSAAJIAHbI6C3qLR0bkpWNNH8mGwk1+Z+DeHVAMZpo7Msi9tIgskUbRHlCjBDX6J1NiwwMJWoLCT5VJJTis6YPllzDnpNDdEqKn9bdBuCh4Yp7b4sexSVsjCpjbSJyn79+ok+s5s2bWLS+mgTlZ/W6QbVAitJdmZjzC64lHCDd93Q5+HlEJUsMv7UpGfkwIOvo/X+jlW2atAaCSABJIAEkAASQAKWI6D3C48lc1NSLyU9N8YWeq6zrEcg9KnYhfmo1H9JKcn/X79kyZI99LM+ffp8HhAQ0IqLevGNDUA9lPTFly2GvkQrnUpTiUraD1Yso6hUOiuWtTdEVG6J2w8xiXGiA6Dezr59+0oObsqXsyDq2m4UlUaZ/lLkXDPmqzQKSqwECSABJIAEkAASsHoCeonKoH71V/gFeYyy1OioB4564rhlbqPh6j9zcnKyhg0b5ibs34cfflimY8eOT9jP41Luwabrv/HM3IlAdRJsqRUbZ4+m78OQ14te0Led2gWrjzC7DxUXU4lKLiNGVE4jnspK0mcq0VOpeOpMdoMeotKBeCqZ5KzaPJUoKk02ZZIV39l2pVL2neR75m8ZW0QCSAAJIAEkgASQgPkI6CUqK41uVOhqhMTo+g6Tu12V1lHdOwT6VH9HXd2AAQMkx9WoUaPXhg4d+jdrPOn017xu0JybXp7Okl3zcfOGE1P3MdcvPbjCiNsGFetAtioHwqa9rnhIphKVQkZvBJJAPVpEpdJAPUoGittfldAC0UA97JlKWpNwCyy79VWOqNTWk5sp99FTqWyqdFon3E784Pn2azt1GqIBEkACSAAJIAEkgARsmIA+otK55hfNs//bYWqRoQsFU/eqHaCeXyjTl2PHjv1GXrI7a+vYxo0b1W7OhRc2QUpuOs9cagusm5MrRM88DFce3YAPVvbj3XNl/nH4/cIfMH7bTEVMTCEqxVJKDK3qAe39/hXt266nb8B3DxJ19nte4xE6bVgDrlhHUSkbG2Mo5ql0c3CBqeHFOUKfPHlykdoGBwc3YGtffOFbkic0VbIxrjAVM0JRqWye5FgnPU1LfPptjL8cW7RBAkgACSABJIAEkICtElAsKv2aVhwU1Lq8ZjJCMxIQisqBNd+Hyp5lmR6Qc5St+/fvr/ZEinWLKyqXXPyevIin8MykRCUVjqp8FTSY0lqj2i7hnWBGly/INd6xTZ1UTCEqaUoVmlqFW1ZFNIDy9luglB0/r2hhQQ7EZfeHsRdP6+wrikqdiIxiICYqacX+LjRNTh/RNtZd2Ql30x5pbX9YnY+ggkcZSZt994/Bv0/OyXoW5A705QrUo0klM0sF9748o/h7Vi5ftEMCSAAJIAEkgASQgDUQUPyyU2F4eKEHibhqyaJNVMbFxX1EcvcVZYGXKPqIykCvAPh74q8QPv0NyMotiqpqjGIKUSnWr6h3l0CzZkxqQ42yZcsWmBOzSudwxlUfqLZ5/Pjx7UWLFjVKTU1NbNq0aZPBgwef5FaAnkqdOCUNpEQle0Nd4pVvFlQfCsn/zr64Cufjr8lu7PVyjZnt4g4OxY9+Xl4h3Ex9AIcf8qaQqdPQwFUvu6ik47++6H+Kv2dlTygaIgEkgASQABJAAkjACggoftmxZNRXlpdQVLYt1wTalG2kxqntTCUxciCikglqQovmmcpS5Eyli8bU7B2zBZwcnKDdog+Ya98NWglVSodAy7nFZzm5N/0z6Td4bd67OqfYXKJyY+elQMSfaH+2b98OM85/qbOvXFFJvMEaa4cr1lFU6sQpaaBLVOpfc9GddOu6j7eruhrh88RecHKyB3c3vmdbadsvu6ikvK4uOKH4e1YpZ7RHAkgACSABJIAEkIAlCSh62fFrU2laUJOyyg4NmmB0Yi/B3OivUVFRH5w4cUI0OAZX+OQWqGBG9FpeD52dHcDN1VGj1ztHbIKK/uWh0Yx26muX5x2Da0/ioOvXxecrS0EpuDz/GGNTe+KrOkdvLlHJFYRinaLpVXQVto5ly5Y1iI2NvSS0X7FiRZKXl5cP/RxFpS6a0tetRVQa6qWkI0RRCfDgp6ufpt9LWq3/isA7kQASQAJIAAkgASRg3QQUicqyQxpmevu4Frs4LDQ2YW5J2o1pJIiJM+e8YHR09Pw1a9ZM4naRiKE7Pj4+ldjPtt3fBxef3uKNgnpwpIIQ0TOVNBAPDcjzavUmsL7fMvhsyxQ4GHNUXQe1YUtJFZVke3GtGzduaOy5bNu27fLIyMjRKCoNezCsUVRmkrywbgKvZX5+AdCcsa4iP8KwBFBU0nyx2bFP156rZ9iqwLuRABJAAkgACSABJGC9BBSJympjmxY6ONhZxWi43krWozK22gCdfSOBfBibrPxsWHlrMxPQhga2YYs270yPZu/D1Hc/V9v22zASTt06y/xtb2cPMXP/gRySWsTZ0RneWhYJd17oTk9nCk+lmOjWFWRHiafy6tWryxcvXjxGCBu3v+pcfrIMrEVUCjvr4+1CA2GpP1bl5UN6eq7WZwdFJRGVz9MTnm68FCBr8tEICSABJIAEkAASQAI2SEC2qPTrUqtdUA3fP6xljKxw4opAx1IO8GnVXuBQyl5rN+9nPYHtD4tyTdJCPS6paTng4eEEjg7a7/V194El3WfCzug9sO/iYXUd1EOZlJHMnLGMnfcv1J/cCvIK8pjr9Nrp2+eg73rNlBymEJXpGbmgUuXzGNAzp+3Ki5+pPEQCtBx9fEaDmYuLA++zafWHqv+eNGlS5adPn95lP5g6derhypUrv8H+jdtf9X9SbFVU0hELPf0oKoF4c/Pg1rLTsr9r9V85eCcSQAJIAAkgASSABCxDQPaLTmD7qjsDGga9b5luKmu1skMIdK3cVvSmpdc3QaFdgca1QpKBQ9/cm/QMJY0IGzG9LQx7vR8MbzdQfZ6Sei+pF7PupBZQQBsRFFOIStqEVPAVZST51kJvZ15ensrOzi6X/OcurBdFpf6ktYnKPjXegZo+lXmVp6kyYd453Wdi2ZvkBuoRjkCXp5K15/7Qg6KSnCslz/31hRgBVv8nAu9EAkgACSABJIAErJ2AbFEZMqpRoVgAG2sboNjWT2EfPdyJR9JRu0dS7rioFzIlKxWazerI3EL//uf6CRjy7Tjm37RoO1tpKlGZnJINhSIiVu64xOx0baHl3oOiUn/SUqJyathgcHPUjEzMtjTp1NdMmhFdRZeofLKmOFflm/N6QsyDq0yVckUljRhLI8fSgqISRaWu9YjXkQASQAJIAAkgAdsnIFtU1vyieaG+njxzYZIjKNm+eJJcm4aeD32tRjNY2G2aWlCyorLzl73h5083khQkjlB/CtkGm1+0DZaWc7OOMGIvnHg1aTGVqKR1G9tb2bV4d6vOKd1554jaRnU3bU/CgZu686vorPXlMBATlb2rvQ21fIs8lAcPHnxn27Ztv9N/z507N6xs2bLMwd6U3HRYcH6jVkgDar4Hod4VGZucnBwSZMeVWY8FhQVARalUmRb+CWSmpENgYCDZWq0Ce/si0SjVJuutRFGJovLleGpxlEgACSABJIAEXm4CskSlR9Wg0hU+rPrMmlElp2SRl2NlPTSGsOS2WL1MVdg96nv1R0IP5SWyFZYCp2lHVOS8ZcOpbUwqKmlHaBAiGozIkgVFpTL6YqKS9RKPHz++UXx8fDS3xg8//NCjU6dOafSzRdfXSzbmbO8Eo0L7qK+XL18eSMRe5u/TG3V/FYT1jAcHZ3+4c+cO/P333+p6fozbB7GJN3ntoqgsxoHbX5Wtf7RGAkgACSABJIAEbI+A7jdJMqagTxom+fm6MvkHrbko9cwZIw8fl8fSHrOgY/2iWEmC/6wAACAASURBVDX1Jr8G+QXFwXLOzDgE7s5u6q2wdGvssgNr4OuDmyA7u9iTSe/l9osG3KGBd7hFab+VcjH2HKOoVEZUm6js37+/6DO7adMm5peD1bd+hPS8TNEGPR3cYWjVSPW1cuXKQbt2RXlX5YjKxv2LfpwQispfHx+G62l3RNtETyV6KpWtfrRGAkgACSABJIAEbJGALFFZaXSjQlcXR6sfn1LxpFSc6QIgdYZS7PMp746ByGZdofJnjU0qKpUy0TVGfa6jqFRGTR9RSdO50HQfG+/ugPicJBSVypCb1Bo9lSbFi5UjASSABJAAEkACVkBAlqi09vOUbEoQpTyFAUuU3i+0b1unFRy+XLwtkF6PnnkYXEjeyrqTWvLMD4/fCZ6uHlB/4usmE5XWICjpoFFUKltZ2kTluHHjyickJDzi1tisWTPXQYMGMe5JbflGhZ5KchYT3nzzTaYq9FQqmyMl1igqldBCWySABJAAEkACSMAWCegUle4V/d+oGFmjOCGjlY0yO0cFWVn87aNKu2hsjyXb/vnZR8HZwUk0+iv1Xo7ZMg12nTlgElGpzxlTpdzk2qOolEuqyE5MVI6qGwlBbv7MdeEWWOqlZFtAUamMtTmsUVSagzK2gQSQABJAAkgACViSgE5RGdi15umAan6NLNlJqbbFzhsKbX2cPJmPknOZOCaSxdjC8gIRlDQ/JT1bKSz7x26Dcj5lmMiwpor+KualdHNwASd7/jZm+sKbSqKGKimvBYdBhwqvatyyIuZHeJ6VqPE5ikoldMVFJa1BV0qXKWdWMVFcpYq3kwdMaNhffTk4OBjat2/P/C3HUykVqGf7nYNwOZkfqIemFaEFz1TimUplqx+tkQASQAJIAAkgAVskoFNUWut5ShrplXrjxEqHCs2hZZkwjUs5+bmw+srPEJ+teebM2FthP371I5jw9igYt20G7L1wSN2XPyf8AmW8g9TeS1OIyozMXMjNLQ4SRBsfUbcHBLsFiPLKJlxmnV0na/1+WqcblHMvLWm78dpuuJn6gHcdRaUstGojqTyVUsKS/jBA5y+3QKWzoekRn4CLvTNj5+fnBzRYT0FBASTHDIMrKXc01g1bYV2/UHCrMhHcvCpAWloa3L9/X93WxFNfabSL0V+LkaCnUueyRAMkgASQABJAAkjAxgloF5WVwKXaB02zDM3naApGYp44+1J2MCtimM7maG69RRe/1bDzcHcCR8ei/HvGKN2bvg/TOn/OqyonL5dJJcIWU4hKGi2WenG5RZeXa9Jp6RyFbD0hHsHwSe0PmD8PHz68bcuWLd3Za4sXL37k7+9flv4trAtFpbLVpE1UKqtJnjXXS09/qHm8+pz6xjfn9YSYB1eZv328XYAGA2KLKo9EJk7nRyam1+j3BU3XQwt6KtFTKW8VohUSQAJIAAkgASRgywS0ispyA+uX9wrw4LudrGS0YqJybqPhsnsnJSyVboN1dXKF4W37w+J9qyTbHtFuEHNt97l98IAfY8Uk21/1EZXazuKxAxtetTe4Ei/XtWvXdi9atKiLcMDs2b5N13+FuJRiTxaKStnLkjG0tKiUyvcqV1RynyEUlSgqla1+tEYCSAAJIAEkgARskYBWUenVIGhZuY5VP7O2gaWmZUN+vjo2CdO9SQ0HgLuDq7qr0dHR/desWbOJ/YAkiLdv0qTJU19fX/Ue0OXkDKBwK6xSUSmVRkQuM3N5Khc2G81sd6SF9TbR/0//S01NhZkXNLcwCscwrvpA5qNly5Y1iI2NvSS8Pnz48OiwsLBwZj44nk8UlXJXQ5GdLYtKepbSyanY24+iEkWlstWP1kgACSABJIAEkIAtEtAqKssODSv0JlverK0IvZSOdg4wI3yIupsrVqzoFBMTs1+s30uWLIknwpIJo0nPWM469w3PzJm8ELv9F2RE27hdnVzg7MwjjMkX22fBnvMH9cJkLlG5qfM86NChg2gfCSvotqWYn9RAdInKSZMmXQsNDa2BolKvpaC+yRiikivu8vILyDnIHMlOCbe/6uupdHN1BGdnB147KCpRVBr2NODdSAAJIAEkgASQgC0Q0CoqK3/WuNBF8JJoDYMSispWweHwZvlm6q4NGDBA27jsoqKi1AcOJ59ZyRuSnV0p8PbSLqQd7R3g4pzifJS1J2pGQpXLyVyi8tv35qsjfQr7RkXle98WeSG1lTE1+4Ab8QaT7a9/k+2vrYW27PbXr2K3wNPMBPVl9FTqIsu/bgxRyT3XyNZOgzfRIE7CYqiodHFxAFcXflRhtg0UlSgqla1+tEYCSAAJIAEkgARskYBWUVlrQnP+HlMrGaFQVA6s+T5U9mRixNDtnK1JHr9ixSfSZyIq1eNaeukHSMxJ4Vlp2wLrSFJyXJzzF6RnZxRtHc1KgzcWvs+7v6J/ebif8FAWLXOJyhGlX4E3QtS7gXl9O3UnAubH8wP7iHU+yNUfRtWLZC6dPHny72+++YYRluHh4Y69e/d+7uXl5UP/xkA9sqZe0kiXqHQlqWHcHIoC4WSTwE8ZeeJRkL08XcDenv+Ii20d1yUqlW4J5w4MRSWKSsOeBrwbCSABJIAEkAASsAUCKCoViEoXRxc4N+sIZORkQqMZ7YCep+y5dgicvxcDb9ZtA1M7jwF/j6Jzi3K9l6YQlXl5ZLtjOn+7Y7mMBFjVujh4DndxbjjnA7/nV5a1XiNDO0Fdv6qStssvbYYXgpQt6KmUhVZtpDSlSCEUwpxzGyArL1ujIaEgtBVR+Wq1xnA87rQycFZqjSlFrHRisFtIAAkgASSABJCA0QhIikr3Sr49KnavtcVoLRmxIm2eykOHDn27devWftqa09dTyQ3K0zXiHZjddQLk5qvAiXgvuaXe5Ncgv0C354/eYwpRSesVMiqbngCr24iLyigiKvfIFJW07nokZ2GP0I4aiKeeWQX5hQUan6OoVLb4pUSlrrQwYvxtTVTeX3kK6G4AWuT+MKOMrvmtUVSanzm2iASQABJAAkgACZiXgKSoDPq4XrRfWU8mkqe1FaFgKudeGobV/kjdTW1nKlu0aFG9X79+11lj4ZlKsbNo1HbbsPVQ3q8svDrnLebWE1P3g4+bFzxMfAIrDq6FzzoMgXK+wYpfhE0lKrneyidrzkF47xBpUXneB775OgmCh4aZZKpRVCrDKiYquYKSbO/mPbfsWVbainDrsaOjHXi4F22VpcXaPJXlfMrBmPZDoeMrRblbz9+9DAv2rSC5Ma8og2bF1igqrXhysGtIAAkgASSABJCAUQhIisoKw8NVHh5WGKWHDJsmaBdGqOTmqCwsLMwZOHCgRrSdoKCgyvPmzbvNkqO5FL+98RsPpLs7SYngWJwSQYqyh7M7sw2Wbj38Y9zPjOBsMrM9pGWnq2/Z/ukG5t9Tds6HG09viVZlKlFJG2PFNxWVYb1CYA31VIrMeBSKSqM8TMaqRJuoFApK2iaJuOtMIu8ye1+FopJ+xvVWWpuoZL3/qvw8+HDFJ3Dq5nlef43F1JL1oKi0JH1sGwkgASSABJAAEjAHAUlRGfp5k0JHGeLKHJ0UtpGrIlEsM/hRLMu4BsCIut15pvv27Vvfvn379fTD27dvb65WrVp1roHQSyl8AZcztj/G74DyAg9lpwZtYUn3mcwW2IT0RCjtFQh/XTsOw74br1GlqUQlN0AKT1TSHghmHUWlnJk2n41SUUl7xnorf7p5AGIS43idtWZRqcrLh/T0XDg56zcICSzP9PtR0lNyVvkTeJ4abz7oJmwJRaUJ4WLVSAAJIAEkgASQgFUQEBWVxKPn7tOnSjpNr2GtRbgFlvZTmFpEW9+nn10DeYJzj3LSiXDrPPzFL1DWJwiazurARIGlZVDr3vBZ+yGweN9K2PTvT8xn1ItJvZkTt8+GX88f4HXLVKKSy6du+RoQf+UErH2dc6aSM7UbiafydpkOEPtQvSvYqNOO21+V4TREVM46+w1k5/ODNNmCqGQJvVm/FazsNwc8XdwVbyVXRtl81igqzccaW0ICSAAJIAEkgAQsQ0BUNXq1LN+43KsVT1mmS/JaVZEIp+mCCKf0TjGPJbdGGkhmWvRq0UaUpE6gwpEKSG4wkf6v9YSxHYfBrF+XwNaTu3htzP1gMnQJ76TxomwKUZmfX8icneOWMqkJfFFJL/43+1RU/pYnL/qrvNnhW6GoVEZNm6gk27fb37x58w9ujR9++GFgx44dn9PPbG37K+up5I5HyXOojKxlrFFUWoY7tooEkAASQAJIAAmYj4CoqPR/o8rC0o3KaO7VNF+/ZLWUkpoNdJunWHnFvwY0KV0PKnqUgSeZ8fAsKwEOPDgOaapMUXt3N3KW0kn3WUqpjjnYO8ClOX/DuqPfwZd/fKNhNrvrROga8bZZRGU62RqsIluEuWWwbz3oVPV70e6fvh8B857Li1bLVuDt5EmiwFaFat4V4UrSHTj1PEZyzlBUylrOaiMxUdml0hvQqHRtxuby5cuTly5dOo/+e8GCBR+XLl36O/rvRxnPYdXlbbzG3FwdwZlzNNrazlSyojI0qBJ4k8BXtNxO4m/fVUbP+NalvQLUW3Fb1mgK6/ouVTey/fSvMGPXIq2Noqg0/pxgjUgACSABJIAEkIB1ERAVlWWHhRV6e2nEubGunv/XG7FtsEo7Ss+OepAAPYaUiW+Pgt6vfiS6ZY8VnB2Xdod78Q/gkzZ9oE2tFtB99SCTpBQRE5XT6/eHgf0jwcG5KI8mW/JyEuHQwd3Qf/9K2cOfFj4YXOyLI4qyN556Fgu/3juqUQ+KStloGUOplCKTGg4AD0c3ycp0eSnpjdYoKm8sPqkRP+qjVQPIduxrysCZwPrU9INkK64H81y3r9cGlkfOgZO3zsLNp0Xxvnq9+iHk5OVCw6lF0WvFCopKE0wMVokEkAASQAJIAAlYFQFRUVl+eHihp4emaLCqnnM6o81jqavPri4O4OLCzzOp6x6x69PfGwvdmnTREJVuTq4QPfMw4+loPb8zc2sFv3JwcNx2OHLlHxi4fixkZ+fxquRu/6MeRyoSuUXX9kAxUbnx3blAtkiKDi0mJga6bRkia9jjqg9U2yUlJT328/OLJdF232Q/jEm8CT/d3M+rC0WlLLRqIylRSQ06VmgBLYMb8iq8lnwHvr/xu0YjDvZ24OnJf46tTVTu+exHqFq6Ei+dzaJeEyR/oFFG0nBrGp12yf5VsPGfLUD/vepwFKw6spFXMf1cW05NFJWGzwPWgASQABJAAkgACVg3AVFRGTIyotCNbAe1pUKFGT2fqKR4kRdue/LibYzSuEpD+HbQSt7LpSsRlGeJoMzMzYKI6W15zVT0Lw8Hxm6D6NsX4Z3F/SRFo7FE5eo3p0LlypVJKhaSBIXzH204MTERRh+dqRNDU79XoGVABGM3atSogLS0tAT2JpLqYgHJAfoF/XvKmVVQQM6usgVFpU60PANtolJJTT7erlBK8IRbm6ikgqzSyKaQoyr+4YT+aKJLqCnhYIgt7cfvF/6A8dtmMn2iuwsuCXJo6uorikpDZgDvRQJIAAkgASSABGyBgKiorDqmSaEh5wstNXAlW2Gdne3BzdW4wnn/51shJKACfEuivtYsWx2aVg1nclk2mtFOAwl9EaUpR+zt7OHvqyeh+1fD1Dam8FTOazxC67QsvlGUU1NbGR3aFxztHCA2NnbGsmXLNFQom9bir8fR8MfD/6Go1AVU4roxRKXUDybWKCrX/7kFpv28RE0jwM8DYub+YxXRX9+o8xp83Ws+IyTrV6jN5Js9EXeaN3N9W/ZAT6Weax1vQwJIAAkgASSABEoGAVFRWWtCc/HoN1Y85sxMFeTk8reR6uquMT2VbFtDXu8LI9sNYv6keSlpfkphOT/7KNiXsoP6U1qBv1sA/Dv1V6j/RTt4QSK00mIJUSl2Hk/Yb1aYkuAwVW/cuFF0qIxT2rZtuzwyMnI0/YhbH3oqda1E/nVDRSX9QYgGnhIr1iYq29d9HZb3nA3XH9+CpIwUpstNq4VBXn4e83xYQ2lcJQw2DfyKeH2lUyzh9ldrmCnsAxJAAkgACSABJGApAiVCVCrxUApBO5MXcHNu9Y2Z+y/xTtqpPRumSCkidqZyWvgnJLiOtGdWiagkXsoGxFt5Scjym2++UTmQcj/9Kay98rP6MopKZY+3oaKStiZ17tbaRCWN/loqzxFuLP9XDWnFH+vgm6PikYqVkbQOa9z+ah3zgL1AAkgACSABJIAETEfA5kWlIYKSxergQAKamCEwEd3SR7e8vsKJFMmKSh+STuHq0r/goy+HQOzT4vQc+pyppGlWaPAiYanrFyq6kmJJcB05ZXS9nlDatSh6LDlDyVs7vr6+3iTNRTK9NiN6LeQWFJ9vRVEph26xjTFEJfWq+XhrRnC2RlGZnq4sEJUympa3RlFp+TnAHiABJIAEkAASQAKmJaAhKj0q+Y+s0L3Gl6Zt1ji1J6dkM0FnxEoNn0rwTsVWJAWDK2TmZUNiTgrsvHMEknJSRe1dSQRYFxIJ1lSFbnl1dnASzVPpZu8Ol5cchfvxj6DJ1HcM3v5Kx2AMsS3Ggt0CS4L0JM2ePbtufHz841atWo3s06ePes0IvZ4oKpWtKl2iskOF5kB/IChF/ncn7THsuH1ItAE3N5Kj0om/plFUKpsLJdZdI96Bj5p0hm6riiMk0/tRVCqhiLZIAAkgASSABJCALRLQEJVlhjS8SbbOVbX2weTm5kNGJt/DQftc26cK9KzWSWv355xbD1n5ORo2ulJ16MuEBuVRkTNiDUTOiJUqcIDLC/+Gp8kvoOHE9kwThp6ppHVQsU1Ft7FLfb/q0D20qJ/CQuLKwuTTmvkuUVQqmwUpUVnJsywMrtVVtLLtt/6ACwnXda5paxOV9NmQKvSc4oXZf4GTgyPUm9ySePmLIworI2oca119pTsRaOAt4flKFJXG4Y+1IAEkgASQABJAAtZLQENUBg165bGfv1uw9Xa5qGdinrjOIa2hcem6sro+8+w63hZNepOdXSnw9tLcMiirQi1Gqz5eCJ9+z2Tb4BU/dx84NmUvXH10E16f85H6mjFEpRQjQ8dC73e1d4ZhdbqBv4u3urozzy/Drrt/ilaPolIZdTFR6enoBhMbDlBXFBcXtyYgIOAJ2XY8i/1w1eVt8CjjOa8x4Q8l1iYq327QHhyAf9bX1bUob+xPJ3+BT9sOgC5hnaDtInExrYys6a1rBleDa0/ieA2hqDQ9d2wBCSABJIAEkAASsCwBTU/lgAaJvoHuvpbtlvbWs3NITsosfk7Kih7B8InAi7NixYpZXbt2ZVJfkFyMZxs0aPAKt+bJZzS9akq9lb+N3gxVSodA3UktFSFzcXSBc7OOMPcEDw1T37tt5Gp4rVZT9d+nb12Azkv6axUKYg1LnatU1EkjGaOoVAZSTFRyUsIUkvOsvOSqbCoX2opYwCXumrY2UUkD9eCZSmXrA62RABJAAkgACSABJGBtBDREZcioiEJj52809qCTU7LI9k5+rXMbDVd/kJ+fnzZ48GAvYbvEsxO8cOHCx+znd9IewYZru3hmYufQpPpPt8Nlq3Lg5rM7ULd8TSZiJY1cqav4uHnDian7mJx37Rf2gOzsolQo0fP2QTnfMjB442dwjOTCK+9XFv4Y9zPsu/AnDFg3Vl2tHOFrqjOVusYmdh1FpTJq2kSlMEASWzMrLHWJSrFnh7uedF1XNhJynlAkaBTPE18CRCX9HsCUIkpXBtojASSABJAAEkACJYmAhqisMqZJIU2zYc1FKJhCiJeSe9ZswIABkgnlWrduHdq7d2/1/jSht9Le3g5o/kpdZXjbgTDsjX7ql8kmVcOZXHYzdi2C7ad/1Xo7fQl9kRYPreZ1Bjb667n5ByDYpzSEjm4BTq7FirlZaCOIGrCC583UJSrF0pTQDtEzeUH/RW9lO3gr9RHEZyfpGq5B11FUKsNniKj86eYBiEnkb7/U1bqlReUf47ZD5dIV1d3MzcvlRUjW1X9zXW8YUg9++GQ12JEcs9oKnqk014xgO0gACSABJIAEkIC1ENAQXzXGNyukZwutuQhFZfeqHaDef+kyDh069O3WrVv7aet/VFSUWrUtvfQDExmWW3SJNmo7psNQGNiqF89DMabDEPJZb61eC3rv++FvwS9n9zJNUgG44KMp0K3Zu2rhyG2/ol8FODBuqyJRSdOJUA8Rt3C2T4qikZOnUt81gaJSGTlDRKU+82hJUbmu31JoWb0pREzuBI8SnzKgouftJR77YJ3PkTKqhlvTH4P+uf4/GPJt8a4BWit6Kg1nizUgASSABJAAEkACtk2gRIjKgTXfh8rEC0cLyc/XmmwR/FvbtBhDVLo5uUL0zMMw/IcJ8OcVTuL2nnNg9I9TZK8KKirvLD8N7yzuC9G3LzH3cV/yd438DmoEhyoSlfn5/CiZgc5+MKDKB1r7pI8YkTtIFJVySRXZaROVycnJh8eMGdOOW+PAgQPnNm/efBL9TJ95tKSopIKMKyjZ9a9LqCkjahxr2qfuqwfBpQdXeBXq6isG6jEOf6wFCSABJIAEkAASsF4CGqKy5hfNCmnidGsuQk8lV1Tm5OS0GzZs2GFji0p7OzuY9f5EmLxjrrrqL3vNg3Z1WhnkUWFFJTdYD/uS3zQ0AjYO+JLJXUlzWNJCUxYMfL0HbI/eKXuKApx9oV+I9uiZSsVIhwqvwmvBxQGGFl/8TjIHKIpK2VMlKSrptuVR9XqqK1KpVD70j/T09DgSATaQ/vv7G7/DteQ7yhoj1pYWlZVGNoUcVXF6INofXUJN8SAteAOKSgvCx6aRABJAAkgACSABsxDQUI+1JjQXhMAxSz8UNSIUlS3KNISOROSwRceZSgdyplIdOlZ4plIqrUgZct7xzy92QbNZHSElK1XdFn35bTHnLUjMSFY0BtaYFZU1P28FKZlpzMf0pfqtBu1gcfcZsHz/Olj0W1HwH283T7i2tMgJW+7TcNnpT6ionNd2Avj7+6v7yP5wQP//xYsXYdTRBbL67+7gCpPD+Mnd2Rtz81Uw4+xajXpQVMpCqzaSylP5fuU3ICKwtmhlF+Kvw/bbf0g25OBgB3l54nkeLS0q5dDRFghHzv1cm25N3oNtp3YrvU1vexSVeqPDG5EAEkACSAAJIAEbIVAiRCUNnDE7Ypga+bJly/pcvnz5e7E5WLNmTbaTkxMTiScrLxvmnN/AM6NBitzc+HnzWAM2+Tn3BZd+1mRme0jLTlfX8+/kPeDv4af+W1vwHioq/5r8C4QElFdvcb2w4CAEeQfCzN2LmZffTJo+Jd8O7n59kqnzl9P74dNNk+lWX/Dx1p1Xk4rK7/uuhEqVKokuy71798LA36fKWrLcs5mbN28e16tXr23R0dFfRUREvEcrEBOWKCploVUbSYlKauBi7wTTwj/hVTj33AbIyMuSbIQrGsWCOFlSVL5Vvx2Elq7G67uLs2agsIV7v1YGUcLal0RePk4iLydmJJEfg94WtaLP9FvLesCdF/d519nnX1dHMFCPLkJ4HQkgASSABJAAEihpBHii0jPEr1n5HjVPWPsgU9NyQHhucGz9j8HXuTiLyIMHD+bOmDFDfbixWbNmrh999NETLy8vb3Z866/+AnfT1RlGmI91Ben537QD4O3qCXsvHIK3XmkHScRD+SrxVNJSwa8cHCSRLFOz0mBA1Gi4/OgaTO38OfRo+j7Ql+Lvjm0VRUs9r8dn7IIqQSHM9UKSL+X9r/rC9ac3mb/dnd3hzIw/4EHCY6jgXxbCJnWAJ0lFSe6lPKvchqio/Kp9L6gX3gHsnZhdk+qiynoKu387CCP/+lLntPcM7QR1/KoydsLUFj4+PpWImGf2Xk6LXg15BfnFbdxN25Nw4Oa7OhtAA4aANlGpFBFdz9RDmZaeo14rQk+/JUWlufNUsqKScox5eBW6rdL0utN0P472jtBoBu/oqij6sJD6sHnIGkwponRhoj0SQAJIAAkgASRQogjYpKikMyCWh5Gbq1LXLL0gaTRWxPyoYaZLVNIbPnm9D4xqNxiWH1wL6//6ganD2dEZzs/6E64+joOuX/fl1bui51x4s25ryRdPsbF4uDuBo6M9eBBBeZoIypTMVBgcNRa2jfiGF7TnHvFeztixDHZf3KNuUyz665ehGRDic0MUy61Ss+HzM7/oQgaslzI2NvYdIiB/F97A5kq8mnQHfogrvoyeSp1oeQbGFpXpGTmgUhVtfaXrG0XlPmYb+/+m7Ye4Z7eh84rePP59Xu0GX7w9UvZZaV3nP3H7q7L1j9ZIAAkgASSABJCA7RGwWVEplqSd4p8VMRTsS2nPs/kg4xmsvfKzxmx5ejgDPXumT6EvltmqHAib9rrG7WykWKlzYWKeV1pJoJ8nXJr7NznDmUZegjsAK07ZoD5P1pwDVX4eVBzemOexTM/IJSKi2FNI6/qsTBy0Kl+8RZfbyRGxteBBtvZttPYkzczsiOHMbURQNiDCsihULae0bdt2eWRk5Gj6ETfwD4pKZSvKmKLSx9uVbJMGoD80eLg7g719KasSlc72LnB+zhENQBv/+RGW7F+tDJwMa9ZTSZ9FPw9fODb5d7gb/wA6Le2uvltKVLo6uYCDnQOvFZqf9isSsEvbmU8UlTImBk2QABJAAkgACSABmyZgs6KS7BAFKizFCg1m0qWSprhLV2XCqitke2qupriSez5RarapqHxt7jsQn56o14IQeo/YoDyPkp5Cu0VFkVtpG1N3zofN/+6C60uOk08KIWREU3V7dCss9W7m5OTx+lCzbCh0LNivVVSWJ4GO/hd3VrTv7BbbcdWLtgo+evSo69SpUzVcm6yn8nz8Nfj59iF1XSgqlS0JY4pK2jLX+56RmQu5ufwfHCy5/fXMjEOQkJYEwzdNgR2frYMzJK3O3osHYd6Hk2V7CpXQ5YpKel+Apx/8M2kPaOmptwAAIABJREFUXLgfC5Fris6qnpt1BB4nP4O3l0XyqpY6U/nr+QMwcftsyW6gqFQyQ2iLBJAAEkACSAAJ2CIBnqgsM6Th5+QFc4mtDISeq6RePm2F9VrmF/JfpIX3yNn2qq0dXVvguPdenn8M6kxsoVEdV1huH7UWWtZszGx19fJ0Bjdn4tGZfRTqT2kFF2b/BXbE/cRNQ6Ktb9SjuWimp1ZReXr5FdH6uGc2+4R0gdLORRFkhWcq/fz86ixZsiSWXpt6ZjVweaOoVPZEvUyikj43bEqRgxN/hEAvf3hjYReTpRQRiko6Mz5uXnBi6n7eJNWd1BIKCsWj5SqbTSD1FML1hf+z7jxNSgeF9kgACSABJIAEkAAS4BCwaVFJxyEWzVLpDBsqKGl79OW4+eyOkEzOPuoSn7EkQMhHIgFC6H3JJGiPWE6XFrUbws8jopggPrl5udCQbLOlUWGFXkmxtvUVlXTLq5cXf1ss662k7cTFxS0KDQ29fPfu3SGVK1duRj+Lz06GZZeKzpmyBUWlshWpTVQGuwVA3xqdwdPRTV1p1LXdcCv1gWQj1uyppM9NxwW94cK9y9CrxfuwuOcUxkOp5EcaZXTNb42i0vzMsUUkgASQABJAAkjAvARsXlRSXAUFhcyZMaWFnjWjZ86MUcTSjQjrvTzvGFx9EgcffN1Pa5NigXuoMGQL9/yWHGHJiMoZxFNZQeJM5eVacHoZ31MpFVXWoZQDfFatr2j/M2mKlnPrNa6hqFS2wqREZf8a70GodwXRyu6lPYF1V3eIXrNmUTmjy3j4qHFntZecXefUS0i9hSWhoKgsCbOIY0ACSAAJIAEkgAS0EeCJysAuNaICavj3t1VkYmJMaizGFJRsGwfHbicpP8oxf3KFn72dPcTM/QceJD6C9os/koVXOBb6sk09lPUmtSLBVvjBhMTOyQkb+SyIBOrRIiofZBV7JGkwFy9P8cA9NAAQDQTULKg+tC4bwTSTlZcD317/DZJz00THhqJS1pSrjcREZRWv8jCwZhfGJicn59bcuXPrPXz4MGvevHnHypQp8yr9fN/9Y3Ds6XmNxqxZVApTivRq0RXc3Rxh++lflUHTw7pq6cowvcs4iKjUgLn7p5O/wNo/v4MXafGitYUEVID9n4unBcJAPXpMAN6CBJAAEkACSAAJlBgCPFEZ0KXG5sAa/j1tdXRKRCUdozG2vQpZlYJSEOQdCE9TivJI0kK9mOfvxUDPtUMUoeWOZ1rX0TBr5wrmfjbdCLeyLLIVNlsQoId7Xa6o1Jb3kgZ4oQJWaUFRqYyYmKhk07mcO3fut5UrV3bm1vjee+9Nfffdd2fRz7hRd1kbWxKVpnouubxoxNZNA79Sf3T06jHm321qFZ9zFhOJ9Dk+e/cizN+jmdP1yuPrkpOMnkpl6x+tkQASQAJIAAkgAdsj8FJvfzX1CywVmDQoT1JGMrw65y2tq4O+sE7ZMQ9+ObuXZycllGnwHiUeS615Ku1InsrTv/DSkgg7y3oo9VniKCqVUdMmKoUBktia2ci7tioqx709VA1p04kfIL9Ae2AtZUT51vRZO3nrLPTfMFK0GnqdGw2WNaKfd189CC49uKKoeRSVinChMRJAAkgACSABJGCDBGxeVFpLoB6xuacvoRfvX4YeawbrFJTUQGoLnZSw9CB5NR0FeTWpt5KeMeWW0i5+8F2v6VCrLhNLR6Ps2rULJp+WDvqbS7a8ZpAtr/oWFJXKyBkiKn+6eQBiEuN4DVqzp7Jq6Sqw5zN+YCfa+e+ObYWFe79WBk6GtVj0V+FtUnkqWbG54HdNT6U2oYmiUsbEoAkSQAJIAAkgASRg0wRsWlRSAUW3fRqjmGIrrJzgPaxNnUktmMiuUkVKWHoSYekgEJbCOgKcfeH7viuhUqVKotX//vvvMP74fNFr+m555VaGolLZCjVEVNqap/ISOWvsQM4cc9PjtG3YFH4YvNokeSppPloaMKsHyUl5keSmFCtnZx6BxIwkkh/2A95lqTyV1AjPVCpb42iNBJAAEkACSAAJlCwCNisqqf5KTskSnY225ZpAm7KNRK+tvLwVnmSKB+IwhbA8Oe0AeLl6QsOpbSCHBNphi10pO4id9y/zZ/8NozT6mkOC39BzmNyiZCss9z4qKkfX70/Sg3gxwlX4X0JCAsy7vEajD4ZseUVRqf8XhTZRSURRYb9+/XiRmsaOHRtTu3bturRFWxOV3DyVLDH6HJoypcjnHYfBgNeKjo7/dfU4pGQVpQHqHNZRPWnaRKLSmUVPpVJiaI8EkAASQAJIAAnYGgGbFZVUUAodey72TjCp4UCwJ4JNW3melQhfxm7RMKFRJ52cHIw+h2IeS21eD7YDYi+2UsLS3c2J9N1etO9UVPYL6ap1XItvbOBd1+ah9HLygAE134NAF1/1PTdS7jERYMUKeiqVLSkxUenm4AJTwgapK1KpVHvs7OwK7O3t1UF7llz8HhJzUjQas+btr/Q5eHNeJMQ8uKbut6lFJdsQFZZUYLLlwKUjsPXULjh9WzOCrrIZ5FujqDSEHt6LBJAAEkACSAAJ2AIBnqj0DPFrVr5HzRO20HExcTW30XCNrpOX7wzyoSMpTsKLk8+s1PoCbkwO/VtGwsZ/twC7/Y7Nw0cD+fx4YifM27NcdnNKo9yWdvWD0fW0B/VddL1YVGZk5oBKVSDan4oeZWBI7Q8l+zotejXkCYKsoKiUPbWMoVSeSj9nbxjb4GPRyrbeOgiXEm6IXrN2USmHTrNZHdUeRTn21mSDotKaZgP7ggSQABJAAkgACZiCgE2KypTUbI1gNNPCBoMz8VSy5fjx40NJRMy1XGgzZsw4VaFChcbsZ1HXd8Pt1Ic8rj7eLozwM1URei3p35HkfBeNNqmkKBWWsyKGMWfXxMrt1Eew4dovsppnU1s8ePDg1o4dO96MiYm53apVq459+vTZx1Yg3IKJolIWWrWRlKhkDRr4V4dGgXWYP2MTb8HJ55e0NmDNolKYp5IOxBTb0FlADvYOsLTHTBi1ebKySSHWcnYX0EqFOwxQVCpGjTcgASSABJAAEkACNkbAJkWlLi/lnDlzWt25c+cfsbmIiopSR8OhL3tTo1fxzJzJ9lc3sg1WbqlauhJsHbaeEaITts+Gw5f/1nrrqo8XwvAfJqiD8hhydkypsPR2dwVnZ/723uTkbMgtkBfsaEz93hDg4sOMTyS1hQMR8UxFM6LX8upEUSl3NRXZ6RKVymrjizSaZ5RubeYWrogT21ZuiMijkYjpj0BS7ZlbVLLRX1X5edBgSitRlPSZfHt5JNx+fo93nX4+IGqUxg9ANLBP+PQ31LZZufzxoqhUumLRHgkgASSABJAAErA1AiVCVAoD8wwYMECbq9GeCMs8dqKEW2Dt7EqBt5eL7HmkL5r34h9AAokWGRZSH746tB7W/vmtrPsDPP3gn0l7DIpyKea1lWrczdVRQ1QqEaasl3LZsmUNYmNjNdxjy5cvj/f29vZ/npUEK2I2q7uBolLWclAboah0VQZMgTUrKuktKVlp0GxWB427fxu9GUKDKms8l1J5KnX9MISiUsEEoSkSQAJIAAkgASRgkwRKhKgcWPN9qOxZlpmAFy9evD1hwoS92maD661ceukHjeAmcj0zR774hZwfzIP2iz9imnutRjNY23cJjNs2E/Ze+EPngvig0Tsw6/0JBolKtpG8vALIyS3SykJPFGtjLFG5YMGCWjdu3CiOrPJfA23btl0eGRk5mv7J3QKLolLnUuAZoKg0vaikW1SpGMzIyYRGM9rx+GvLU/k8NR5az1fHRgK6U2HPZz9iShFlSxytkQASQAJIAAkggRJGQMOjV/OLZoWmPFNoDH5C7xpXVJK+tyZbM7XuQTWWqPxn8h6wJ+cUX53dST2sL3vOg3Z1W8kSipPf+Qx6Nv9Alq1SbmIeSENF5bTwT4BG2M3IyBg9YsQIjQzwZPsrs7X40MOTcPTxGXWXUVQqmz0UleYRlXRWYknOymyyXTViRlv1JEmJyiqBIfD7GM2o0YfIlvdRmydJTjJ6KpWtf7RGAkgACSABJIAEbI9AiRCVPUM7QW3fKgz9kydPHlq/fv2b2qaCKyoXXNgEaUyA2OIi11NJ76DejreW9YA7L+6rK+jd/EP44cTPFlsNYufYaGcMFZVhAbXggypFL98TJ06s+uzZs9vsIMnfy6tVq8Z4KemWYpoLky0oKpUtBRSV5hOV7DNMc1XSCLM0p+zxKfvg4v0Y6LWuON0Idwbp882WI1f+hcfJT7VOMIpKZesfrZEAEkACSAAJIAHbI1AiRGUVz/JM3kS2aDtTuWHDBj/izUxgbYVnKu3t7cDL01l0JuuVrwWNq4ZD1N/F5wW/7jUf3qjzmkm8jfoup7T0HKDbYYVlNokAKyxXk+/Alpv7ZTfFnqukNxSQQnIl0qgvNPoPs5ZOP4+F3XeP8upDUSkbL2OoTVT2r/EehHpX4FWYmZcNc86tl2wEo78Wo2HPVHIjtJYiS5em9uEWsRyxymax2BpFpb7k8D4kgASQABJAAkjAVghoiMoa45sV0mA11lySU7J5njDa1zmNPiWvhkX9zs3NzRk6dKhGtJ3u3bs3bNeu3Tl2bLGJN+GnWwd4Q3V3dwInR/HUGw1D6sGPQ9byBGSQVyAcnbhbVFSyKQhWH9kIKw9HmQ2pcOuro50DzAgforV9sZydUjeMqhcJQa7+GpePPT0P++7zX86pEYpKZVMvJSqnhQ8m24/Ff/CgLQhTubCtWrOo7NnsQ1i1/wcoJP8T668ycqa1dnF0hnK+wXDr+V1FDaGoVIQLjZEAEkACSAAJIAEbJGCTolKlyof0jFwebj9nL/i8vkZi+PMrVqxYRw2HDBky0cXFJYR7k5iQ0rX19dT0g+Dq5Ar1J7/GVCUVqOPinL/BkeTEG/rdOFjTZzHM/W05/Pi/HWZZIkJRSbcG0y3C2ooSUUnroTlBG5erBcGupeFi8lWIe/4I6MuzWEFRqWzaxURln+rvQg2fouV74MCBt7Zv387kBZ09e3atcuXKXaH/Tldlwrzzmj9eWLOoZH94CR4apobE7S+9/kfsURj94xRlEE1gLcwxK7cJFJVySaEdEkACSAAJIAEkYKsENERlyKiIQjdXJ6sfj1ggmial68G7IeK554QDmha9GvIL+VtE5aYTiZ5xGNyci899PUp6Au0WfaBuQvjyuaLnXHizbmuzbZEVsqnvVx26VdV6zJQ5B6mkkLSc4ONdzEBbahIUlUrIim9/Zbcdjx8/Pjw+Pl7tbac1k1QuPiSVSxL9t5i30tpFZXp2Bni4uEP5TyMgv6AAuP2lqT1oig/6I05eAT+/pjKqRdbs9tfOK3pDXPGRYF5VUilC6leoA71f/RDGbZ2hqGkUlYpwoTESQAJIAAkgASRggwQ0RGXZQa8kevu7+Vr7WMS8lbTPIR7BMLhWV8nuUyFJz5/lFqg0bHR5Kbk3tCMi8Z1X3oTvj2+H6DsXNARlPfISnP/fS7Ab8WxGzzxsUVH57fDl4Ofnp+4nN8Lvrl27YPRfCxVNOYpKRbgUGYt5KllRSSIbi+5NZyPv0sBTqbnpvPasXVRWGtkUTs3+HYK8A4B6LIXPIRMMaykJhhVfHAxLEVCOMTdP5SebPod/b5zUqOrS3L/h2uM4+GjVQH2b4d2HotIoGLESJIAEkAASQAJIwIoJaLyglhnS8CZ5qatqxX1Wd03sbCV70c/ZG0bU6U5SftgxHslryXdh262DksPyIGcpHSXOUsplIbU9rox3afhzwi6LisotY1aBv7/mOUg6NrKVEkYdXSB3mIwdikpFuBQZGyIqf4zbB5eTbtmcqMxR5cLVpX+Bj5sX1JnUgndm2hSi8q9rJ6B1zeYg5rGUSinCQnW0d1TzVeVr/jglnGwUlYqWPxojASSABJAAEkACNkjApkUl5a1t26Xc+XB2dmDSbRhStJ23oteoN/Pjbz41pAnZ9wqZVPAoA0sauULdxpHg6lOb/FeLqSvt2XHmv4OnHGDSueKItnIaQlEph5J+NkpFZbNmzVwHDRqUSVuzxe2v1FNJRSUtlxYegkAvf2izoAs8S3kO4zoNh34texjtBxlu9Nfp742Dbk3egwFRo+F/N4vzqkqJSlcnFzg784jGpHb5qg9cf3JTcrJRVOr3HOBdSAAJIAEkgASQgO0Q0BCVHpX8R1boXkMjsb01DyklNZuktxAPEqOr38bwUH47aCU0rtIQ6k1uyZwJ45bVJEgP9Yhwt8NKBffR1Ve518WE9paIdHCFONEqjqZ8Dl/F/Sm3esYORaUiXIqMtYlKWpFwCyy79bUkiEo6hstL/gQ/dx81s74bRsDpW7xjpIp4co2FKUUWd58JbzVoy+SkPHf3ImNKz3DSs5zCtCLnZh0BF0cXaDClNbAeyh5N34epnT/XKnpRVOo9XXgjEkACSAAJIAEkYCMENESlp6dnjfKf1rtmI/1XdzMrWwXZ2XmKuu3t5QLGSp9Co8J6unhAhyXd4H7CQyjrUwYOf7GT6Q/35bRO+Zrw86dRcOTKPzDih4mK+ivXODNLBTk5fBbzasZBLQ/+WTu2voHRtSABNDKwSDbXpmwjaFe+qcb1r2O3wpPMFxqfY6AeuTNXZCeVUoSbI1SsxilnVpEIvJr5Sa35TKUqj0RyTudHclZytlkZ2eJAPdxncu4Hk6FLOD86cp9vhsOZO+d51dMdB91XD4JLD5hgu+oiFdiHNUBRqXSW0B4JIAEkgASQABKwNQKiQT9qTWiun9vPwqNXshXWycke3N2MG+X2f1P3gzc5E8aWzNwsaDaro9qrUaV0CPz+2RbYcWYPTPtF2RlGpWi5LL54dxh43/hMq6icO2AFDImaoLOZkXV7QBm3AEm7b67uhLtpj3nXUVTqxMozkBKVTnaOMCNCM98oFS0zz64FVYH4jyooKovx2pEz1gs/nAbjts3gMQ/09IfxnUYwny3c+xXEpydqTBqKSmXrGK2RABJAAkgACSCBl4dAiRGVaek5kJen6aXRNpU+3i5kG6coAqOvgBrBobBr5HdwmHgoR3I8lDSVAi0ZOZm84CSGdoAbHffJmnOw6UtPraIyds0VJvKmtkJFzfTwTxiTw4cPf//TTz/1Ye3XrVuX4ujoyChq4bk+FJXKZlNKVHJrocI+0MUHYhKlz/Kx9rYgKkt7BcDhyT8x5ylpoR5Xegb5/N0YKCT/s4ayY8QmqF22Om/nQZ8W3eGLt0bg9ldrmCDsAxJAAkgACSABJGAxAqKKqvq4poX29nYW65TShpNTsoggU3pXkb0pPJbCnlQvUxV2j/oefjt/ACZsn62+/NPQb6BBxTrqv9f/9QMsP7hWv4EI7iokQGh0XFqMJSonvNIfPB3dICUl5a8xY8a0EXaUPdv3/Y09TLRdtqCoVDalckSlkhqtXVTeWPQ/9Y87+y78Cdef3YBXqzUm55SLfuSQSv2hhAHXtlJABbgb/0Cv22nkV2HEV2cHJ8jJ42/h5VaO21/1Qo03IQEkgASQABJAAjZEQFRUVhrVqNDVwGio5mKgZMurVJ/s7UqBFzlfaYrCbnn9/cIfMH7bTHUTMXP/ZdKdRExvC3SbbETlV+D7wavgq0PrYe2f3xrcFS4XnaLybC2IXa3bUzm30XCmX8uXL28QGxt7SdjJoUOHnm5ECv2c661EUalsOl8mUXlo/A4o5xsM5YZFqM+DckXw8sg50L5eG6NFf6UpS06Qbeq0CAPxKJsl+dYoKuWzQkskgASQABJAAkjANgmIisryw8MLPT2crX5E2jyUtX2rQM/Q4uAbjzKew977/8K99Cei43J1cQQXFwejjtnfwxf+nfw7HL5MtrxuLg7Kw6YlCJ/+Bq+9cZ0+JekTIg1+2aXbgOl2YG7RGqiHiMqEQt2iWpeoHDVq1P4GDRp0QFFp2DJ6mUQlPafITSlCyQkD9RgzTyWtn+aM/fn0b7Dmz02KJ6qCXzkY23GY+r7jcadh++lftdaDolIxZrwBCSABJIAEkAASsDECoqKy7LCwQhoZ1ZpLTm4+ZGZqbjlrHRwhGpmUHQs9n7XwwreQpsrQGJ4pok6GVapPUhUUO/WOT9kLviRdgpiXpGFIPfhxyFqDRWVqWjbk5/P3Ay+pcxequiaJTumIC6/AwzzdZ0snvTIA3B1d4fr168cWLVrUUlhZVFRUIT2j+tPNA+SsX3H6EvRUKnuSXiZRSX90oT++cM/zcp9DY+epVDYTfOs2tVrAqo8XalRBz0M3mtFOsmoUlYZQx3uRABJAAkgACSABWyAgqiR8X6/8dZnGwUV7Ha20iG177RzSGhqXriurx3PPR0FmXpbBwtLezh5o5MinJFG7rkJz7x0jopK+gNIXUWGhHpmE9CRoOfdtXVVpvS5kE+TqD0tq3wEPuzvg6BIIjq5BUJCXCfmqNFBlPYOYnFkwLWaXzjZLu/rBqLqRjN2+ffv67ty58zv679DQUOdPP/30mZeXlzf9e/KZlby6UFTqRMsz0CUqXeydwcfZk7knXZXJ/KetWP2ZysXkTCX5Hy3f/fMzODs5QPemXdRD6ri0O9zT8wykHPL+Hn6QS85EpmWLp9xh66DPZ9Tfm2HpgTXqaum9/07eg4F65IBGGySABJAAEkACSKDEEhAVlQHtQ8MCG5Y+a62jpvkoaV5Kbgn1qgj9arwr7PJQcv4vmn74zjvvDCfiRx2tVEz80M+UeivpiyYtcs5n9SdbW8eSLa5ittPfGwfdmrwHYdNeh2wVf+uqofNQ07MKbBjyJfj5+YlWtX37dhh1VF6Kk25V2kN9/2qSXYq6thtupz3kXUdRqWwGtYlKsVyVNFLqPOZHkqLATMJi7aKS5qlsGhoGA9r0gLfDiraE/3XtOOy/eAT2XDioDJ5M62mdx/KEK3vbi7QEGLxpDFx/ohlVF1OKyISLZkgACSABJIAEkMBLR0Byz6M156qkUU1pdFNuYc/70c+ysrLShw8fXuTKERS6RZP9iJ6vpHkVucXd3QmcHO1lLQRWUO4keSenysw7KZYofTxJSdCXpCaQI0xldUxgREXl+k9WgL9/UboGYVEiKum9rYLD4c3yzTTqEXooWQMUlcpmTUpUCgQlu47Vz/DUM6shvzCf15hdKTt4tJr5XQXqTGoB6Rk5kEu2jnMLV3SKnVNW+kMLt+6CgkJISeWLXW59qrx8oKJSqj/KyMmzPjphNwR5B4IweBa9+/K8Y0wk2nFbZ8Dei4d4FV4mPyBR2NzntEO9N2BZ5Cz0VMpDj1ZIAAkgASSABJBACSUgKSqtOa2IcHtnLZ/K0KvaW+opGjBggOS4IiIiGpIopedYY6EQoqlUvDy1BymiUVtp9Fa2vL6gi6ztr9T+fyTypDeJQPnelx/Dk+RncHLaAeYl9tU5b0FSRrJJlhkVlW+X0cgAwmtLTBA6OzsQAZKnd7oWtgEUlcqmVUxUjm/QV73ltX///rz1zaZyoa1wo+4emvQT1K1Qg9f4iv0bYOFvqyVFnLlF5cKPpsGQ9ZPVkV9pxwwRsbpI+7p5w/Gp+6DupJa8Nrn3rf54EbSu9aqGUHR3doMz/2/vPMCjqra+vyZ10gtJgBB6l94UEFGxICqIhSZWQJo0RZqgRKR3EAEVxIJ0xe7Fq15EBZTeReklEEpC+iSZmfPuPbwzTDkzc87UM8l/vw/f583ssvZvn8lz/llrr5VuKTT5uCU/raSlP39od2ncqXR2KvgcBEAABEAABEAg0AnYFV/VR7QWIiPDFLk/a1H5fL2uVC+uusHWrVu3rvv000/7ODLc3Fs59+AnlF2ca/clW2we85BXa8/j75O+pZGrX6c9Zsl5rOfgL6b8BdXY7N2x9BR8V0Slef1Od8u2QFTKO0kxUWn0Uk6YMCE6MzPTIstUo0aNwkaPHm2ImTaKyurJabRzyteiC5snxbEWcb4Wlcbvkr1EPfzz89cvUue5PeVBtNPbKCobTejAUnaJF7ed/tQk6t6qi13vI78bbWx5mgKbupXWS0NUeuToMAkIgAAIgAAIgICCCdgVlSl9G/9doWqspZtDIRuxFjkDGjxBNWNSDdYxr989zJPzq1RROe/gp5RVnCNJVIawpDwHp21jL5FaajbpboPXgif34J5K3rYzD0g884R4K4xVKn6xRD0jGjvU2TbJdbiXMtKsVqmj8i1idpl7fK/sv/LN9f+csLnwKnU/5a2fI1Fp7aU0sjF6K5ce2UAXCjKJ1ya111pPfJguZl02fezP8FcuGo9d/JcaVqlLtUa2p6ISjWhJEU/eNd7/9lYKCwmlPssG0YFzh00cYiNiiGebfbL1ozTj20X06R8bPPLoQVR6BCMmAQEQAAEQAAEQUDABu6Ky0uAWX7GXTUUKAUei8sCBAy8sXrzYkJXUXjP3VMoRldZJefj9qxnfLqTV2zfRjjdZWGtErN8FJd8zv8PG77KZtzHNnqf4MNFrpvTRP1/TvznnLPrzOqUhIUEWP9MUswRJRZYJksQY8/BhLiqNDaJS3m8Ad0TllD3vkUZXQmuGLaF7G7UXXVhpnkpep/K9AbOoc9O7DaVFvF2nkkNZ8PTb1LlJJ1E+EzdNo817vpd3aA56Q1R6DCUmAgEQAAEQAAEQUCgBu6IyunqFJ6r2qW+ZxUYhm7AWlfemtqH7q9xhss7RncpWrVqFDh061JQZROqdSn73kYesNpnY0bSOMfSVeywjwyOIh9QpoZWU6qigwLaGp9h9UXuhrY7utZXy+Qu5uLwlXPncXIiKNYhKeU+FI1E5bdq0h0+ePPmD+YzdunWr2L17d4Pr0Rj+Gs/u7R6btzVgRGVxaQltmfAZNa3WkJqyKAAtiwYwNv49e2ReHzp9zfIPH/Kout/b+EclsZkcRSdAVLrPHjOAAAiAAAiAAAgom4DDivdKzQArJoTMs7+ybKZDtmzZslwMvbmXkpfD3b7BAAAgAElEQVRgmLZvhUW3oCAVxcWqnZ5a/459aXSXoZTFkuvwO1bWL5Uv3NWH7q7fjn2eTaPXTnY6n6c7iDGSKirN71N6wi6ISnkUxUTlYzXupTv+vwbrmTNnBkyZMmUln5WVzHk2Li7uE/7fOSX5NGv/KtNiz3fsQTP7TLBY/K4pj9OJS2ctfubv8FfuqeSikrfVLy+m+xp3oHEbptA3+7bQ5pGfUP1KtRURASB2itHqKPpr8o/I/irvEUdvEAABEAABEACBMkbAoais9ertAi9ErrQmFt45qcVLFBFyy1O2b9++NUuWLOlrbvt7772XHxISEmX82dKjG+hiwRWb7UWxBEVcWDlqP47ZRGmJlQ1dmjLvpVZ/s0xDi+pN6LPBtnr2lTVv0JZDv/gMJa+4wu9BmjepotLT2TchKuUdu72SIhNa9KeY0FsJnqxnNc/8av5Z/WpVDf/zSu415mEuUVRJEe79MxeV3M6vxqyg22u1NG3h9vQHKb/YIjeRPKBOevMIhF/GbyZefkWn19Nd0x51mnzHfEqxMkHmn8NT6dHjwmQgAAIgAAIgAAIKJOBQVKYObSlI8dr5Y1/OvJXObLqkuUqfnf+aCS/bmpd8LM98G+5AWFrfr+RjHmh8Ny3qO51+OPgz806+aTJh3CMj6PkOvQx1Aq3razqz093PzffnTFR62kNptB2iUt4p2hOVfBZeOue2hFoWEx7K+pfWnviP3UXM/0igNFHp6zqVxrIgxsiCB5vcSwufnkoXsi9RqbaEwkPDKTW+Eg1cNZp+/2enBdO2tVtbZG2++Z2/h7q16AxPpbxHHL1BAARAAARAAATKGAGHojLxsbpHKzZMbqjEPYt5K4OZp2FSy5coLCjUoclH807S95e3mvrYu1fIs5/yLKhijYtK81p3cSxz5A5273L29+/QR7+tsxnC+3dgtSh5uKyvGxeyWh37xwrNR6gt2XCREca80aFWSXk8aSNEpTyajkSlvJlu9oaovEXNWFLEKCoPsWzOPxz8hcauTzd1Wtl/EbWp2dxwt9O84U6lK08fxoAACIAACIAACJQHAg5FZYXnmlVJSY26oFQQ9sQgr1nZt87DxEuAmLe80kKauf9Dio9T89IjFp/ZK5khJRSWT8RfOHk5hFaT7xPF9fHAJdR/xUhTmKxSmXrDLohKeVS5qAztVDU3NDTYJlRV3kzKF5UvdOhNYx8Zbsj6amzezP5qqlP5/1ED/Hv7xucz6PPd35rWf/7OXjTu0RGS73Ei/NWVpxJjQAAEQAAEQAAEyhIBh6KSbTS4/th2Wp68RolNq9VTXr6h5rvsFh8XwYSl5TBXPJbGGfiL5eCPXqNtx3fItqWsD4ColHfCXFQmda+Xy59PXhqGe+XdaUr2VPLvzbZjf1KvxUN8Iir5IkaPI48c+GX8l/Tnqb00aNWrpvWXPT+H7m7QHqLSnYcOY0EABEAABEAABMoVAadqseao2wW1WnnJeoynVFLCy1vYls+QcopiCWnsCcuoKJa8h3mO7DX+otpjST86cvG4w6WNhdf1gp5GrH6dfjn6mxRTA7oPRKW84+OiMvnxernmo3Lzikmn08ub6P97K11UWifqaVG3Pq0f+gHd8VZnww48XVKERykcnvabRbRCia7UcN85iH0WGhxK49az7LP7t1jw/mLEx1QzuZrFz4JZNASPiEBJEZceTQwCARAAARAAARAoIwScisqUJxtuq1A34S6l7pe/CPJkNK428VBYO8l7HNyx/O7VNeyFs7rDl8u/0n80vLCOXvMmdW3xoKH4ennwbkJUyns6xUSl6Y8orEYorxNqFJg8+RL/Y0cIuxNr73sQaKJy2YCp1L3Vw5RTmEvt3u7icVFpZBmjjqZXHxpCTaveZnFATy8fzEqc2EZAfPzSEuIlRMxbUamGXvxgOMsWe6uupvVpI/urvOcfvUEABEAABEAABAKPgFNRGd8u7fHKd1f7QolbKyoqJU2x/Zc5qTbL8VjaywrLyxEcnn7T63j4wjHq+e4Am+W5x6XdlC6UU3TTCTWq82AaeM+zksPspO5Haf0gKuWdiCNR6WimHPbHFS5grJvSRWVmzlVqPv6mV5K3v6Z9yzKwViTuBTS2R+b1odPXzskDqZDeEJUKOQiYAQIgAAIgAAIg4DUCTkUlX7nh+Pa2b6peM0naxPbCVKWNtu0lx2PpKHlP+uNj6R52H6vznJ5UzEoUmLcj03+nj39fb8gQa2z8Z3/8+6ehhEFZbRCV8k7WFVHp6H6xkkXlA43uoUXPTLMBZAwnPTj1VwoJDiFPikruoczT5Es+lG0Tv6GH5/WmfI1rtTIhKiWjRkcQAAEQAAEQAIEAJSBJVNYb01bgYXZKabl5Ghb+53mdK8tj6SAU1h6nIZ1eoOEPvGTjmeQhda6+sCrlTBzZAVEp75TkikoeCsvvXIo162daqXUqVw2ebzCfh7zO+mEhaczCT3mI6vz/LJMH0U7vyPAI2p3+k+FTR/cgzYevY/c7eYjs5j3f08RNtgLYmWEQlc4I4XMQAAEQAAEQAIFAJyBJVFYa1DwvISEyWimb9bSX0nxfcoRlNEvew8s+2Gs83PUFdt/qL5Zd0tj4z77e+wON3zhVKTi9bgdEpTzEckSlHEHJrRD77pg/82KldcS+E1J3JJa91ny+UlY7NT/f0qPvznpS7DrIalMOWDnK4nspZZwxayyvX6l1cIfSei6ISil00QcEQAAEQAAEQCCQCUgSlTE1Esan9W44QykbtX4xTolIpPDgMJfMu1R41aZ2pJw6lpEOPJZzeqfTI80esPCIzH/6bXqIJeiR6iVxaVMKGwRRKe9ApIpKqSGvxtXt/THGm6Iyv6DEkFjI3h9uuKiMC02gi9mZpi7eFpXyTsOy92aWAbZ+5Tq0adfX9OYXsyRNBVEpCRM6gQAIgAAIgAAIBDABSaKS709J9yqtX44HNHiCasakunQM8w5+SlnFOTZj5Xgs7d2xNCbvyS3Ko7ZTHjKscWDqVjp3/SJ1XdDXJXsDcRBEpbxTkyIqefg3DwMXa/HxrAar1Qf2BGVMdLghc6yxedJTyWvIcuFr3cy/W4eY15An5Kk8pGVAiEpuJM/yzLM9C+z/Gk3o4PRwISqdIkIHEAABEAABEACBACcgWVTWGNVGiFCHKmK7vhCVfKOeSt5jDJszwms9+X4qLClSBEtfGAFRKY+yM1HpKQ+ltaDkVjoLj5W6kwLmoSyx8lDysawMJPteRZimubt+exp874v00MxnfCoq29dtQyv6LbTZzvX8bHps4TOUVXDD6VY3DvuQGlWpTx/8+ikt+M9yu/0hKp2iRAcQAAEQAAEQAIEAJyBZVKYObSnExaoVsV1fiUq+WUcey58mrqMVv6yhdTu+NnBxFAp7W2o9igiLoD1nDiiCoS+NgKiUR9uRqHTkoZTjXRe7DyzmWeQJumJjwmVtwJ6HUsUUJf9DjXkrKdFSQWGpxc+8Hf66dcJXlBKbRN8f+IlWMEFYrL25fmJUPC3oO5WSohPp2feGSvqu8lBYHhLL61S2ZzU1C4oLbVhBVMp6fNAZBEAABEAABEAgAAlIFpWV+jfvkZAcuUEJe5QiKn/++eeH1qxZs8Xc3hkzZhxNSUlpaP4ze+Gv5n24Z4V7WMxbYYGOzizeSe0nP0anr5w3feQseY8S+PnaBohKecTtiUpPJOXhlnCRaJ3NmWeP5fNbN7G+jnYjdoeS97f2UPKfCaym5g1WW9O8RasjDZ7MEib0SnWWYlMeRfHeCZFx9Mcb31Pj1+9iNT1t98tHffvKGqqVUl3Wvec/Jn1HCUyU/vr3dhry8RiLxXmyouOzd0j+XeuJfWIOEAABEAABEAABEPAlAVkvOvXHthOCgmQN8cpenInKhQsXtj506NAescXfeuutM2lpadWNn0kRlbyvtbD8ZfwXVCmuosVdMOOcjjyWXgGi8EkhKuUdkJio9FTIq1QPJbeY37XkIbJSm31BaeuhFJjQupF7U1D2ateNFj6XLrrMqt/W0pzvl0g1wWk/o6h0lChr3CMj6PkOvWSJSr5wm1ot6OOXltCfJ/fQiytGmGzhYv2fOTv9/4vTKR10AAEQAAEQAAEQAAHXCMh60ak6qEVOdEJErGtLeW6UM1HZv39/R/tSrVy50uSikCoqufXGsLzo8Cj6K/1HuuOtznTu8lXRjdlL3uM5CoEzE0SlvLOyFpWeCnkVu0NpL1TV/HmXYr39kFfLO5R8LnMP5fjHXqaRD/WnYxf/pUdmP0/qyJtfXXVoOD3WsgtN7j6Gstn9xjunPiLFDEl9+B1nrV5LTSfebdP/hbv60NiHh9GH29bQ3B/elTSfdSeeoMvcCwpR6RJGDAIBEAABEAABEAggArJEZWyb1ClV7qvxhr/350hUsntb9/Tr1+9XRzYyUSkYP5cjKvkYfifs2MzthkQ7POEObzyEj78oP3fXk5QcW4Hmffe+4eeRkWEUHma/jqW/OfpqfYhKeaS5qEzqXi+Xh4x6zEPJPI6hZlleuUX2hGAQWzjO6u6jox3YT8oj4qG0Cnm9tGwvfbJtE41bO100MRZfl4vANukPiN5XlEf2Vu+vRn5KdSvVEh3+/tZPaOGW91yd2mZcYVEJnV20W9bvWo8tjolAAARAAARAAARAwAcEZL/oKKG0iD9FJT8T/iL82KJn6d/LpwxHNPDe52nUgwMN/z1pw2xa+b91pqODsCSCqJT3TeaiMuTeqrk8/FSsJAefTeyer72yIdFRTFCG3iob4khQ8s/kJMqRk5RH7A4l/y69tnoqfXf4B5t7y0ZqXFR2nN6NruVdlwdSQu/U+EpUJaGSoeeFrEt0KedWvUzr4U3SGtL6l1eIzuoonLYgR3P93LK9SRLMQRcQAAEQAAEQAAEQCEgCskVltRGtBR7a6c/mSFTu3r37y2XLlj3uyD53PJV/Tf2WkmISqeWbnahby4doVs83DUt9uG0tTVo3h3ksbVcuz6GwPEnJtYNXv7n+nxPd/PnMBNLaRlFpz2Y5WV7FQl7tJeURy87qiJu7SXn43CO79Kfx3V6mbcd30Jufz6QredcMS0aEqem+2zrS7F6TDWKSi0p/Ny5ud5zYTf1XjpRlSlZm/pXMVQcryhqEziAAAiAAAiAAAiAQQARki8r4jtU2VW6f9qQ/9+jOnco77rij1cCBA3cb7ZcT/lohOoEOz/mZ3v95NQ2872ZdvQVbltMHWz814eC23df4ZkH0nw//7k9MillbX6g9ExQV+p1iDFK4IYJWH6YKVr0kZqYcQSmWlCc/v5hKtbZZT8WyszrCJCcpD//DQs7/J+WxnpN7XDvddhe9+9xM0eU2/PUVpW+e7bUTW/b8HHrryzl0OeeK0zW4qOy99CU6eP6o077mHbJvaA5fXr63iaxB6AwCIAACIAACIAACAURAtqiMqplSsVqvOpf9uUdnopLbJpasJzEx8bY5c+YcMbddjqjMWLaHVOz/eJv9zVJa8P0Ki1DB11iCj34s0Yd5M/bzJy+sXTYIyBGUcjyUnI5nQl7FkvLwO8dFogcgtqbh+8W/YszjL/D/x4utUZX6tHHYh6YVNKXFhggEe42LSm5Towk3/2gktUFUSiWFfiAAAiAAAiAAAoFKQLao5ButOep2Qa0O8duepYhKbtz+/fu/a968+bf8vzMyMl5PTU2tam300n/X0sUb0u5qHZ37P0NSkZlfW2aFNCbv4XPP/HYxffLHesOLdN87n6A5fSeJlh3xGzwsHJAE5AhKOWVDfJmUxxy82J1QXx+MUVTy+5CDO71AIx645Rz+4eBPNHrtZAuTuKi01xzdqTy/9tjL+Wezl/p6f1gPBEAABEAABEAABHxFwCVRmdK30fcVqsZ18ZWR1utIFZVS7FtxZgNdK8oxZMJ0tX037hNqWaMxK1HQkZUq0Jmm4XbufPtr4mGzdV+5y9XpMa6cE5CVlEdGlleO1TMeSudZXu0Jyoea3kfz+0xxWBOSi7kHZj9JF7M9GyBhLiqN9oUEh1AXZhO/K92BlTHJYuVM3G0XPj2UlHfRC1mG3DUM40EABEAABEAABEDAQwRcEpURiRFVawxscc5DNsiextOi8kZpHpWU6oiXRpDbIsMi6OSiPwzeSO6x5MlOzNuYLsOoS7P76M4pXeVOjf4gwErS2EYE2MvyKifkVW5SHvtlQ9wLeeWC8Zv9P9K49W/ZPW3e55F5fej0Nc/8ymlZo6lhrZpJ1ejtJyfQM+8NMfxvvV5P+88dlv3UNavaiA6ct4iqt5iDlSBy6fesbEMwAARAAARAAARAAAT8RMDll53qI9sIkRGhfjHbG6KSb8RRTUB7G327xxga0KmPKcRVjufHL/CwaEATsF82JIyVDbGsiWovKQ8HIOc5lVM2xFlSHqu/uRhqULZ4414q1t76g05ybBK92nkwTdg41XBWnhSVUeGRtCv9v6LPgF7QU+PX5UcUcPschb9CVAb0Vw7GgwAIgAAIgAAISCDgsqisNLC5JiExMlzCGh7vYu/FWupCQUGsuHusWrR7qVZH+fnSPZYrB86lh1t0srg3KeeFXarN6AcC9p77WBbyGsxqWpo3e2VD5ApK/l3g3wnrJpYtVqwOpXGcve+EmKic/tRE6t7qYcrMuUr3zuzuUVFpvo+GqfXo8+GrHApC8/6O7lQa+90ozKX2b9+6GVBcoqVT8/9y+fcsnnoQAAEQAAEQAAEQCAQC7rzsqBqMa6e3Dvf0xaZ5EhyxepBy1nYkLOWEwt7dsB2tG/GuTTKe2Bg1BQffxBvK7ml99+paSktMNZn49lfzaO3OL+SYjL7lmIAcD6Ucz6IjpPZDXl2/Q2m9Hhdqf57cQy+uGGH6iAu9+pXrUJDqllD2ZPirpx8jo6eS19V859kZFiKVn8WFJXvc+T3raXMxHwiAAAiAAAiAAAh4nIBbLzvVhrcWoqLCPG6UlAnd9VbyNRwJSzmhsJeW7TXcx7p/Wm86lnHCwvzaFavT7+mbDT9rMvZ+Ki4toXnPvEFdWz1Az747kn46/JuU7aIPCNgQELtDaU9Q8sFyPOj2hanYHUqBZTvWiJ6QszU7NexAS56bRfmaAsP4oKAg4veUb09/kIpKNXRo2jbDzwNBVHI7rUNhrx67euTaV/82xuMLAiAAAiAAAiAAAmWZgFuiMuWZJn0rpMWs9gcg7qm0V/9Ojj2e8liuG7GU7m7Ylq7mXqem4x4wmBATEU3/zN9GW49upz7vDLMw670BM6lbqwdRbkTOYaGviUC0jCyvnisbIk9QyikbsvS52aa9jd/4NuUW5Zn+N/9s6CdjA/L0M3ddnpL18ynL2iQBuRMYDQIgAAIgAAIgAAL2CbglKvm09ce2E7gwC4Rm756ZpzyW1gy4B/NC1iVqM/ERGzyJ0fF0ZM4vEJWB8OBItDE2hl0xts5E42CsTqungkLp93eNU8mpQ8nHOPMWmpsoJ3TW0R1KOYJSIl5FdKtWoQpN7PoqjWXZanOKcp3alHEos3XOdyy+Fw0EQAAEQAAEQAAEyjABt9VgxQHNTiUmRdUMFEY5LExPL3Ih02HyHlZuJN+FciNcVPJSI2hln4Ac4WZNQ04ot5ykPGLJdBydBH/GS9mzbt08lZTH3trhoWGGsHCltwldR9Gz7XsYQnWj1VF0x1ud6YnWj9K4R4aLJvvhmXDPrfknrejC9YtK3xvsAwEQAAEQAAEQAAF3CLgtKvniDce3Z8GogdPy8opJq9PbGOxpYQlRGTjPhDuWuiMo+bo6nUC5eeJ3Es3tEvNQ2isbIrcOpX1B6bmkPGKMeXkPXubDUUkOd87Gk2P5fcmXPxlH/zv2Oy19fjbdVa8tNZnY0eYepXFNLtBPzPvTI79jPbkPzAUCIAACIAACIAACnibgkRcef9asdBUITyzCw/esmydDYbmobDSmE2Xl33DVTIzzIoGokAh6vUV/0RV4zcI3di91urq7gtK4gLM7wqJJeez8cYTPKccuXyXlEYP57J09acKjIwNGVPZe+hIdPH+U3n5yAnVv2cWhqOTZc8+9s9sjv2OdPojoAAIgAAIgAAIgAAJ+JOCRF54KD9aelNKy4tt+3IdLS7tyx5KXGxELERQz4ODMXyguIoZavP4gZRVku2QjBnmPwORmQxxOvuXidtp57YChT0mJbViomHCTGsoawupKcqFo3uyXDQmn0FDLOpT2hKDnkvJ410PpvVP13szcUzn9m4W06/Q+evm+/tTptg40+YtZBoEp5mm9di5n99U1R9p4zyLMDAIgAAIgAAIgAALKIOARUcm2Elx3TFttSLDli68ytujYCh52yMMPrZsjj6XUfQUHBdMfk76nWJYFlrdACPGTurey0O+1uuJeSuPejuedom8u/8+0VWvRZy0qpQpK44ShTFjyLK7GJjY+Okq6oOTzeMZDCUEp9nxzUSnW5v9nGa341TYJdua2C4Oytp97vyx8V7AHEAABEAABEAABEHBEwFOiklKebXy2QpXYaoGIOyeXJe9hSTW8ISwDkUd5sZmLyrAw2zqr/D4iD40+dP1vC1HJuZgLP3MBJ6euqTlf8zmsRaVYyKs977rcO5Q8NJN73a2beFIe++V75IhYe0KtxRv3UrHWMlHP7rd+osKSIuo4rWvAPo7HZm732O/XgIUAw0EABEAABEAABMoFAY+99MRVi6uV+nSjk4FKzZVQ2EDdK+y+SYCLyn79+oni0Ol09PqSyTai0lxYelNUykvKY1s/0tEZ5+ezLK9aMUHpew8l9/6JicoQ5uU/OG0bLf/lI1r83w8C7pFFkp6AOzIYDAIgAAIgAAIg4AYBj4lKbkPV4a0F/jIcqO1GThHzUNla74lQ2EBlUpbtdlVUGoWlt0Ql91DWrFiV6qTUNGQa5c3eHz34Z3K8hfYFpa0wdZQ8SM6ajp4hLirf/98npNPbitzm1RtTuzptDPUg203pElCPIk8ExhJ1efT3a0ABgLEgAAIgAAIgAALlioBHX3riGldunfpozV2BTNDRy7t1spRA3idsJxrXuB+1Cn7ZgCImpT0Fh8VScf5ZKrpxjIqKiZZcfZ6Oaf4VRdW1cieqH21ZnnXR4TV0pSjL1H9am2EWY7OKc2jewU9NP3uz5UDqtqgrVTlSxfSzR57rS6dTz9DIBwdSsCqI5m9ZTvazs9p6Fh2dq/2QV997KI122runaL4PHhrLvZn+bo5stb4vfe1U9p6rG4619rfNWB8EQAAEQAAEQAAEfEHAo6KSG1xz1O2CWh3iC9u9toa9O5ZeWxAT+4UAz5T6eau9omtrmKjsc6iF4TMxr5xYkp8Np36kA9f/MYxpX7E5PVKtg83cE3ctMf3s303bKPrazSRO5u228XeaROVbny8ifl9TrMnxFvqzbIijw7UX/uqXB8LJoryeZmhwqEWvtMTKtOHllTZJuPKu5lS4sPLIrb8wKHFDsAkEQAAEQAAEQAAEPETA46Ky4rONRyRWiV3kIfv8Nk0uS96jE0ne4zeDsLBXCGxuvU90XnNRyTtYCzh3RWWYLpTOfvCn6NrXoq7T5998S6UlAk37crFNH+8m5RGIh266K2KlHlYgiUp7e+J7MPdU8mzS/2zeoaYTxP40gQYCIAACIAACIAACZZ+Ax0UlR1b3tbYCr8MX6K2gkGXIFKlPGOj7gv1Ex+dvo5feH0OvRC8XF5UsGWnMQwfpnf98SFsO/mroYy4suaisWrUqVat2M+ExzxY7anW6hafy2ebdqGHDhqb5//jjDzJ6KisWJNP+T7eIrl0QVkgffbueBL1KVFR6xkPpv5BX801XiE6k6/mB69C7v9HdtPiZ6RaisrCwlM4u3uWV36347oIACIAACIAACICAEgl45cUn9s601VXuqtZXiRt2xSZ+z1Kv14sm8XFlPozxPwEuKl/5JJ1eCplnV1Smdj9J67Z/Tct++sTUxyjouKisXLkypaammj4bt3GGhah8uskjVKdOHdPne/bsMYlK/sNLy8VDb8/Enaev1v5IvM6puadSrNyHI5L5rGwIz0Jq3XxdNsT/p+0ZC+zdqfz9nz9p4KpXTYtcPXbtp2tf/fOAZ1bFLCAAAiAAAiAAAiCgfAJeEZV82/XGtBWCgwPfW6n8I4SFUgmYe55dFZV8LS4suag8efKk4Z+x3WD60fxO5e0R9WnfvlvhtQ8++KCFqNz3y/dU6Z9KNuZXHtySxnd72UJUei7kVRkeSvNNp8ZXouk9Jlpw2HVqH329bwudz7oo9XgV0+/8+qN355++sU0xBsEQEAABEAABEAABEPAyAa+JygoP1f4ypXnFx7xsP6YHAckEzLOfPtDkLvrlyHba1HK36HgNC3+dnfsMHT5/nEp1Wps+PLNrcXGx4R8PfeX/fsz6y0JUdk5tS4WFhabP4+PjLUTlWy0GU9v1banpL01N8zcf/iBlll6zEZWeCXkVKxvi2zuU1iAfb/UwTXvKUlCa98nT5NMdb3WWfMb+7qhn97CPz97htd+r/t4f1gcBEAABEAABEAABMQJeffmBtxIPnZIIZN8osjHHXqKeYiYqex+8mf1VrHFRmZycbPjHGxeVb323yEJU9m7UxXDvkn/G27FjxyxE5eJOEwyfG8fzzxce+oyuarItRKUcQanEsiGOngEeUrrhr68offNsU7ePX1pCLWs0pbumdaXfJ31LmtJiaj35fiU9SnZtyckqzMt4f39sQBgLI0EABEAABEAABEDAQwS8KiorvtDkQGKlmFtuGA8ZjWlAQC4B7kHipWLM2+3JjWlC9Vt1I80/46LyhSNtSaO7lcDz5KI/qPbIOw3duKhs0qSJ4R8XjTqdjp6aOcBCVA5s14vuvvtuk6hcu3athaj8qPsMm8/dEZVy6llym+1leY2PiyB+79IXTSz763TmuezOPJjGjKq8T6eZj9PlnCu+MMmtNc5/fWJK/tErk92aBINBAARAAARAAGsIFXcAACAASURBVARAIMAIeP3VscG4dgK/D4YGAv4moCm2DGOd1HgQdaj2LdW7/wsL0wqzDtLhLT1o7cUnad3J/5g+u7RsL1Ue0pJ0n18wCUW5ezJ6LR2OUwfTGx9MN92plOKptO+hFAt5JSYobb223CYpa8nds6P+XDCu27mZpnw119Tto5feoVY1mlGTiR0NP+N9HpnXh05fO+fJpb0y17GZ2/HLzitkMSkIgAAIgAAIgICSCXj9BSipV8MzyTUTqisZAmwrnwR4sp1+/fqJbp57Hl9b8IZdUdm+fXuDsHT0B5ObGYMFCgoKctjP3IDc3Fw6cPwQvblipmRRaT/Lq/KS8ljDfqpNN5ryxDg6wwRjbmEeRYRHUN2KteieGY/RldxrJlHZ4o17qVjL3McKbjwR1LnFu73+O1XBCGAaCIAACIAACIBAOSXg/Reg1NTIun2rFYQgE2w5fcSUu213RaU3dmYtKmd+8w7FxqjtLpWfX0ylWr3N54FUNiQkOIQOTr1ZC5Q37qHU6W1LoXiDtyfnzNx9aUPWT6d7eXJOzAUCIAACIAACIAACgUDA+6KSUUh+utHXSdXiugYCENhYfghwUemoHco64dBT6QlS3NN5R4ub14537j1A1qJy0U/vUWiIeGmeQEvK4wleSp4jY8vpNjn7LomnE1ay4bANBEAABEAABEAABNwk4BNRyW2s9xqrW2nn5djNPWA4CLhEQAmikhvetmUzOp9xmS5ezrQRlUu3fiC6N/tJeeSVDfFlUh6XDilABhWz+7qnFvzls9+nAYIFZoIACIAACIAACJQTAj57CYqpntgvrU+DleWEK7apMAI6lv011yr768CGT1L16Mp2LV12dCNdKMg0fW6eqIffqbRuYaGhVFJaavgx/29+p5LfpzT+zPjzUq2WeR9DWNiq1iLhD79/mZeXR/v/PkiTV86iqIgwmr9luc06gZqUR2GPhEfNycrM35m56mA7j06KyUAABEAABEAABEAgQAj4TFRyHjVGtREi1KEBggZmljUCYnUqO1ZuSbXiU222uuPSYTp+44zFz52Jygi1mjTFxRQSHEwx0VGshEkeqcPDKTw8jLJu5JjmSq2Ywu5JRtHfJ07brMvDX7monL56HoUwQWotKvPzS5gYtb1vyMNo4+Ms714qpWxIWXuOxPaTsexIYk5OTnZ52Cv2CAIgAAIgAAIgAALWBHwqKmPvTOtS5a5q3+MYQMAfBHLzNKyepGCztFgZDTEB6kxUcmFnLBkSzARhhYR4JjJLKDc/35T9tXJKMsUywXn81BmKUIdTYZFl7UyjqHxr1WyWCTXUQlTazfLKdhQfH2GxL+b0VEzZEH+ctS/XRNZXX9LGWiAAAiAAAiAAAkok4FNRyQFUGdIiPzYuIkqJMGBT2ScgJhY9JSo9QY+Lyn3MU5nOwl8j1GG08Meb4a9IyuMJut6ZI2PHxWU5v54d6p3ZMSsIgAAIgAAIgAAIKJ+Az0UlQxLWcHz7YuWjgYVlkYBYSKjiROWxA5T+4WxDncpF/11ORRot87BKLRsiMA+lpffTeI5i+yyLZ+zLPenZXd3jq89GUUZGoS/XxVogAAIgAAIgAAIgoCQC/hCVVOnFpucTKkanKQkEbClfBMxDSe2JSl7rMSQkmEpLb95hdBb+6gmCBk+lmaic9uVi0WnF61DaF5TI8uqJ07GdIze7SHPxvX2WscfeWQqzggAIgAAIgAAIgIBiCfhFVFJaWkTdPmmFIcHi9fcUSwuGlUsCPDEOT5Djjqg0v2/pCKIUUYmkPMp5DC8fzhyb/e3JOcqxCJaAAAiAAAiAAAiAgO8J+EdUsn0m9230TVLVuEd9v2WsCALyCIiJyubNm8ubRGLvwsJCOnziGPFEPTz8VcxTae1ZRVIeiXA93I2HUv89a4fffod6eDuYDgRAAARAAARAAARcJuDXF6K0Ya2EmOhwl43HQBDwBQFrUan9NZNqRlehmJgYwz/euMA4cPoI5ZfeulrHa1QGBd36immtSoE0SqlLCQkJpi1kZGTQ+YLLJNSOoglDXrMRlfBQ+uK0pa+RlV1UmvnevjDpI9ATBEAABEAABEAABMomAb+KysQ7EmMr3tvgVgG/sskYuwpwAkZRGa2OonxNgWE309oMo6pVq7JI7jRTuZBRq9PpwPV/TLuNigylsLAQ0/+2zjy7rPObVL9+fdP47du308JDn9FVTbZBUHIRqdVpDePF71CibIg/H61jM7f79fenP/eOtUEABEAABEAABEDAnIDfX4qSezT4I6l2YnscCwgolYBRVJrbx0VldHS0wVPJxR9vC3//SJaonNthNCUmJv6/aFSxBKIZ9OHZTZRV4vzvLGJZbI32ISmP95+kvPxiurBkj99/f3p/p1gBBEAABEAABEAABJwTUMRLUZ3RbYXQUCTtcX5c6OEPAvZE5dmzZ4n/440Ly0tVimSJyldq9qajR4+attSxY0dJohKC0h9PgeWal3873zH7j/O/+d8SWAACIAACIAACIAAC/iegCFEZlRDVtNqgZgf8jwMWgIAtAXui8sKFC3T+/HnTgPMV82SJytG1n6bjx4+bxrdr186pqERSHv8/oRpNqf70wl3B/rcEFoAACIAACIAACICAMggoQlRyFCl9G1+oUDW2ijKwwAoQuEXAnqisWbMm8X+86XQ6ennVRFmi8r0u6dS0aVPDeL1eT1u3bqX3T26g68U3RPHrdAIVaUpFP0PIq++e2CsHMhdd/+HkKN+tiJVAAARAAARAAARAQNkEFCMqOaa6r7UVQkIQBqvsR6b8WWdPVKakpBD/ZxSF6d8ulCUqF3eaQNWrVzcBPXz4sClRjxzK1iVG5IxFX3kEdDo9/TNnp6J+b8rbAXqDAAiAAAiAAAiAgOcJKOrlKKZ1ar+0+2us9Pw2MSMIuE7Anqi0nnHDqR9liUqe7Me6GbO/SrUWHkqppDzT7/LujC3ZP515yDOzYRYQAAEQAAEQAAEQKBsEFCUqOdLKQ1oK8XHqskEXuygTBJQqKvn3xJh5tkyAVvgmtFo9/fu/nWG0h8RjkBVuP8wDARAAARAAARAAAW8RUJyoZBsNq/XK7cXh4bfq+3lr85gXBKQQ0OsFysnVWHSNDYumgQ2eNP1MJ+howaHVFn2c1ansVKMVtYlvYhqTo82j5Yc/d2pSSHAQK2US7rQfOniWwPXzOX9c+exIB8/OitlAAARAAARAAARAIPAJKFFUUnyX2m9UblZxSuDjxQ7KCoHsG0Wyt+JMVIrdhbReJ5gJyFgISNnsvTHg2Mztivx96Y29Yk4QAAEQAAEQAAEQkENAsS9JFV9qnpNYITJWzmbQFwS8RUBTrKWiInlRj9ai0VowShGVUVFhFBaK6hXeOlep82ZnFRZdfn9/pNT+6AcCIAACIAACIAAC5YmAYkUlP4Qao9oIEerQ8nQe2KuCCUj1VqrYt4on0DFvAisweSPHMoQWolLBh21mGg9/Pj57B09LLQSGxbASBEAABEAABEAABHxLQNGiMqJKYlq1vvXPBwUp2kzfnhhW8wuBXHanUsfEhZQmRSzyeaT0g6dSCnHv9rl2ImvV1U1/9/PuKpgdBEAABEAABEAABAKXgOLVWsztqWPTOtWYFbiIYXlZICDmpaweXZnapjS12N6p4rN0ouCs4WdvPzmBWlRrTHo9UWFJEXWe0dfw89sSalGThLoUFnYrrPXvvFOGcdbrQFT69+kxZHydi7qU/j0FrA4CIAACIAACIKB0AooXlRxg0pP1/0muW6Gu0mHCvrJLwFrsPVqtI7WreEtQPv3004bN/3dpAsvMGkM3SvNYuQ9igtLSuxkTyq7l6QS684UMQzmQNWvWmKBlaK7Qu4c2WECEqPTvM5W5/cKirG3nRvnXCqwOAiAAAiAAAiAAAsomEBCikiOsObKNVh2BjCXKfpzKrnU8UY95m9R4kMX/7tfvZnTkuV0TKOPgTIcgVMHhdMcLN+9XfvjhhxZ9J+5aAlGpkMeokCVmOrtoV8D8jlQINpgBAiAAAiAAAiBQDgkEzAtTXFxcQuqQRlnl8IywZQUSeK1uf1FRWXTjKB34vJFDi1Pqv0S1OrwPUanAczU36eqxa69e++qfBQo3E+aBAAiAAAiAAAiAgN8JBIyo5KRiayU9UqVnvW/9Tg0GlHsC9kSlriSHdn0aD1EZ4E9IQWEJnVu8O6B+PwY4cpgPAiAAAiAAAiAQwAQC7qWp8oBmx+KTohoEMHOYXgYIQFSWgUN0sIUz7++rWpRVdKFs7xK7AwEQAAEQAAEQAAHPEAg4Ucm3nTq0pRAXq/YMAcwCAi4QsCcqpdypjKl0FzV6ZJthVdypdAG+l4dkHrlyKOubE5Zpfb28JqYHARAAARAAARAAgUAmEJCikgOv+crtgjo8JJDZw/YAImCd/XVggyepekxl0w6MiXp2rpT2lWrb/2ZWWHNRqdXraPKeZRZUkP3Vtw9JMUvIdGrBX9IO0bemYTUQAAEQAAEQAAEQUCyBgH15Sn60Yd2E2+L/CQ4K2C0o9qGAYbYExOpUTmszTBTVmhM/0JHskxQVHkkdGtxu6HM84ySduXqeYsOiaFyzF0XHTd33ARVpiy0+S4iPwHH4kMDlvzKGZP9yZrkPl8RSIAACIAACIAACIBDwBAJakUXXTHyqaq8GGwP+FLABxRO4kVNEgmXJSYPN1qKvSFNKGs3N8iP/Gb+aGqXVM/z3aSYoO771pOx9QlTKRubygKzsQm3me/tDXZ4AA0EABEAABEAABECgnBIIaFHJzyz+zmqLK9+VNrycnh+27UMCYt5KR6LSXdPi49SkUgX8V9RdDD4Zr9ML9M/sHYDtE9pYBARAAARAAARAoKwRKBMvUck9b/srqVZ8m7J2ONiPsgiUlOqooKDEwihvicrIiFAKx51hnz0A1//NXnbl82NDfbYgFgIBEAABEAABEACBMkSgTIhKfh6pQ1oWxsWpcQGtDD2cSt2KeSisI1EZwYShMZlUcYmOClntQyktNkZNwcFl5qspZct+7ZOXp9FeeHcvwl79egpYHARAAARAAARAIJAJlKk312ojWgtRkWGBfB6wPUAI8PuVer2eib8gC4sF9gH/LMhOAik9C7PU6fQ2u+T9g4KCWLhrgAAoI2by87jywd/x2dnZOWVkS9gGCIAACIAACIAACPicQJl7ha05qo1OrQ61fNP3OVYsCAIgEAgELm278NyN7ec+DQRbYSMIgAAIgAAIgAAIKJVAmROVUVFRFSsNbnw5LDRYqcxhFwiAgAII5F4tzLi4cn8VBZgCE0AABEAABEAABEAgoAmUOVHJTyOhY1qTlLZVD9oLQQzoE4PxIAACbhPQavX079ydIWwinduTYQIQAAEQAAEQAAEQKOcEyqSo5Gcae2faw6kdqn6Hkgzl/AnH9kHAigC/83r+o2NNCzKzDwEOCIAACIAACIAACICA+wTKrKjkaKI6VGmW1r7afngs3X9QMAMIlBUC109m/3ll47G2ZWU/2AcIgAAIgAAIgAAI+JtAmRaVHG50xyqdqrav/rO/QWN9EAAB/xPIydXoM5buxYVr/x8FLAABEAABEAABEChDBMq8qISwLENPK7YCAm4QKCnV0eXlhysVFBRkujENhoIACIAACIAACIAACFgRKBeiku85vn2V5pU7Vt+HJwAEQKB8Esj442KrnN/O7i2fu8euQQAEQAAEQAAEQMB7BMqNqOQIY9tU7lvlvpqrvYcTM4MACCiRwLW/ry+9+uXxl5VoG2wCARAAARAAARAAgUAnUK5EJT+sCp1qDk+5vfLiQD842A8CICCNwI0cDV1atrfc/a6TRge9QAAEQAAEQAAEQMB9AuXyRSvpiQaTK9RJSEdWWPcfIMwAAkomkJdTVHxh2T61km2EbSAAAiAAAiAAAiAQ6ATKpag0eCwfrjM+qXHyDAjLQH+EpdvPE7WUsn+86XR608Dg4CDDf4eGBlMY+4dWNggUaUqpaO256MzMzIKysSPsAgRAAARAAARAAASUSaDcikp+HLF3Vmlb+c5qOyAslflwumsVFxUajdblaaIiwyg0LJjK9ZfEZXr+HSiw5f+euR1H599jwOogAAIgAAIgAALlhEC5f+mKTIqsnPp8kwzupUILfALcE5lfUOLRjahUKoqKCqXQEDwjHgXrpcn0gkBX92f2y9pyapWXlsC0IAACIAACIAACIAACZgTKvag0sEhLi6jVI7UwPDwED0eAEuDhrLl5xV63Pi5WTfBsex2zWwtk7Mp4P+fnM4PcmgSDQQAEQAAEQAAEQAAEJBOAqDRDVXNUG51aHXrzgh1aQBDQ6wXKydX43FaIS58jl7Rgxu6MZTk/nRkqqTM6gQAIgAAIgAAIgAAIeIQARKUVxpS+jc5XqBqX5hG6mMSrBApYmCtPvuOsNYyvRXdWakbVoitTsMrx3wxO512kH87/QRcLrjibltTMsx0REeq0Hzr4hkDW5bztmR8dutM3q2EVEAABEAABEAABEAABIwGISpFnIeW5xvsqpMY2x2OiXALZN4ocGhcTGkXjm7/o9gZm7P+Q8ksL7c7D71vGx6Fihdug3Zwg61phRuaK/VXcnAbDQQAEQAAEQAAEQAAEXCAAUWkHWqV+TefGJ0ePZpoBTUEEBJaEhRezt9eaVahHPWs96HGLFx76jK5qsu3OmxAf4fE1MaE0AtmX8q5e/vhQirTe6AUCIAACIAACIAACIOBpApBMDohG10vqXfWJems9DR3zuU7AkYdySuuhTsNbXV+Z1bYUdPTm7mUQlu5A9PDYrCv5BZkfHoz28LSYDgRAAARAAARAAARAQAYBiEonsKLSEpomP1XnQIQad+dkPFde6WpPULZIakBP1bzfK2uKTfr+sc/pbP4l0fXgsfTZMRgSNGUs3YvfYb5DjpVAAARAAARAAARAQJQAXsikPRhhqQNb5MUlRoRJ645eniZgT1C+0uQZSlLHe3o5p/PtzDxE35z7FcLSKSnvdMi+nJd1+aNDFbwzO2YFARAAARAAARAAARCQQwCiUgathIdrfVOxaaVHAU0GNA905R4pXjrEuo1s/DSlRCR6YAXXpsgovELvHtlgMzg0NJiio/D3B9eoOh+VlZmfmbnqYCXnPdEDBEAABEAABEAABEDAFwSgj2RSjrkjtUPq3dV/CwoCOpnoXOpeXKKjwsISm7FDb+tJVaL8n5vl35xz9NE/X9vYxzPC8sywaJ4lkH05/7fLHx3s6NlZMRsIgAAIgAAIgAAIgIA7BPDW6yK9GiPb6FmNQvBzkZ/UYWJhr33rdKHbEmpLncKmn541/sOgoCAdyybLC1cy/eekgKWD1Taf+R/tvnrEpgfuV7p8RKIDs66zsiEfoGyIZ6liNhAAARAAARAAARBwnwBEkRsMk59q+FtSnYQObkyBoQ4I5BeUUGmpzqJHsjqBRjXpK5tbdnb2Z3PmzBmUmZlZ4GCwasqUKT9UqVKls9wFJu5aYjNEHR5C7A8PcqdCfysCrIoMXT50edGN70+NAhwQAAEQAAEQAAEQAAHlEYCodPNMYu+r3rdSq9TVwQiHdZOk7XAxL+W0NsNkrbNv3770JUuWvCVrEOs8ZMiQza1bt+4udZxe0NMbu5fadIe3UipB+/0u/ffs6Bt7Ls53fybMAAIgAAIgAAIgAAIg4A0CEJUeolp1eCshOircQ7Nhmtw8Del0lsl5etV6kJpWqCcJTlFRUcGwYcPcrl+4cuVK2wxBdiz4/PRPtPfa3xafqtXMW4lyNJLOzLqTVqunKz+feyBnX8ZPLk2AQSAAAiAAAiBQDgn0mC28J3fbG8eqBhnHyB0fFEQH1r+msv3Lulwj7PTvNVuozf52P4xdWIp0NqUqlDZueEUl+t4gd1/GtQQVZQcJdCAkiLavGU3n2KUpye+G9uztkS6EBcXQY3odOa2Jx+5pZZWoaMHmMaor1vP1niHU0AXTBGdcTHshYtshDQl0lULoBGlpvzqILnw6RuUokk/S9BCVkjBJ61SpX9PdCSnRraT1Ri9HBMS8lFNbv2wa4igJTklJyUXmaUzzEOGg2bNnX6pQoYKkrEBiYbDwVso/iSJNKWXvzqyd8/u5U/JHYwQIgAAIgAAIlF8CrognJYpKto/mLOfhYHYNRrZeCQ6mqetGq86bPwWucBF7iphNmUJ1mrqxp8o2k6SEx67HHGEiE3XVJHS16MI4ZG4ap3rT/IdyRaWjNVnQ5d71Y1Sy/yBhnFP2IckFUO7696DgmlVu13IPFZprBDTFWioqKrUY3Lt2Z2qcUMdmQmtxqWVt0KBBHr/IyDyWPLmP0+/L/zJ20U8X/7SwMz4ugv1RyzUW5XFUbo6m8OKyvVHlce/YMwiAAAiAAAh4isALqwR1/lWay15BbN6LmOctv2ERjUlPVxmSF4q1J+cKDYIFGmVH1B1lQnSRp2y1nuepmcJilkLRIgSQeexONyyk2dY2M0/mcLaJxja21KChTPhZJudgnTiXgms0hwk7y/pvKirZOEY13DhPj3eFaOa/a8b+d3fmmoy1mb+EVm6cpPpLKoOu6UKkOpIWmPdn85aG6GjlugmqfeY/7zFfSCQdTWU2Bpv/nL1PajeMUd3ysph92GuOMIxV4Gti+7JMX7PzNrxYs/VCSE+JehXjpaJosWeD/Xwm43Ba6r6M/fCqK5eYxP5JvRrsT66ZyB9ENJkEbuQUEU/OYt7MvZT2puMCs3///l57pqWEwgrs6zpp17sWJvLyM3GxapkUymf3zH+v/5H1+XEkvyqfx49dgwAIgAAIeIGAtYeOvS4JTJgMlrLUMwuEysWllG7elwmUc+vHqaZJGe9KH+bJm8dep0xXmMQ8dNbz9p4nVNXpaJL5z1mcp2bTGNVIezbYeC6tRKX1ONafz3Wb+c/ZTa1VX4xT7XS2zz5MoLNbPa9YcAylhetfUR1zNPapOcIcFmxrIWjD1DTmsxGqXLFxPWcJ97J99zb/LCqZRn70okoj1j89XQg6GkFvsjGVzT8PZ2e+eqLqkrN9mX/utRdwOUaU1b5xTSvWTLyv+imeBRRNOgHr0NeKEYk0vFEfpxOsWLGi1c6dO/c67ehih3fffbevWq1e7Ww4QmCdEbL9nJV2oUs/nhmSs+/ScvmjMQIEQAAEQAAEQMBT4klETFmERDIv17ufj1Ed9AZx5qGczzyUpmgldpcyd9N41Rgpa4mJPvOwXus5es4RFrDXj1v3NJ2ISj6ejZnOxlQwn6tRIQ1x5PFlXscIdndxoVShZ2GnIKh6zCGLdyMm3j7ZMFb1hxgTV9cSCw12xE5sbYhKKU+pm30qPt/094RK0XciBNI5SD3z2+fkWv4xZXSTZykh3DbqwHq2AQMGeP15Xr58eUkoa452sovVrPyS1a40b/Fxal4M0zmActhDo9HS5U8PpRVdL7pYDrePLYMACIAACICAVwnYeCqDqHjDa6oRUhe1ERxaWrTxddVRqeOl9us5W7iTBao9Z95fjrDpN0uIyVPRXNN4JyKxNxOIzNN4SyBKEJV8bhueRAeZyLMMUzPbhE1/PX2xYbxqi1QuzFs5k3krE4z91Sp6gyXWsUnaY7BtgxBMZ8giaZIjT6Vxzh7ThWQWGDvVwqYomrzxZdVlqXbiLVcqKTf7ca9l/L3VTkWibqFDkoVFJVRcbBn+LiX0dfHixRUPHjwo+gVz8+gshnfo0OHlF1980bYopdUi1t5Kfu7h8FjbHAX/A0LG0r38voDdOx2ePD/MBQIgAAIgAALljUCgiEprO3V6+uyL8aptcs7LYo5CGr4x3X4yHU+JSm6fPfH71GyhBxNbFhle5QhlPnevmcJj+iB6mP83m+saE7AT7TFxVVSye2c2HtEgPR1fP14luaQbRKWcJ9UDfRO71vkxuWHyA/yeHZotAWdZX+0x84WX0ri2lLuV1qIyhOWhjolGyRkjQx7ueiOr8LfLHxzoiO8BCIAACIAACICA9wgEgqjsOVfozEJdnzCnIFd88bE8PJWJ0b8+H6f60hlRV0Vlz5nCWFbepLYUW63ZBwfR7+teU33qzDbzz5+cLdRlwW5Ph4fTAnt3KY39XRaVbAKb54Rlm91glW3Wkd1QNnJO1UN9o6tXaBjftcZRiAzPiMqrV6/+PWHChIYeOh6n00gRlVP2vk/FOstM0ygtchMtz+x77b8nG+cfzTriFDY6gAAIgAAIgAAIuEUgEESlSEhpKfPIDXNr404Guyoqma0PsakfdyYqe00X6ulDaLR5v4Q4Gvb+IJVliQMPbtKjopLoCjuDN6SaB1EplZQX+sXUSepaqXudr7kXC+0mAWtP5e3Jjalb9bsd4tHr9aMHDhwo2T3vLuuuXbsu7d69+xBH88w+8BHllORbdIGoJOKZfS8t24ffO+4+hBgPAiAAAiAAAhIJBKKoZHUml7M6kxZlNiRuV3I3V0Vl31lC2xIVvehMVDKP5izm0Yx31k+ywRI6elJUUhCd3viaaqaEZQ1d8HInlZQX+6U832RzQsXo7giJtRWVj1a7i9qmNHVIf9GiRe0PHTq0w4tHZDH1qlWrGjAh6zAFNESl5WmUlOroys9nuuftz/zKV+eEdUAABEAABEAABETCGhWWqIdlfO3CMr5296X44mu5KipZ+ZL7WPmSns7s9URGVbnPr6uishtLchRunuSILRykpXnrX1f9I9UGiEqppLzdL5Uik9rW35Ncr0IDby+l5PmtPZXDG/WmihEWmZttzIeoVPKJcu+khnkn9+J3jbKPCdaBAAiAAAiUUQJK91SyrK9LWNZXi8z6rtynlHt8ropKlo11EMvG2lKuqJRSb1PuHqz7uyoqe84QJrC8sTWc7cmRfXjRc/f0PDw+Pj6+RuRT1Q/GJUXFeHjqgJgOojIgjkmSkSUlOrq64/zk3B0ZUyQNQCcQAAEQAAEQAAGPEwgAUbmciUoLTaJk8/av3wAAEF9JREFUUSnFA9mjB5NobSxLe7CblF9smCi9lIgrD4IrovLxOUJKiEBvm6+XFE3jlw1VZcuxAaJSDi0f9k3sVveB2FrxP0aoHZZE9KFFvlnKlTuVmzdvfvQ71nxjIQsj6dFj2EMPPfSOo/XKe/jrjWsFey+tOHAHY6T11blgHRAAARAAARAAAVsCSheVUkSaN87VVU+ltb1BAq1aP06109zG3vOF1jotvWT+s2AdzVg3QXXGG3sxzilHVL6wQIgvKGE2qqiOhU2FNIGVYsmSaydEpVxiPu6f2KnGqqRWlV4IZjmIy0OzFpVtkhvRY9Xvcbh1nU43dtCgQXN8xUdK9tfp+1ZSgbbIwqTykKgnP79Yf37JHl53Eg0EQAAEQAAEQEABBCAqxQ/BFVHJxjyiE6ib+YxiXtU+c4SeWoHuM+/n7cyvfC0xUSnlEWSCkFV0oS82jVX9KKW/WB+ISlfJ+XhcxQHNFkXHqUeEhZbt9/WyUqdy8p5lpNXrTE8Jqy9E8XERPn5qfLdcKUvEk5ulmXxl1QGEuvoOO1YCARAAARAAAacEICo9Iyr7zBWStHqaZjGbnpZsHK86ZL1C79lCP/YWyCO2TM0XIb3uiEpm6K+3FdL69HQV05fyG0SlfGZ+HRHXPHVO8v1VXwsNKZviMhBE5YoVKwQVV4kO2sRdSyw+DQ8LocjIshnKnHUp93rmx4crsQ0j1NWvvx2wOAiAAAiAAAjYEoCodF9U9pwljBNUVMt8JqGEPt40SbVdbPYe04VnKYQ6mH/WqA29nH6vyqvvSmKiMpTdj8y7QsXmtqhZcleKpTBVCT3Jyp60Nv+MJSG6tGGcKl3udwmiUi4xhfSPaZc6Jrlt2uzw8BCFWOQZMzQaLRVpLGvCTm39stPJ16xZM/SXX35Z5rSjmx2GDRv2UfPmzZ83TiMmLou0xTR13wcWK0VHhVFoGfMy52QVFunOXErO/DGzwE2sGA4CIAACIAACIOAlAhCVEkWlVP4q0mlU9OY3r6mu2RvCMto+zJIPPWb+ebSWJq16XXVV6jKu9JNzp9J8fpbRtjcTk/ea/0yuZxWi0pUTU9CYlGcaPxCZFFFmEvro9QLl5GosCPep/RA1SqjtlPqAAQO8/jxzL6U9Q4wC87tzv9H2zAMW3crSfcp8dqs7Z/flO3J3XPjL6aGgAwiAAAiAAAiAgF8JQFR6RlSyS4cFTHgt3ThBdcLZgfaaLdRmMaRjzfuFqGj92jGqX5yNdedzV0UlX5MJywlsfzXM1i9iwnKUVHu8/hIu1RD0c49AZLWkVgldq/0VE60OchKZ6d5CPhhtHQIbGxpFY5u94HRlrVa7dvDgwU877ehiB+al/IZ5KR91NnzS7ndtupQFUck9yNc2n3wq/2zW584Y4HMQAAEQAAEQAAFlEFC6qHxqtrCMCRKLjJRyvWSukLZO1MO8BqVVQ2gMn0vbgPTvPKyyCBmVu4Y192A9nV03XjVd7jxy+rsjKgVBUPWcQ8vN12MBkXNWv+pcRPMxEJVyTioA+kbVS2kW07Hy9rjEyMigoMA83tw8DelYai3zJiUElvf/+eefk9euXWs3HMHVI2T1Q6vPnTv3jLPxPDlP+l6L7yOFhARRTHS4s6GK/byoqJQKL+Y/f2XTsU8UayQMAwEQAAEQAAEQECWgdFHJ7isuYPcVI82N94eoZKqoZOMY1XBPPUb+KJXijqjk+7Z5VgTKZvcrx0thEpiqQ8rO0Cck9o7UTyreVa0PFzWB1Lig5MLSvDVNrEs9az0oaRveCIN1FPZqblT6nuWkFW5lfeWfBaqXMi+/mPL+zuqV89PpDZLAoxMIgAAIgAAIgIDiCChdVD65UGgaVEIWCTSCdLRi/QTVLm/CdKWkiBx7AlFU9pwjLBcES6ejVIEPUSnn6QjQvrEVY9tGP1R9Y3TF6LTgAPFeupoF1nhEW7duTV29evUld4+sbdu2NZhIPS11nrIQ+lqQU6zJOXB1RM72c5bZhqRCQD8QAAEQAAEQAAHFEFCCqGR3DJezO4Yq0lMWK8ExwRqOjY0q0m4Yo3KeqdENyt4WlSysdywTWhZJQfLP04gf3nEvrNbRlt31VLIEQ8tZrKCFPoSodOMhK7NDW1FoYmT1aTEtU8ZERii7vEUhC7ksLrbMulwpogINa9Rb8vEsWLDg+SNHjrgcsjlv3rx34uLihkldcOHhz+ia5oZF92gW9hoaAJ5i9lcpyr6Qk1G85/qdN/6+fEbqntEPBEAABEAABEBA2QSUICpNNujpNBOVM52JSv65VDHjKn1vi8onZglpwSp6w9w+Fju4a/1Y1QpXbXY2DqLSGSF87nEC0dHRKVE9a++NqxBZJZg98UpsYt7KN1sOpLAgeYJ4/fr1Vf773/9mSN1jjx49anbu3PmU1P68X2ZRFr1zZK3NEKWHvpaW6uj6sWtfZn9/8nE5+0VfEAABEAABEACBwCCgMFG5n4lKmxJwT88Xbi/VUn8LAaan79ePV33lLcreFpXcbuatXM7esq08fzSY/chuNQF39uu2qET4qzv4MbbyoBaDg0OClkVGhVJwkHLuX3JPJfdYWjepSXusxxUXF380ZcqUtzMzM20EYxPWRo4cycMsBrnyRIiFvcbGqhlPZQp2XhYk9+CVnjm/ntvoyn4xBgRAAARAAARAIDAIKElUsreirRvGqmz/Cs9QioVe0i4aunGjyjJZhQTsbM+VGhXSlfR0FYu6FW++EJU95gjtSKAXLMSyig6tH6NaImEbNl2emiWM2jROtdDeWHdFpfWzwjPibhqrkhS1p8w3XlcoY4xHCERVTxwd26X6nPj4CEU8G2LeSr5RV4WlRyBZTTJl7/tUorcVv0rzUhYWlVDemZyjWV/928gbHDAnCIAACIAACICA8gj4W1S+OF1Izg+hqZxMkJ6+ZN7HH8Qo9X5XqKoroEnWn8kNg+0xX4ggLS1kJfYK2b3MV/wpKvnaYgl75JTqMNrPBOUEtqcaG8fa93S6IyrZ2DA6Q+9Y8BJo5cZxKkl1yRUhHJT39YNFnEBcqyo9IhskvB2dGl0/JNh/HkwxYdkwvhb1rdPF7wf14fGv6FTeBRs7lCIoeXhrzoXcrbo9mY9lncjK9TswGAACIAACIAACIOBTAv4WlaxkSDorGVKZb5rVavyY1Wrcbg9Ar5nCq/ogqm/1edHVQnpta7rKMtmGyCQs3PQuJm6eMXwkUD4TRKPtrcVE2jIm0kwvuOy/vZIcaOB7Qmh2Dtl4JlkA7DpWruN/zh4GXj+yxxyax/YVxftuGEODVSrx8NkeM4U4tqPZ5nNGJdPIj15UWZZVEFmUeYrnMs9kjPEjtp7AvMosVFdag6iUxqnc90ruVrtOcHL0jojY8CQ1+/OKL1sJE0YFLFzTutWLq07P1X3Ul6ZYrDX/0KeUVWyr03hNSn+WcSkpYWHDecUabVZJ06ufH/vXb4CwMAiAAAiAAAiAgN8JuCMqe8wVWrGMrQMtNqGlRRtfVx2VsrEes4Tb2Y1C013JED0tXjtedcTRWCb2pjCBV9G6TzDR2cuFNFtMXPacK3RkSQd7MCEZZhpXSMM3pqtsXyD/v4MvS370XSzElmhojvWemBArZXZ/IuYNTE8XQo5E0Ti2p2pm43TMczvUHr+nZgg9VMF0v1xRyUqJLGB2WNQKpTgau3GQKkfKOfM+EJVSSaGfBYFKg1tsZdKyaWRMeEKwD7yYuXnFpNPZhsXXjq1KL9br5vPTmbH/QyrQFtmsy8UkF5W+bhp+/zRHc7Dg54uv5J+9/ouv18d6IAACIAACIAACyiQgV1R2myXEhGgpOiScHhP01EJECP3NRJ9lunurTno986qpqIntixJN2fiq6qIzUkxYDmVrNHPWz97nLAfl2nVjVFvNP++RLkRTLBOderqN/XvW3lghmD7WFdPxkBIqVkeR8OkYVYGrdliPY+LtXSbeXPLOiHlSmfAMOhdBUcUswJBdxBpg9Aibr8szzrKzsLyXKlC0XqB67Oe3RPj/D2LeSn1sBRr7YX9Vnpx9Q1TKoYW+ogSiqyU2Cm9SYVBkzdjhanWo17x09u5X8mywb7R8iX0vfPM4iyXl4WC4uI6N8Y2g5GGtXEiWZmsGFn59bnNeXt41PJ4gAAIgAAIgAAIgYE1ArqgU8+B5imppIY37Ml3lUJAa1+q+QIgP1dLbFt5HJ4awoFC9EEoTmXDNcsZByp6YSNNsGqMaKaWv1D6sZueDzE3ypNT+vB8Tej+xhDk2yRV7zxBq6ILJpu6nnLnN+7J1VrN1fnNlvG/ewl2xDGMCmkBM05S5UXekDo6JU0dxscX+uuKRZk9Y8smfqnk/Na9gHYbvkWUNk/x4YQdtu7xXdEIW207xcWrPLWY1E4unp9zcYp1eEG5cXr4vyWsLYWIQAAEQAAEQAIEyRUCuqGT3Eud7C0CJQJO/HifPA2Z4x5sh3MPCOruz161QprCCmfjhlwoF7oFj/1HKXjN/ZPf/vndktyv7Ykn8NSzZz+ve4DF8sRCeqaGRTLhW5d5LtgdeM4A5h0ngXslgLV0JjqJFn41Q2c2Jwe5QVhOCaJRc+1jCpCJVEF1hRR+OxsTQ1vcHqWwzTsqc1EOv+jJXRfdyRSAmJiYpqm+dEdrMgrvVVWI6hrM7mWGhLDLexZabp2GhsPbL+zzNEvjcxhL5eKrtv36cNp3+ye50oWwv0VE20QMuL69n8QglJToqvJi3XVVB/XP+V/+uzb+Uf8zlCTEQBEAABEAABECg3BKwEZVExUyAjSi3QLBxrxCAqPQKVkwqgUBIzD2p8cHXdc+q26fODgkNClGHh1JoqLQss448lsa1GyfUod61O0swRbzLyuOb6XRehsPxoSFMUEa7Lii1WvanIk2p4b5owe+X5uvTomfm/3DiqstGYyAIgAAIgAAIgAAImBGwFpVBWrq8/nXVZEACAU8SgKj0JE3M5RECUVXjHox+uPYQKixJ0+uEaHWFiAbhYcEUxIICgpifnguwvHx2JVlGiwmNpG7V76EkdTzFh8UQ07Cm0Vq9jrJLculqUTZ9c24b5ZVKv4+tVodQBLtHKta4x5GHrfL/v5h5HrU5xcf1EaHHCree/zrocsm2nJyckzK2gK4gAAIgAAIgAAIgIJuAzR1JPX29cbzqO9kTYQAIOCAAUYnHI+AIxFWNqx3cNKmiukp0dNHxG8+GN0y8WY/IT03zz41NKp1eE1wh4vewpPDTxdeKsrW7MrNKdEGlRRnZ5/xkFpYFARAAARAAARAAAbIWlY3G0JB0lco2pT5YgYAbBCAq3YCHoSAAAiAAAiAAAiAAAiCgVAID3xMis3Nogbl9rM7hIKXaC7sClwBEZeCeHSwHARAAARAAARAAARAAAbsEWMbTZTyrqLED80/+u2G8ai6QgYCnCUBUepoo5gMBEAABEAABEAABEAABPxNgNQzvYTUM+1h6KWnwzWocaCDgWQIQlZ7lidlAAARAAARAAARAAARAwG8EeswXIljVwZdY/cNG5kYER9Bb64arHKe195vVWDjQCUBUBvoJwn4QAAEQAAEQAAEQAIFyT8Amy6sZkTA1jflshCq33EMCAK8R+D8aQiD3EYHQBQAAAABJRU5ErkJggg==;clipPath=inset(66.33% 59.61% 0% 0% round 5%);shadow=0;points=[[0,0,0,0,0],[0,0.25,0,0,0],[0,0.5,0,0,0],[0,0.75,0,0,0],[0,1,0,0,0],[0.25,0,0,0,0],[0.25,1,0,0,0],[0.34,0.46,0,0,0],[0.34,0.51,0,0,0],[0.34,0.58,0,0,0],[0.35,0.37,0,0,0],[0.43,0.23,0,0,0],[0.43,0.26,0,0,0],[0.5,0,0,0,0],[0.5,1,0,0,0],[0.53,0.73,0,0,0],[0.59,0.74,0,0,0],[0.59,0.81,0,0,0],[0.69,0.36,0,0,0],[0.71,0.41,0,0,0],[0.75,0,0,0,0],[0.75,1,0,0,0],[1,0,0,0,0],[1,0.25,0,0,0],[1,0.5,0,0,0],[1,0.75,0,0,0],[1,1,0,0,0]];" vertex="1" parent="1">
          <mxGeometry x="140" y="-230" width="463.88" height="506.5" as="geometry" />
        </mxCell>
        <mxCell id="qtU55LKM3CnI8l4rLabQ-13" style="shape=connector;rounded=0;orthogonalLoop=1;jettySize=auto;html=1;exitX=0;exitY=0.5;exitDx=0;exitDy=0;strokeColor=#000000;strokeWidth=4;align=center;verticalAlign=middle;fontFamily=Helvetica;fontSize=11;fontColor=default;labelBackgroundColor=default;endArrow=classic;entryX=0.43;entryY=0.26;entryDx=0;entryDy=0;entryPerimeter=0;curved=1;" edge="1" parent="1" source="qtU55LKM3CnI8l4rLabQ-3" target="qtU55LKM3CnI8l4rLabQ-1">
          <mxGeometry relative="1" as="geometry">
            <Array as="points">
              <mxPoint x="330" y="20" />
            </Array>
          </mxGeometry>
        </mxCell>
        <mxCell id="qtU55LKM3CnI8l4rLabQ-14" style="edgeStyle=none;shape=connector;curved=1;rounded=0;orthogonalLoop=1;jettySize=auto;html=1;exitX=0;exitY=0.5;exitDx=0;exitDy=0;strokeColor=#000000;strokeWidth=4;align=center;verticalAlign=middle;fontFamily=Helvetica;fontSize=11;fontColor=default;labelBackgroundColor=default;endArrow=classic;entryX=0.35;entryY=0.37;entryDx=0;entryDy=0;entryPerimeter=0;" edge="1" parent="1" source="qtU55LKM3CnI8l4rLabQ-3" target="qtU55LKM3CnI8l4rLabQ-1">
          <mxGeometry relative="1" as="geometry">
            <Array as="points">
              <mxPoint x="440" y="10" />
            </Array>
          </mxGeometry>
        </mxCell>
        <mxCell id="qtU55LKM3CnI8l4rLabQ-15" style="edgeStyle=none;shape=connector;curved=1;rounded=0;orthogonalLoop=1;jettySize=auto;html=1;exitX=0;exitY=0.5;exitDx=0;exitDy=0;strokeColor=#000000;strokeWidth=4;align=center;verticalAlign=middle;fontFamily=Helvetica;fontSize=11;fontColor=default;labelBackgroundColor=default;endArrow=classic;entryX=0.34;entryY=0.46;entryDx=0;entryDy=0;entryPerimeter=0;" edge="1" parent="1" source="qtU55LKM3CnI8l4rLabQ-3" target="qtU55LKM3CnI8l4rLabQ-1">
          <mxGeometry relative="1" as="geometry">
            <Array as="points">
              <mxPoint x="430" y="20" />
            </Array>
          </mxGeometry>
        </mxCell>
        <mxCell id="qtU55LKM3CnI8l4rLabQ-16" style="edgeStyle=none;shape=connector;curved=1;rounded=0;orthogonalLoop=1;jettySize=auto;html=1;exitX=0;exitY=0.5;exitDx=0;exitDy=0;strokeColor=#000000;strokeWidth=4;align=center;verticalAlign=middle;fontFamily=Helvetica;fontSize=11;fontColor=default;labelBackgroundColor=default;endArrow=classic;entryX=0.34;entryY=0.51;entryDx=0;entryDy=0;entryPerimeter=0;" edge="1" parent="1" source="qtU55LKM3CnI8l4rLabQ-3" target="qtU55LKM3CnI8l4rLabQ-1">
          <mxGeometry relative="1" as="geometry">
            <Array as="points">
              <mxPoint x="510" y="40" />
            </Array>
          </mxGeometry>
        </mxCell>
        <mxCell id="qtU55LKM3CnI8l4rLabQ-17" style="edgeStyle=none;shape=connector;curved=1;rounded=0;orthogonalLoop=1;jettySize=auto;html=1;exitX=0;exitY=0.5;exitDx=0;exitDy=0;strokeColor=#000000;strokeWidth=4;align=center;verticalAlign=middle;fontFamily=Helvetica;fontSize=11;fontColor=default;labelBackgroundColor=default;endArrow=classic;entryX=0.34;entryY=0.58;entryDx=0;entryDy=0;entryPerimeter=0;" edge="1" parent="1" source="qtU55LKM3CnI8l4rLabQ-3" target="qtU55LKM3CnI8l4rLabQ-1">
          <mxGeometry relative="1" as="geometry">
            <Array as="points">
              <mxPoint x="560" y="80" />
            </Array>
          </mxGeometry>
        </mxCell>
        <mxCell id="qtU55LKM3CnI8l4rLabQ-3" value="&lt;div align=&quot;left&quot;&gt;C19666&lt;br&gt;(CL10A475KO8NNNC)&lt;/div&gt;" style="text;strokeColor=none;align=left;fillColor=none;html=1;verticalAlign=middle;whiteSpace=wrap;rounded=0;" vertex="1" parent="1">
          <mxGeometry x="610" y="-30" width="130" height="30" as="geometry" />
        </mxCell>
        <mxCell id="qtU55LKM3CnI8l4rLabQ-20" value="&lt;div align=&quot;left&quot;&gt;C22976&lt;br&gt;(0603WAF2004T5E)&lt;/div&gt;" style="text;html=1;align=left;verticalAlign=middle;resizable=0;points=[];autosize=1;strokeColor=none;fillColor=none;fontFamily=Helvetica;fontSize=12;fontColor=default;" vertex="1" parent="1">
          <mxGeometry x="610" y="-110" width="130" height="40" as="geometry" />
        </mxCell>
        <mxCell id="qtU55LKM3CnI8l4rLabQ-22" style="edgeStyle=none;shape=connector;curved=1;rounded=0;orthogonalLoop=1;jettySize=auto;html=1;exitX=0;exitY=0.5;exitDx=0;exitDy=0;entryX=0.71;entryY=0.41;entryDx=0;entryDy=0;entryPerimeter=0;strokeColor=#000000;strokeWidth=4;align=center;verticalAlign=middle;fontFamily=Helvetica;fontSize=12;fontColor=default;labelBackgroundColor=default;endArrow=classic;" edge="1" parent="1" source="qtU55LKM3CnI8l4rLabQ-3" target="qtU55LKM3CnI8l4rLabQ-1">
          <mxGeometry relative="1" as="geometry">
            <Array as="points">
              <mxPoint x="550" y="-30" />
            </Array>
          </mxGeometry>
        </mxCell>
        <mxCell id="qtU55LKM3CnI8l4rLabQ-23" style="edgeStyle=none;shape=connector;curved=1;rounded=0;orthogonalLoop=1;jettySize=auto;html=1;exitX=0;exitY=0.5;exitDx=0;exitDy=0;entryX=0.43;entryY=0.23;entryDx=0;entryDy=0;entryPerimeter=0;strokeColor=#000000;strokeWidth=4;align=center;verticalAlign=middle;fontFamily=Helvetica;fontSize=12;fontColor=default;labelBackgroundColor=default;endArrow=classic;" edge="1" parent="1" source="qtU55LKM3CnI8l4rLabQ-3" target="qtU55LKM3CnI8l4rLabQ-1">
          <mxGeometry relative="1" as="geometry">
            <Array as="points">
              <mxPoint x="470" />
              <mxPoint x="400" y="-20" />
              <mxPoint x="410" y="-110" />
            </Array>
          </mxGeometry>
        </mxCell>
        <mxCell id="qtU55LKM3CnI8l4rLabQ-25" style="edgeStyle=none;shape=connector;curved=1;rounded=0;orthogonalLoop=1;jettySize=auto;html=1;entryX=0.69;entryY=0.36;entryDx=0;entryDy=0;entryPerimeter=0;strokeColor=#000000;strokeWidth=4;align=center;verticalAlign=middle;fontFamily=Helvetica;fontSize=12;fontColor=default;labelBackgroundColor=default;endArrow=classic;exitX=-0.009;exitY=0.525;exitDx=0;exitDy=0;exitPerimeter=0;" edge="1" parent="1" source="qtU55LKM3CnI8l4rLabQ-20" target="qtU55LKM3CnI8l4rLabQ-1">
          <mxGeometry relative="1" as="geometry">
            <Array as="points">
              <mxPoint x="540" y="-50" />
            </Array>
          </mxGeometry>
        </mxCell>
        <mxCell id="qtU55LKM3CnI8l4rLabQ-26" value="&lt;div align=&quot;left&quot;&gt;C14663&lt;br&gt;(CC0603KRX7R9BB104)&lt;/div&gt;" style="text;strokeColor=none;align=left;fillColor=none;html=1;verticalAlign=middle;whiteSpace=wrap;rounded=0;" vertex="1" parent="1">
          <mxGeometry x="610" y="100" width="130" height="30" as="geometry" />
        </mxCell>
        <mxCell id="qtU55LKM3CnI8l4rLabQ-27" style="edgeStyle=none;shape=connector;curved=1;rounded=0;orthogonalLoop=1;jettySize=auto;html=1;exitX=0;exitY=0.5;exitDx=0;exitDy=0;entryX=0.53;entryY=0.73;entryDx=0;entryDy=0;entryPerimeter=0;strokeColor=#000000;strokeWidth=4;align=center;verticalAlign=middle;fontFamily=Helvetica;fontSize=12;fontColor=default;labelBackgroundColor=default;endArrow=classic;" edge="1" parent="1" source="qtU55LKM3CnI8l4rLabQ-26" target="qtU55LKM3CnI8l4rLabQ-1">
          <mxGeometry relative="1" as="geometry">
            <Array as="points">
              <mxPoint x="380" y="70" />
            </Array>
          </mxGeometry>
        </mxCell>
        <mxCell id="qtU55LKM3CnI8l4rLabQ-28" value="&lt;div align=&quot;left&quot;&gt;C79924&lt;br&gt;(TLV70018DDCR)&lt;/div&gt;" style="text;strokeColor=none;align=left;fillColor=none;html=1;verticalAlign=middle;whiteSpace=wrap;rounded=0;" vertex="1" parent="1">
          <mxGeometry x="610" y="140" width="130" height="30" as="geometry" />
        </mxCell>
        <mxCell id="qtU55LKM3CnI8l4rLabQ-29" value="&lt;div align=&quot;left&quot;&gt;C15849&lt;br&gt;(CL10A105KB8NNNC)&lt;/div&gt;" style="text;strokeColor=none;align=left;fillColor=none;html=1;verticalAlign=middle;whiteSpace=wrap;rounded=0;" vertex="1" parent="1">
          <mxGeometry x="610" y="180" width="130" height="30" as="geometry" />
        </mxCell>
        <mxCell id="qtU55LKM3CnI8l4rLabQ-30" style="edgeStyle=none;shape=connector;curved=1;rounded=0;orthogonalLoop=1;jettySize=auto;html=1;exitX=0;exitY=0.5;exitDx=0;exitDy=0;entryX=0.59;entryY=0.74;entryDx=0;entryDy=0;entryPerimeter=0;strokeColor=#000000;strokeWidth=4;align=center;verticalAlign=middle;fontFamily=Helvetica;fontSize=12;fontColor=default;labelBackgroundColor=default;endArrow=classic;" edge="1" parent="1" source="qtU55LKM3CnI8l4rLabQ-28" target="qtU55LKM3CnI8l4rLabQ-1">
          <mxGeometry relative="1" as="geometry">
            <Array as="points">
              <mxPoint x="520" y="130" />
            </Array>
          </mxGeometry>
        </mxCell>
        <mxCell id="qtU55LKM3CnI8l4rLabQ-31" style="edgeStyle=none;shape=connector;curved=1;rounded=0;orthogonalLoop=1;jettySize=auto;html=1;exitX=0;exitY=0.5;exitDx=0;exitDy=0;entryX=0.59;entryY=0.81;entryDx=0;entryDy=0;entryPerimeter=0;strokeColor=#000000;strokeWidth=4;align=center;verticalAlign=middle;fontFamily=Helvetica;fontSize=12;fontColor=default;labelBackgroundColor=default;endArrow=classic;" edge="1" parent="1" source="qtU55LKM3CnI8l4rLabQ-29" target="qtU55LKM3CnI8l4rLabQ-1">
          <mxGeometry relative="1" as="geometry">
            <Array as="points">
              <mxPoint x="510" y="200" />
            </Array>
          </mxGeometry>
        </mxCell>
      </root>
    </mxGraphModel>
  </diagram>
</mxfile>
